EBGaramond-VariableFont_wght (Autosaved).glyphspackage
{
glyphname = exclam;
kernLeft = exclam;
layers = (
{
layerId = m01;
shapes = (
{
closed = 1;
nodes = (
(140,228,o),
(141,244,qs),
(146,286,o),
(156,388,o),
(165,488,o),
(171,570,o),
(171,594,qs),
(171,616,o),
(146,649,o),
(126,649,qs),
(106,649,o),
(79,616,o),
(79,594,qs),
(79,570,o),
(84,488,o),
(91,388,o),
(101,287,o),
(105,244,qs),
(107,222,o),
(116,205,o),
(123,205,qs),
(131,205,o)
);
},
{
closed = 1;
nodes = (
(185,21,o),
(185,46,qs),
(185,71,o),
(150,106,o),
(125,106,qs),
(100,106,o),
(65,71,o),
(65,46,qs),
(65,21,o),
(100,-14,o),
(125,-14,qs),
(150,-14,o)
);
}
);
width = 250;
},
{
layerId = "9ED1D18C-5CBC-4B18-9EF9-8B0496956F76";
shapes = (
{
closed = 1;
nodes = (
(175,202,o),
(179,225,q),
(188,282,o),
(206,377,o),
(220,456,o),
(229,526,o),
(229,557,q),
(229,594,o),
(187,649,o),
(152,649,q),
(117,649,o),
(70,591,o),
(71,555,q),
(72,524,o),
(78,456,o),
(89,377,o),
(105,283,o),
(114,225,q),
(119,196,o),
(134,172,o),
(147,172,q),
(160,172,o)
);
},
{
closed = 1;
nodes = (
(220,30,o),
(220,61,q),
(220,92,o),
(176,136,o),
(145,136,q),
(114,136,o),
(70,92,o),
(70,61,q),
(70,30,o),
(114,-14,o),
(145,-14,q),
(176,-14,o)
);
}
);
width = 299;
}
);
note = exclam;
unicode = 33;
}
{
glyphname = numbersign;
lastChange = "2023-03-23 13:18:36 +0000";
layers = (
{
layerId = m01;
shapes = (
{
ref = uni2619.01;
}
);
width = 1000;
},
{
layerId = "9ED1D18C-5CBC-4B18-9EF9-8B0496956F76";
shapes = (
{
closed = 1;
nodes = (
(105,-88,o),
(109,-72,q),
(148,88,l),
(262,92,l),
(225,-56,l),
(225,-61,l),
(225,-68,o),
(234,-80,o),
(241,-80,q),
(257,-80,o),
(274,-72,o),
(278,-56,q),
(315,95,l),
(393,98,l),
(403,99,o),
(422,120,o),
(435,153,o),
(435,170,q),
(435,180,o),
(421,193,o),
(408,192,q),
(338,189,l),
(364,296,l),
(432,299,l),
(442,300,o),
(461,321,o),
(474,354,o),
(474,371,q),
(474,381,o),
(460,394,o),
(447,393,q),
(388,390,l),
(423,534,l),
(423,536,o),
(425,539,o),
(425,542,q),
(425,549,o),
(418,561,o),
(412,561,q),
(395,561,o),
(374,551,o),
(371,534,q),
(335,387,l),
(221,383,l),
(255,523,l),
(255,525,o),
(257,528,o),
(257,531,q),
(257,538,o),
(250,550,o),
(244,550,q),
(227,550,o),
(206,540,o),
(203,523,q),
(168,380,l),
(93,377,l),
(83,377,o),
(65,363,o),
(54,332,o),
(54,304,q),
(54,297,o),
(66,282,o),
(77,283,q),
(144,286,l),
(118,180,l),
(54,177,l),
(44,177,o),
(26,163,o),
(15,132,o),
(15,104,q),
(15,97,o),
(27,82,o),
(38,83,q),
(95,85,l),
(56,-72,l),
(56,-77,l),
(56,-84,o),
(65,-96,o),
(72,-96,q),
(88,-96,o)
);
},
{
closed = 1;
nodes = (
(311,293,l),
(285,186,l),
(171,182,l),
(198,289,l)
);
}
);
width = 488;
}
);
note = numbersign;
unicode = 35;
}
{
glyphname = dollar;
layers = (
{
layerId = m01;
shapes = (
{
closed = 1;
nodes = (
(195,-75,o),
(196,-67,qs),
(205,9,ls),
(206,16,o),
(214,16,qs),
(298,21,o),
(398,118,o),
(398,194,qs),
(398,239,o),
(358,302,o),
(296,348,o),
(263,367,q),
(253,375,o),
(250,379,o),
(251,385,qs),
(275,583,l),
(275,588,o),
(279,588,q),
(302,578,o),
(337,535,o),
(351,501,qs),
(353,496,o),
(369,489,o),
(378,489,qs),
(383,489,o),
(392,493,o),
(392,499,qs),
(392,520,o),
(378,569,o),
(373,588,qs),
(371,595,o),
(361,608,o),
(353,610,q),
(342,615,o),
(310,626,o),
(290,630,qs),
(284,631,o),
(284,637,qs),
(285,642,o),
(287,667,o),
(291,692,o),
(291,697,qs),
(291,702,o),
(283,712,o),
(278,712,qs),
(268,712,o),
(251,705,o),
(249,695,qs),
(242,638,l),
(242,632,o),
(232,632,qs),
(174,629,o),
(95,582,o),
(56,509,o),
(56,466,qs),
(56,428,o),
(93,371,o),
(153,327,o),
(185,308,qs),
(194,303,o),
(198,295,o),
(197,291,q),
(170,62,ls),
(170,59,o),
(164,59,o),
(161,60,qs),
(133,71,o),
(87,127,o),
(73,176,qs),
(72,182,o),
(63,186,o),
(58,186,qs),
(40,186,o),
(40,174,qs),
(42,155,o),
(44,98,o),
(49,79,qs),
(51,74,o),
(58,65,o),
(61,61,q),
(81,45,o),
(130,23,o),
(158,18,qs),
(160,18,o),
(166,14,o),
(165,9,qs),
(156,-62,ls),
(155,-72,o),
(165,-82,o),
(171,-82,qs),
(179,-82,o)
);
},
{
closed = 1;
nodes = (
(211,63,q),
(236,269,l),
(236,278,o),
(243,274,qs),
(278,252,o),
(319,204,o),
(319,158,qs),
(319,111,o),
(263,56,o),
(219,53,qs),
(211,53,o)
);
},
{
closed = 1;
nodes = (
(134,469,o),
(134,497,qs),
(134,550,o),
(188,592,o),
(227,595,qs),
(234,595,o),
(234,587,q),
(212,405,l),
(212,400,o),
(203,404,q),
(172,425,o)
);
}
);
width = 441;
},
{
layerId = "9ED1D18C-5CBC-4B18-9EF9-8B0496956F76";
shapes = (
{
closed = 1;
nodes = (
(206,-76,o),
(207,-70,q),
(215,4,l),
(216,10,o),
(221,10,q),
(314,15,o),
(430,106,o),
(430,198,q),
(430,239,o),
(404,304,o),
(343,363,o),
(290,394,q),
(271,406,o),
(260,418,o),
(261,427,q),
(278,572,l),
(279,579,o),
(286,578,q),
(315,568,o),
(355,514,o),
(369,471,q),
(371,464,o),
(387,457,o),
(394,457,q),
(402,457,o),
(412,464,o),
(412,468,q),
(412,503,o),
(407,559,o),
(402,578,q),
(398,593,o),
(388,604,o),
(377,608,q),
(363,614,o),
(318,628,o),
(293,632,q),
(285,634,o),
(285,641,q),
(286,648,o),
(287,663,o),
(289,677,o),
(290,684,q),
(292,696,o),
(284,712,o),
(274,712,q),
(259,712,o),
(238,702,o),
(237,693,q),
(232,642,l),
(232,635,o),
(222,633,q),
(171,627,o),
(87,579,o),
(38,503,o),
(38,454,q),
(38,403,o),
(79,332,o),
(143,282,o),
(179,261,q),
(185,257,o),
(189,249,o),
(188,244,q),
(170,81,l),
(169,76,o),
(164,74,o),
(160,75,q),
(126,92,o),
(74,165,o),
(59,214,q),
(55,220,o),
(48,226,o),
(39,226,q),
(21,226,o),
(21,214,q),
(19,174,o),
(27,100,o),
(37,74,q),
(40,67,o),
(51,56,o),
(58,51,q),
(81,38,o),
(130,19,o),
(156,14,q),
(160,13,o),
(162,10,o),
(161,7,q),
(155,-54,l),
(154,-64,o),
(165,-82,o),
(178,-82,q),
(189,-82,o)
);
},
{
closed = 1;
nodes = (
(223,74,q),
(239,216,l),
(240,225,o),
(247,221,q),
(271,204,o),
(293,166,o),
(293,138,q),
(293,113,o),
(266,69,o),
(234,63,q),
(222,63,o)
);
},
{
closed = 1;
nodes = (
(172,492,o),
(172,508,q),
(172,535,o),
(195,571,o),
(218,578,q),
(226,580,o),
(224,569,q),
(211,454,l),
(211,445,o),
(205,451,q),
(189,465,o)
);
}
);
width = 465;
}
);
note = dollar;
unicode = 36;
}
{
glyphname = ampersand;
layers = (
{
layerId = m01;
shapes = (
{
closed = 1;
nodes = (
(325,22,o),
(382,82,o),
(413,116,qs),
(419,122,l),
(432,101,ls),
(458,61,o),
(499,10,o),
(549,-15,o),
(586,-15,qs),
(614,-15,o),
(673,11,o),
(715,43,o),
(715,51,qs),
(715,58,o),
(710,63,o),
(703,63,qs),
(699,63,o),
(690,60,o),
(686,58,qs),
(668,48,o),
(629,40,o),
(608,40,qs),
(570,40,o),
(508,95,o),
(476,141,qs),
(459,165,l),
(459,165,o),
(493,201,o),
(543,255,o),
(596,310,o),
(634,350,o),
(638,353,qs),
(650,364,o),
(688,383,o),
(711,384,qs),
(718,385,o),
(736,397,o),
(736,403,qs),
(736,406,o),
(726,412,o),
(724,412,qs),
(712,412,o),
(679,404,o),
(643,397,o),
(628,397,qs),
(621,397,o),
(589,400,o),
(560,402,o),
(557,402,qs),
(554,402,o),
(535,399,o),
(535,391,qs),
(535,389,o),
(545,381,o),
(547,380,q),
(560,378,o),
(575,358,o),
(575,352,qs),
(575,345,o),
(540,292,o),
(489,228,o),
(465,202,qs),
(447,183,l),
(435,201,ls),
(405,245,o),
(343,305,o),
(305,346,qs),
(292,360,l),
(306,365,ls),
(356,383,o),
(412,439,o),
(411,477,qs),
(411,503,o),
(383,560,o),
(327,599,o),
(284,599,qs),
(250,599,o),
(186,571,o),
(145,519,o),
(145,484,qs),
(145,455,o),
(170,410,o),
(201,378,o),
(210,367,qs),
(225,351,l),
(205,342,ls),
(133,309,o),
(38,207,o),
(38,127,qs),
(38,86,o),
(82,22,o),
(161,-15,o),
(212,-15,qs),
(259,-15,o)
);
},
{
closed = 1;
nodes = (
(115,114,o),
(115,160,qs),
(115,190,o),
(128,253,o),
(173,308,o),
(219,326,qs),
(240,334,l),
(252,321,ls),
(295,275,o),
(370,197,o),
(395,159,qs),
(407,140,l),
(398,131,ls),
(361,92,o),
(288,50,o),
(238,50,qs),
(183,50,o)
);
},
{
closed = 1;
nodes = (
(237,421,o),
(211,457,o),
(203,489,o),
(203,509,qs),
(203,536,o),
(249,573,o),
(279,573,qs),
(314,573,o),
(347,517,o),
(347,482,qs),
(347,452,o),
(320,395,o),
(292,382,qs),
(279,376,l),
(263,393,ls)
);
}
);
width = 756;
},
{
layerId = "9ED1D18C-5CBC-4B18-9EF9-8B0496956F76";
shapes = (
{
closed = 1;
nodes = (
(318,6,o),
(387,51,o),
(416,85,q),
(421,91,l),
(440,70,l),
(466,42,o),
(514,4,o),
(572,-15,o),
(612,-15,q),
(663,-15,o),
(740,19,o),
(783,64,o),
(783,79,q),
(783,89,o),
(773,94,o),
(765,94,q),
(759,94,o),
(746,89,o),
(741,87,q),
(720,80,o),
(679,73,o),
(662,73,q),
(633,73,o),
(577,126,o),
(546,163,q),
(527,185,l),
(541,198,o),
(571,223,o),
(601,248,o),
(630,274,o),
(659,300,o),
(673,313,q),
(690,330,o),
(736,363,o),
(769,369,q),
(786,372,o),
(804,389,o),
(804,398,q),
(804,403,o),
(795,412,o),
(787,412,q),
(770,412,o),
(722,401,o),
(672,389,o),
(650,389,q),
(631,389,o),
(596,393,o),
(564,397,o),
(549,397,q),
(536,397,o),
(518,393,o),
(518,382,q),
(518,373,o),
(531,366,o),
(540,362,q),
(551,358,o),
(569,343,o),
(569,327,q),
(569,315,o),
(557,282,o),
(534,246,o),
(515,229,q),
(502,217,l),
(482,237,l),
(457,262,o),
(400,322,o),
(375,347,q),
(353,370,l),
(377,379,l),
(426,397,o),
(483,447,o),
(483,494,q),
(483,526,o),
(441,573,o),
(368,600,o),
(322,600,q),
(265,600,o),
(179,566,o),
(131,509,o),
(131,474,q),
(131,445,o),
(156,398,o),
(189,363,o),
(199,352,q),
(206,345,l),
(185,335,l),
(110,299,o),
(30,186,o),
(30,131,q),
(30,81,o),
(86,16,o),
(168,-16,o),
(207,-16,q),
(244,-16,o)
);
},
{
closed = 1;
nodes = (
(174,154,o),
(174,215,q),
(174,234,o),
(182,266,o),
(199,293,o),
(212,301,q),
(229,312,l),
(241,298,l),
(276,258,o),
(341,180,o),
(375,140,q),
(391,121,l),
(384,114,l),
(362,92,o),
(310,85,o),
(290,85,q),
(237,85,o)
);
},
{
closed = 1;
nodes = (
(306,422,o),
(288,444,o),
(274,483,o),
(274,511,q),
(274,534,o),
(301,562,o),
(317,562,q),
(343,562,o),
(365,517,o),
(364,488,q),
(364,464,o),
(353,417,o),
(342,406,q),
(332,396,l),
(311,416,l)
);
}
);
width = 809;
}
);
note = ampersand;
unicode = 38;
}
{
glyphname = quotesingle;
layers = (
{
layerId = m01;
shapes = (
{
closed = 1;
nodes = (
(87,460,o),
(91,469,qs),
(99,487,o),
(121,550,o),
(138,618,o),
(138,644,qs),
(138,657,o),
(132,676,o),
(124,676,qs),
(112,676,o),
(93,665,o),
(81,655,qs),
(75,650,o),
(62,631,o),
(62,620,q),
(62,620,o),
(64,587,o),
(66,542,o),
(66,524,qs),
(66,511,o),
(66,483,o),
(65,467,qs),
(65,460,o),
(68,444,o),
(72,444,qs),
(76,444,o)
);
}
);
width = 200;
},
{
layerId = "9ED1D18C-5CBC-4B18-9EF9-8B0496956F76";
shapes = (
{
closed = 1;
nodes = (
(107,421,o),
(113,432,q),
(125,455,o),
(158,532,o),
(183,615,o),
(183,647,q),
(183,662,o),
(168,685,o),
(156,685,q),
(137,685,o),
(109,672,o),
(91,660,q),
(81,654,o),
(61,632,o),
(61,617,q),
(61,600,o),
(64,562,o),
(67,520,o),
(67,496,q),
(67,480,o),
(70,449,o),
(69,429,q),
(69,421,o),
(74,400,o),
(81,400,q),
(86,400,o)
);
}
);
width = 245;
}
);
note = quotesingle;
unicode = 39;
}
{
glyphname = parenleft;
layers = (
{
layerId = m01;
shapes = (
{
closed = 1;
nodes = (
(264,-202,o),
(264,-192,qs),
(264,-191,o),
(257,-182,o),
(250,-174,o),
(249,-173,qs),
(226,-146,o),
(181,-47,o),
(145,80,o),
(123,217,o),
(123,281,qs),
(123,366,o),
(162,517,o),
(222,635,o),
(252,670,qs),
(253,671,o),
(259,680,o),
(265,688,o),
(265,689,qs),
(265,696,o),
(248,705,o),
(243,705,qs),
(236,705,o),
(221,699,o),
(216,694,qs),
(189,667,o),
(128,576,o),
(74,461,o),
(40,333,o),
(40,269,qs),
(40,218,o),
(63,105,o),
(102,-8,o),
(150,-108,o),
(199,-186,o),
(220,-207,qs),
(227,-214,o),
(237,-214,qs),
(247,-214,o)
);
}
);
width = 315;
},
{
layerId = "9ED1D18C-5CBC-4B18-9EF9-8B0496956F76";
shapes = (
{
closed = 1;
nodes = (
(288,-193,o),
(288,-174,q),
(288,-172,o),
(276,-157,o),
(263,-141,o),
(261,-139,q),
(242,-115,o),
(206,-23,o),
(177,93,o),
(160,215,o),
(160,270,q),
(160,356,o),
(194,501,o),
(244,610,o),
(269,642,q),
(271,644,o),
(282,660,o),
(292,675,o),
(292,677,q),
(292,689,o),
(262,706,o),
(252,706,q),
(238,706,o),
(210,694,o),
(202,686,q),
(176,660,o),
(118,570,o),
(67,456,o),
(35,330,o),
(35,267,q),
(35,217,o),
(57,105,o),
(95,-5,o),
(140,-104,o),
(187,-181,o),
(208,-202,q),
(221,-215,o),
(239,-215,q),
(257,-215,o)
);
}
);
width = 302;
}
);
note = parenleft;
unicode = 40;
}
{
glyphname = parenright;
kernLeft = parenright;
layers = (
{
layerId = m01;
shapes = (
{
closed = 1;
nodes = (
(95,-207,qs),
(116,-186,o),
(165,-108,o),
(213,-8,o),
(252,105,o),
(275,218,o),
(275,269,qs),
(275,333,o),
(241,461,o),
(187,576,o),
(126,667,o),
(99,694,qs),
(95,699,o),
(80,705,o),
(72,705,qs),
(67,705,o),
(50,696,o),
(50,689,qs),
(50,688,o),
(56,680,o),
(62,671,o),
(63,670,qs),
(94,635,o),
(153,517,o),
(192,366,o),
(192,281,qs),
(192,217,o),
(170,80,o),
(134,-47,o),
(89,-146,o),
(66,-173,q),
(66,-174,o),
(58,-182,o),
(51,-191,o),
(51,-192,qs),
(51,-202,o),
(68,-214,o),
(78,-214,qs),
(88,-214,o)
);
}
);
width = 315;
},
{
layerId = "9ED1D18C-5CBC-4B18-9EF9-8B0496956F76";
shapes = (
{
closed = 1;
nodes = (
(94,-202,q),
(115,-181,o),
(162,-104,o),
(207,-5,o),
(245,105,o),
(267,217,o),
(267,267,q),
(267,330,o),
(235,456,o),
(184,570,o),
(126,660,o),
(100,686,q),
(92,694,o),
(64,706,o),
(50,706,q),
(40,706,o),
(10,689,o),
(10,677,q),
(10,675,o),
(20,660,o),
(32,644,o),
(33,642,q),
(58,610,o),
(108,501,o),
(142,356,o),
(142,270,q),
(142,215,o),
(125,93,o),
(96,-23,o),
(60,-115,o),
(41,-139,q),
(40,-141,o),
(26,-157,o),
(14,-172,o),
(14,-174,q),
(14,-193,o),
(45,-215,o),
(63,-215,q),
(81,-215,o)
);
}
);
width = 302;
}
);
note = parenright;
unicode = 41;
}
{
glyphname = asterisk;
kernLeft = asterisk;
layers = (
{
layerId = m01;
shapes = (
{
closed = 1;
nodes = (
(201,386,o),
(201,394,qs),
(200,420,o),
(197,466,o),
(195,487,q),
(215,479,o),
(258,463,o),
(282,452,qs),
(288,450,o),
(307,455,o),
(307,465,qs),
(307,470,o),
(300,481,o),
(295,483,q),
(272,497,o),
(233,516,o),
(213,525,q),
(286,583,l),
(295,592,o),
(295,600,qs),
(295,608,o),
(283,614,o),
(277,614,qs),
(274,614,o),
(268,612,o),
(266,610,q),
(244,597,o),
(204,572,o),
(187,560,q),
(174,652,ls),
(173,659,o),
(164,670,o),
(157,670,qs),
(148,670,o),
(140,656,o),
(140,648,qs),
(141,622,o),
(144,576,o),
(146,555,q),
(127,563,o),
(83,580,o),
(59,590,qs),
(53,592,o),
(34,588,o),
(34,577,qs),
(34,572,o),
(41,561,o),
(46,559,q),
(69,546,o),
(109,526,o),
(128,517,q),
(55,459,l),
(46,450,o),
(46,442,qs),
(46,435,o),
(58,428,o),
(64,428,qs),
(67,428,o),
(73,430,o),
(75,432,q),
(98,446,o),
(137,470,o),
(154,482,q),
(167,390,ls),
(168,383,o),
(177,372,o),
(184,372,qs),
(193,372,o)
);
}
);
width = 340;
},
{
layerId = "9ED1D18C-5CBC-4B18-9EF9-8B0496956F76";
shapes = (
{
closed = 1;
nodes = (
(231,372,o),
(231,386,q),
(231,405,o),
(227,451,o),
(227,458,q),
(243,453,o),
(275,441,o),
(291,436,q),
(313,432,o),
(341,447,o),
(341,466,q),
(341,477,o),
(327,494,o),
(316,499,q),
(300,507,o),
(260,524,o),
(254,528,q),
(306,572,l),
(321,585,o),
(321,603,q),
(321,617,o),
(303,634,o),
(291,634,q),
(284,634,o),
(271,629,o),
(265,625,q),
(249,615,o),
(214,590,o),
(208,587,q),
(199,654,l),
(198,668,o),
(179,688,o),
(165,689,q),
(148,688,o),
(132,663,o),
(132,648,q),
(132,629,o),
(133,597,o),
(134,579,q),
(118,585,o),
(87,598,o),
(71,604,q),
(49,612,o),
(20,596,o),
(20,578,q),
(20,567,o),
(33,548,o),
(43,543,q),
(60,534,o),
(99,515,o),
(104,510,q),
(51,468,l),
(34,456,o),
(34,436,q),
(34,423,o),
(52,407,o),
(64,407,q),
(71,407,o),
(83,411,o),
(89,414,q),
(106,424,o),
(144,448,o),
(151,450,q),
(164,382,l),
(166,367,o),
(186,348,o),
(199,348,q),
(216,348,o)
);
}
);
width = 361;
}
);
note = asterisk;
unicode = 42;
}
{
glyphname = plus;
layers = (
{
layerId = m01;
shapes = (
{
closed = 1;
nodes = (
(310,-5,o),
(330,6,o),
(330,16,qs),
(330,218,ls),
(330,222,o),
(334,222,qs),
(519,222,ls),
(533,222,o),
(550,249,o),
(550,262,qs),
(550,267,o),
(542,272,o),
(537,272,qs),
(332,272,ls),
(330,272,o),
(330,278,qs),
(330,469,ls),
(330,474,o),
(321,482,o),
(316,482,qs),
(313,482,o),
(290,476,o),
(270,462,o),
(270,451,qs),
(270,280,ls),
(270,276,o),
(268,272,o),
(263,272,qs),
(74,272,ls),
(65,272,o),
(55,257,o),
(50,239,o),
(50,234,qs),
(50,230,o),
(59,222,o),
(64,222,qs),
(266,222,ls),
(270,222,o),
(270,217,qs),
(270,6,ls),
(270,1,o),
(278,-8,o),
(282,-8,qs),
(287,-8,o)
);
}
);
width = 590;
},
{
layerId = "9ED1D18C-5CBC-4B18-9EF9-8B0496956F76";
shapes = (
{
closed = 1;
nodes = (
(315,-6,o),
(334,7,o),
(334,17,q),
(334,206,l),
(334,219,o),
(347,219,q),
(540,219,l),
(554,219,o),
(574,253,o),
(574,266,q),
(574,274,o),
(560,282,o),
(551,282,q),
(347,282,l),
(334,282,o),
(334,296,q),
(334,489,l),
(334,498,o),
(326,512,o),
(318,512,q),
(310,512,o),
(287,503,o),
(271,488,o),
(271,478,q),
(271,296,l),
(271,289,o),
(267,282,o),
(257,282,q),
(59,282,l),
(49,282,o),
(36,263,o),
(30,240,o),
(30,232,q),
(30,228,o),
(40,219,o),
(47,219,q),
(258,219,l),
(271,219,o),
(271,206,q),
(271,5,l),
(271,-2,o),
(280,-12,o),
(284,-12,q),
(292,-12,o)
);
}
);
width = 604;
}
);
note = plus;
unicode = 43;
}
{
glyphname = comma;
kernLeft = period;
kernRight = uniA72E;
layers = (
{
layerId = m01;
shapes = (
{
closed = 1;
nodes = (
(106,-123,o),
(152,-79,o),
(182,-18,o),
(182,20,qs),
(182,62,o),
(135,117,o),
(99,117,qs),
(77,117,o),
(44,91,o),
(44,71,qs),
(44,55,o),
(69,31,o),
(91,29,qs),
(108,28,o),
(130,-3,o),
(130,-15,qs),
(130,-50,o),
(100,-95,o),
(56,-119,o),
(34,-124,qs),
(27,-125,o),
(20,-132,o),
(20,-136,qs),
(20,-147,o),
(38,-147,qs),
(57,-147,o)
);
}
);
width = 230;
},
{
layerId = "9ED1D18C-5CBC-4B18-9EF9-8B0496956F76";
shapes = (
{
closed = 1;
nodes = (
(144,-142,o),
(194,-93,o),
(224,-26,o),
(224,15,q),
(224,62,o),
(166,120,o),
(119,120,q),
(91,120,o),
(46,82,o),
(46,55,q),
(46,29,o),
(72,-1,o),
(88,-6,q),
(105,-11,o),
(130,-30,o),
(130,-50,q),
(130,-69,o),
(111,-102,o),
(74,-126,o),
(46,-134,q),
(35,-137,o),
(22,-143,o),
(22,-151,q),
(22,-168,o),
(49,-168,q),
(82,-168,o)
);
}
);
width = 251;
}
);
note = comma;
unicode = 44;
}
{
glyphname = hyphen;
layers = (
{
layerId = m01;
shapes = (
{
closed = 1;
nodes = (
(179,188,o),
(224,195,qs),
(236,197,o),
(245,230,o),
(245,249,qs),
(245,252,o),
(240,255,o),
(237,255,qs),
(189,250,o),
(93,237,o),
(45,230,qs),
(38,229,o),
(29,193,o),
(29,176,qs),
(29,170,o),
(35,170,qs),
(86,175,o)
);
}
);
width = 274;
},
{
layerId = "9ED1D18C-5CBC-4B18-9EF9-8B0496956F76";
shapes = (
{
closed = 1;
nodes = (
(225,186,o),
(280,194,q),
(292,196,o),
(300,218,o),
(300,250,q),
(300,258,o),
(294,268,o),
(283,267,q),
(228,263,o),
(104,247,o),
(49,238,q),
(37,236,o),
(25,207,o),
(25,174,q),
(25,162,o),
(36,163,q),
(92,168,o)
);
}
);
width = 325;
}
);
note = hyphen;
unicode = 45;
}
{
glyphname = period;
kernLeft = period;
kernRight = uniA72E;
layers = (
{
layerId = m01;
shapes = (
{
closed = 1;
nodes = (
(170,19,o),
(170,41,qs),
(170,64,o),
(138,96,o),
(115,96,qs),
(93,96,o),
(60,64,o),
(60,41,qs),
(60,19,o),
(93,-14,o),
(115,-14,qs),
(138,-14,o)
);
}
);
width = 230;
},
{
layerId = "9ED1D18C-5CBC-4B18-9EF9-8B0496956F76";
shapes = (
{
closed = 1;
nodes = (
(213,17,o),
(213,52,q),
(213,90,o),
(162,141,o),
(124,141,q),
(89,141,o),
(38,90,o),
(38,52,q),
(38,17,o),
(89,-34,o),
(124,-34,q),
(162,-34,o)
);
}
);
width = 251;
}
);
note = period;
unicode = 46;
}
{
glyphname = slash;
kernLeft = slash;
kernRight = slash;
lastChange = "2023-03-23 13:19:55 +0000";
layers = (
{
layerId = m01;
shapes = (
{
closed = 1;
nodes = (
(303,-33,o),
(310,-26,q),
(313,-24,o),
(313,-16,o),
(310,-13,qs),
(300,-3,o),
(271,3,o),
(271,14,qs),
(271,25,o),
(287,43,o),
(297,52,qs),
(307,62,o),
(322,83,o),
(322,97,qs),
(322,117,o),
(297,149,o),
(296,158,qs),
(295,163,o),
(299,166,o),
(302,166,q),
(305,167,o),
(312,164,o),
(314,162,qs),
(321,156,o),
(354,135,o),
(375,127,qs),
(387,123,o),
(415,93,o),
(435,58,o),
(435,45,qs),
(435,38,o),
(429,21,o),
(423,21,qs),
(416,21,o),
(404,28,o),
(399,32,qs),
(395,36,o),
(388,42,o),
(385,42,qs),
(375,42,o),
(375,35,qs),
(375,26,o),
(390,-3,o),
(417,-25,o),
(433,-25,qs),
(452,-25,o),
(472,15,o),
(472,40,qs),
(472,54,o),
(452,83,o),
(441,95,qs),
(433,104,o),
(421,118,o),
(421,122,qs),
(421,125,o),
(424,125,qs),
(426,125,o),
(434,121,q),
(438,120,o),
(445,116,o),
(448,116,qs),
(452,116,o),
(456,117,o),
(458,118,qs),
(460,119,o),
(465,120,o),
(469,120,qs),
(471,120,o),
(483,102,o),
(490,91,qs),
(495,84,o),
(507,73,o),
(512,73,qs),
(517,73,o),
(524,74,o),
(528,74,qs),
(537,74,o),
(544,68,qs),
(548,65,o),
(558,32,o),
(576,-8,o),
(605,-38,o),
(628,-38,qs),
(642,-38,o),
(668,-25,o),
(685,-5,o),
(685,5,qs),
(685,14,o),
(674,28,o),
(660,36,o),
(655,36,qs),
(652,36,o),
(646,33,o),
(644,31,qs),
(643,30,o),
(642,25,o),
(641,21,qs),
(640,14,o),
(634,2,o),
(628,2,qs),
(616,2,o),
(606,19,o),
(602,31,qs),
(594,63,o),
(570,93,o),
(535,100,qs),
(525,102,o),
(507,105,o),
(499,109,qs),
(493,112,o),
(487,121,o),
(487,128,qs),
(487,134,o),
(510,147,o),
(543,162,o),
(556,170,qs),
(567,176,o),
(587,196,o),
(594,196,qs),
(598,196,o),
(602,190,o),
(602,186,qs),
(602,182,o),
(598,176,o),
(596,171,qs),
(595,167,o),
(591,157,o),
(591,152,qs),
(591,127,o),
(623,94,o),
(673,77,o),
(699,77,qs),
(769,77,o),
(877,149,o),
(939,270,o),
(939,343,qs),
(939,379,o),
(918,454,o),
(880,516,o),
(832,555,o),
(805,555,qs),
(780,555,o),
(746,529,o),
(746,506,qs),
(746,494,o),
(765,480,o),
(777,480,qs),
(785,480,o),
(799,488,o),
(799,496,qs),
(799,499,o),
(797,504,o),
(796,506,qs),
(795,508,o),
(793,512,o),
(793,514,qs),
(793,521,o),
(804,528,o),
(811,528,qs),
(829,528,o),
(854,500,o),
(854,483,qs),
(854,461,o),
(823,430,o),
(801,430,qs),
(779,430,o),
(744,436,o),
(727,440,qs),
(709,444,o),
(672,450,o),
(649,450,qs),
(615,450,o),
(559,407,o),
(525,342,o),
(525,309,qs),
(525,293,o),
(543,269,o),
(553,259,qs),
(562,251,o),
(575,236,o),
(575,227,qs),
(575,218,o),
(550,195,o),
(515,173,o),
(485,159,o),
(479,159,qs),
(474,159,o),
(470,165,o),
(470,170,qs),
(470,183,o),
(483,202,o),
(491,210,qs),
(500,219,o),
(515,238,o),
(515,251,qs),
(515,267,o),
(494,291,o),
(482,301,qs),
(469,311,o),
(449,327,o),
(449,334,qs),
(449,342,o),
(456,350,o),
(462,350,qs),
(470,350,o),
(485,352,o),
(485,355,qs),
(485,360,o),
(468,367,o),
(460,367,qs),
(447,367,o),
(430,347,o),
(430,333,qs),
(430,318,o),
(446,296,o),
(454,285,qs),
(462,276,o),
(475,259,o),
(475,248,qs),
(475,237,o),
(468,218,o),
(463,210,qs),
(459,203,o),
(453,187,o),
(453,178,qs),
(453,174,o),
(454,169,o),
(455,166,qs),
(457,160,o),
(457,155,qs),
(457,148,o),
(452,148,qs),
(424,148,o),
(361,166,o),
(317,189,o),
(317,196,qs),
(317,203,o),
(325,215,o),
(329,222,qs),
(334,230,o),
(342,246,o),
(342,256,qs),
(342,267,o),
(345,275,o),
(348,275,qs),
(353,275,o),
(363,260,o),
(368,250,qs),
(376,236,o),
(397,209,o),
(410,209,qs),
(424,209,o),
(442,231,o),
(442,245,qs),
(442,259,o),
(419,280,o),
(411,281,qs),
(409,281,o),
(406,279,o),
(406,277,qs),
(406,273,o),
(408,265,o),
(409,260,qs),
(410,257,o),
(411,251,o),
(411,248,qs),
(411,236,o),
(398,236,qs),
(388,236,o),
(366,278,o),
(350,333,o),
(350,352,qs),
(350,357,o),
(344,368,o),
(340,373,qs),
(336,380,o),
(327,391,o),
(327,392,qs),
(327,395,o),
(330,400,o),
(333,400,qs),
(339,400,o),
(351,394,o),
(359,390,qs),
(367,386,o),
(388,381,o),
(402,381,qs),
(422,381,o),
(444,414,o),
(453,429,qs),
(459,439,o),
(478,446,o),
(489,446,qs),
(497,446,o),
(511,442,o),
(515,443,q),
(523,443,o),
(523,454,qs),
(523,465,o),
(493,484,o),
(478,484,qs),
(448,484,o),
(421,457,o),
(410,442,qs),
(401,429,o),
(380,407,o),
(359,407,qs),
(353,407,o),
(330,420,o),
(312,443,o),
(312,457,qs),
(312,468,o),
(329,487,o),
(337,490,qs),
(367,502,o),
(382,504,o),
(382,515,qs),
(382,520,o),
(367,528,o),
(345,533,o),
(335,533,qs),
(324,533,o),
(308,522,o),
(302,515,qs),
(296,509,o),
(285,499,o),
(279,499,qs),
(269,499,o),
(253,508,o),
(245,514,qs),
(234,521,o),
(205,534,o),
(179,534,qs),
(146,534,o),
(86,516,o),
(48,483,o),
(48,458,qs),
(48,442,o),
(69,420,o),
(85,420,qs),
(94,420,o),
(110,427,o),
(110,436,qs),
(110,441,o),
(110,449,o),
(106,453,qs),
(103,456,o),
(97,453,o),
(93,453,qs),
(89,453,o),
(87,461,o),
(87,465,qs),
(87,473,o),
(97,486,o),
(105,487,qs),
(117,489,o),
(135,492,o),
(145,492,qs),
(166,492,o),
(194,473,o),
(208,444,o),
(208,427,qs),
(208,397,o),
(201,355,o),
(187,333,o),
(177,333,qs),
(169,333,o),
(158,337,o),
(153,339,q),
(149,342,o),
(137,346,o),
(129,346,qs),
(108,346,o),
(73,317,o),
(73,296,qs),
(73,280,o),
(91,267,o),
(100,265,qs),
(105,264,o),
(113,260,o),
(113,258,qs),
(113,255,o),
(104,249,o),
(98,244,qs),
(88,237,o),
(64,216,o),
(64,202,qs),
(64,171,o),
(72,141,o),
(81,141,qs),
(86,141,o),
(93,153,o),
(95,160,qs),
(97,168,o),
(96,180,o),
(96,188,qs),
(96,201,o),
(139,232,o),
(160,248,qs),
(170,256,o),
(184,274,o),
(184,285,qs),
(184,288,o),
(180,292,o),
(178,293,qs),
(172,297,o),
(172,302,qs),
(172,305,o),
(193,321,o),
(200,321,qs),
(204,321,o),
(204,312,qs),
(204,308,o),
(203,295,o),
(203,289,qs),
(203,279,o),
(211,260,o),
(225,242,o),
(232,234,qs),
(244,221,o),
(265,198,o),
(265,190,qs),
(265,176,o),
(254,176,qs),
(247,176,o),
(236,185,o),
(231,191,q),
(224,197,o),
(210,208,o),
(200,208,qs),
(178,208,o),
(154,172,o),
(154,151,qs),
(154,129,o),
(168,114,o),
(176,112,qs),
(184,111,o),
(195,111,o),
(195,106,qs),
(195,99,o),
(181,99,qs),
(174,99,o),
(158,101,o),
(150,101,qs),
(143,101,o),
(136,89,o),
(133,81,qs),
(131,74,o),
(125,63,o),
(117,63,qs),
(111,63,o),
(106,69,o),
(104,73,qs),
(102,78,o),
(96,86,o),
(91,86,qs),
(81,86,o),
(70,69,o),
(70,58,qs),
(70,43,o),
(98,27,o),
(133,21,o),
(145,21,qs),
(158,21,o),
(198,46,o),
(237,83,o),
(263,118,o),
(263,127,qs),
(263,130,o),
(260,133,o),
(260,136,qs),
(260,141,o),
(271,149,o),
(281,149,qs),
(292,149,o),
(297,119,o),
(297,109,qs),
(297,96,o),
(280,80,o),
(269,72,qs),
(258,63,o),
(237,40,o),
(237,18,qs),
(237,-3,o),
(259,-41,o),
(280,-41,qs),
(290,-41,o)
);
},
{
closed = 1;
nodes = (
(252,239,o),
(229,282,o),
(229,303,qs),
(229,332,o),
(242,380,o),
(271,380,qs),
(297,380,o),
(325,333,o),
(325,307,qs),
(325,287,o),
(316,241,o),
(301,209,o),
(291,209,qs),
(281,209,o)
);
}
);
width = 1000;
},
{
layerId = "9ED1D18C-5CBC-4B18-9EF9-8B0496956F76";
shapes = (
{
closed = 1;
nodes = (
(77,-55,o),
(83,-42,q),
(396,645,l),
(399,652,o),
(388,667,o),
(374,667,q),
(358,667,o),
(334,659,o),
(327,645,q),
(15,-42,l),
(12,-49,o),
(25,-62,o),
(36,-62,q),
(50,-62,o)
);
}
);
width = 407;
}
);
note = slash;
unicode = 47;
}
{
glyphname = one;
layers = (
{
layerId = m01;
shapes = (
{
closed = 1;
nodes = (
(182,0,o),
(230,2,o),
(257,2,qs),
(284,2,o),
(329,0,o),
(376,-3,o),
(404,-3,qs),
(418,-3,o),
(418,8,qs),
(418,13,o),
(407,20,o),
(401,21,qs),
(360,31,o),
(314,46,o),
(295,72,o),
(295,97,qs),
(295,557,ls),
(295,578,o),
(297,613,o),
(299,628,qs),
(300,632,o),
(292,637,o),
(287,637,qs),
(286,637,o),
(283,637,o),
(282,636,qs),
(248,602,o),
(177,581,o),
(132,574,qs),
(122,573,o),
(107,563,o),
(107,556,qs),
(107,548,o),
(123,540,o),
(133,539,qs),
(155,538,o),
(193,530,o),
(217,510,o),
(217,491,qs),
(217,109,ls),
(217,80,o),
(194,49,o),
(145,32,o),
(107,22,qs),
(92,18,o),
(92,9,qs),
(92,5,o),
(100,-3,o),
(107,-3,qs),
(134,-3,o)
);
}
);
width = 480;
},
{
layerId = "9ED1D18C-5CBC-4B18-9EF9-8B0496956F76";
shapes = (
{
closed = 1;
nodes = (
(206,0,o),
(269,2,o),
(289,2,q),
(309,2,o),
(374,0,o),
(441,-2,o),
(462,-2,q),
(478,-2,o),
(478,13,q),
(478,23,o),
(468,31,o),
(459,34,q),
(433,42,o),
(390,57,o),
(364,80,o),
(364,98,q),
(364,552,l),
(364,580,o),
(370,613,o),
(370,625,q),
(370,630,o),
(356,636,o),
(348,636,q),
(344,636,o),
(338,633,o),
(336,632,q),
(287,607,o),
(188,577,o),
(126,573,q),
(113,572,o),
(94,560,o),
(94,546,q),
(94,534,o),
(112,524,o),
(120,522,q),
(142,518,o),
(181,506,o),
(206,480,o),
(206,455,q),
(206,97,l),
(206,77,o),
(184,54,o),
(146,41,o),
(120,34,q),
(101,29,o),
(101,12,q),
(101,5,o),
(113,-3,o),
(119,-3,q),
(141,-3,o)
);
}
);
width = 540;
}
);
note = one;
unicode = 49;
}
{
glyphname = less;
layers = (
{
layerId = m01;
shapes = (
{
closed = 1;
nodes = (
(507,-3,o),
(507,7,qs),
(507,14,o),
(497,48,o),
(483,55,qs),
(133,229,ls),
(131,230,o),
(130,233,o),
(132,234,qs),
(475,408,ls),
(490,416,o),
(506,450,o),
(506,459,qs),
(506,464,o),
(502,469,o),
(497,469,qs),
(494,469,o),
(489,466,qs),
(86,268,ls),
(71,261,o),
(53,229,o),
(53,222,qs),
(53,218,o),
(81,201,o),
(94,195,qs),
(487,-2,ls),
(492,-4,o)
);
}
);
width = 560;
},
{
layerId = "9ED1D18C-5CBC-4B18-9EF9-8B0496956F76";
shapes = (
{
closed = 1;
nodes = (
(502,6,o),
(502,22,q),
(502,37,o),
(482,65,o),
(465,72,q),
(137,229,l),
(132,231,o),
(133,238,o),
(137,239,q),
(465,397,l),
(482,405,o),
(502,432,o),
(502,447,q),
(502,456,o),
(495,471,o),
(485,471,q),
(482,471,o),
(478,469,q),
(75,272,l),
(57,265,o),
(35,228,o),
(35,220,q),
(35,214,o),
(69,196,o),
(85,188,q),
(478,0,l),
(486,-4,o)
);
}
);
width = 537;
}
);
note = less;
unicode = 60;
}
{
glyphname = equal;
layers = (
{
layerId = m01;
shapes = (
{
closed = 1;
nodes = (
(496,314,o),
(516,343,o),
(516,353,qs),
(516,358,o),
(507,364,o),
(502,364,qs),
(74,364,ls),
(65,364,o),
(55,349,o),
(50,331,o),
(50,326,qs),
(50,322,o),
(59,314,o),
(64,314,qs),
(484,314,ls)
);
},
{
closed = 1;
nodes = (
(496,143,o),
(516,169,o),
(516,182,qs),
(516,187,o),
(507,193,o),
(502,193,qs),
(74,193,ls),
(65,193,o),
(55,178,o),
(50,160,o),
(50,155,qs),
(50,151,o),
(59,143,o),
(64,143,qs),
(484,143,ls)
);
}
);
width = 566;
},
{
layerId = "9ED1D18C-5CBC-4B18-9EF9-8B0496956F76";
shapes = (
{
closed = 1;
nodes = (
(579,316,o),
(598,346,o),
(598,358,q),
(598,365,o),
(585,374,o),
(575,374,q),
(73,374,l),
(63,374,o),
(50,357,o),
(45,335,o),
(45,329,q),
(45,325,o),
(54,316,o),
(61,316,q),
(566,316,l)
);
},
{
closed = 1;
nodes = (
(579,133,o),
(598,163,o),
(598,175,q),
(598,182,o),
(585,191,o),
(575,191,q),
(73,191,l),
(63,191,o),
(50,174,o),
(45,152,o),
(45,146,q),
(45,142,o),
(54,133,o),
(61,133,q),
(566,133,l)
);
}
);
width = 643;
}
);
note = equal;
unicode = 61;
}
{
glyphname = greater;
layers = (
{
layerId = m01;
shapes = (
{
closed = 1;
nodes = (
(53,468,o),
(53,458,qs),
(53,451,o),
(63,417,o),
(77,410,qs),
(427,236,ls),
(429,235,o),
(430,232,o),
(428,231,qs),
(85,57,ls),
(70,50,o),
(54,15,o),
(54,6,qs),
(54,2,o),
(59,-4,o),
(63,-4,qs),
(67,-4,o),
(71,-1,q),
(474,197,ls),
(489,205,o),
(507,236,o),
(507,243,qs),
(507,248,o),
(479,264,o),
(466,270,qs),
(73,467,ls),
(68,469,o)
);
}
);
width = 560;
},
{
layerId = "9ED1D18C-5CBC-4B18-9EF9-8B0496956F76";
shapes = (
{
closed = 1;
nodes = (
(35,459,o),
(35,443,q),
(35,428,o),
(56,401,o),
(72,393,q),
(400,236,l),
(405,234,o),
(404,228,o),
(400,226,q),
(72,68,l),
(56,61,o),
(35,33,o),
(35,18,q),
(35,9,o),
(42,-6,o),
(52,-6,q),
(55,-6,o),
(59,-4,q),
(462,193,l),
(480,200,o),
(502,238,o),
(502,245,q),
(502,251,o),
(468,270,o),
(452,277,q),
(59,465,l),
(51,470,o)
);
}
);
width = 537;
}
);
note = greater;
unicode = 62;
}
{
glyphname = question;
kernLeft = question;
layers = (
{
layerId = m01;
shapes = (
{
closed = 1;
nodes = (
(151,197,o),
(151,204,qs),
(152,228,o),
(162,270,o),
(183,283,qs),
(199,294,o),
(221,307,o),
(247,322,o),
(269,334,qs),
(284,342,o),
(311,381,o),
(311,418,qs),
(311,444,o),
(288,512,o),
(246,583,o),
(218,611,qs),
(193,636,o),
(135,661,o),
(110,661,qs),
(97,661,o),
(70,639,o),
(70,625,qs),
(70,612,o),
(82,586,o),
(102,569,o),
(112,569,qs),
(120,569,o),
(131,570,o),
(136,571,qs),
(141,572,o),
(152,573,o),
(159,573,qs),
(210,572,o),
(260,508,o),
(260,458,qs),
(260,436,o),
(220,398,o),
(199,387,qs),
(152,363,o),
(98,323,o),
(98,297,qs),
(98,263,o),
(110,226,o),
(114,210,qs),
(117,198,o),
(131,181,o),
(136,181,qs),
(144,181,o)
);
},
{
closed = 1;
nodes = (
(210,21,o),
(210,46,qs),
(210,71,o),
(175,106,o),
(150,106,qs),
(125,106,o),
(90,71,o),
(90,46,qs),
(90,21,o),
(125,-14,o),
(150,-14,qs),
(175,-14,o)
);
}
);
width = 376;
},
{
layerId = "9ED1D18C-5CBC-4B18-9EF9-8B0496956F76";
shapes = (
{
closed = 1;
nodes = (
(170,183,o),
(171,195,q),
(175,225,o),
(191,252,o),
(213,263,q),
(230,272,o),
(261,290,o),
(290,307,o),
(304,314,q),
(323,323,o),
(354,371,o),
(354,412,q),
(354,442,o),
(336,502,o),
(304,558,o),
(281,582,q),
(247,618,o),
(169,661,o),
(126,661,q),
(96,661,o),
(51,628,o),
(51,609,q),
(51,591,o),
(70,548,o),
(99,517,o),
(114,517,q),
(125,517,o),
(142,521,o),
(149,524,q),
(156,527,o),
(180,536,o),
(204,536,q),
(230,536,o),
(274,512,o),
(274,486,q),
(274,458,o),
(241,423,o),
(209,409,q),
(148,381,o),
(88,328,o),
(88,291,q),
(88,263,o),
(104,218,o),
(113,202,q),
(122,187,o),
(141,171,o),
(148,171,q),
(158,171,o)
);
},
{
closed = 1;
nodes = (
(219,30,o),
(219,61,q),
(219,92,o),
(175,136,o),
(144,136,q),
(113,136,o),
(69,92,o),
(69,61,q),
(69,30,o),
(113,-14,o),
(144,-14,q),
(175,-14,o)
);
}
);
width = 399;
}
);
note = question;
unicode = 63;
}
{
glyphname = at;
layers = (
{
layerId = m01;
shapes = (
{
closed = 1;
nodes = (
(510,-103,o),
(585,-63,o),
(632,-26,o),
(632,-17,qs),
(632,-4,o),
(618,-4,qs),
(614,-4,o),
(605,-10,o),
(600,-14,qs),
(575,-35,o),
(503,-70,o),
(426,-91,o),
(393,-91,qs),
(333,-91,o),
(227,-48,o),
(144,29,o),
(97,131,o),
(97,191,qs),
(97,254,o),
(145,356,o),
(228,429,o),
(335,467,o),
(394,467,qs),
(464,467,o),
(581,401,o),
(652,290,o),
(652,220,qs),
(652,179,o),
(614,117,o),
(553,84,o),
(518,84,qs),
(508,84,o),
(500,102,o),
(500,113,qs),
(500,120,o),
(502,133,o),
(503,140,qs),
(524,272,ls),
(526,284,o),
(539,334,o),
(546,352,q),
(548,354,o),
(540,358,o),
(530,360,o),
(528,360,qs),
(523,360,o),
(516,351,o),
(508,341,o),
(503,341,qs),
(500,341,o),
(491,343,o),
(480,347,qs),
(471,350,o),
(430,355,o),
(415,355,qs),
(360,355,o),
(264,306,o),
(204,217,o),
(204,156,qs),
(204,104,o),
(273,47,o),
(322,47,qs),
(354,47,o),
(402,66,o),
(433,84,o),
(438,84,qs),
(443,84,o),
(452,66,o),
(472,47,o),
(492,47,qs),
(546,47,o),
(640,92,o),
(699,177,o),
(699,235,qs),
(699,291,o),
(652,389,o),
(572,464,o),
(470,507,o),
(414,507,qs),
(342,507,o),
(212,465,o),
(109,383,o),
(50,261,o),
(50,181,qs),
(50,112,o),
(103,-2,o),
(195,-86,o),
(315,-131,o),
(382,-131,qs),
(423,-131,o)
);
},
{
closed = 1;
nodes = (
(301,98,o),
(275,139,o),
(275,175,qs),
(275,224,o),
(310,291,o),
(365,325,o),
(393,325,qs),
(425,325,o),
(465,295,o),
(465,267,qs),
(465,264,o),
(465,258,o),
(464,255,qs),
(445,152,ls),
(441,129,o),
(427,109,o),
(418,103,qs),
(403,93,o),
(376,81,o),
(358,81,qs),
(339,81,o)
);
}
);
width = 749;
},
{
layerId = "9ED1D18C-5CBC-4B18-9EF9-8B0496956F76";
shapes = (
{
closed = 1;
nodes = (
(547,-128,o),
(634,-84,o),
(689,-42,o),
(689,-29,q),
(689,-10,o),
(662,-10,q),
(655,-10,o),
(634,-22,o),
(625,-28,q),
(598,-47,o),
(522,-78,o),
(445,-96,o),
(414,-96,q),
(351,-96,o),
(239,-52,o),
(153,28,o),
(104,134,o),
(104,196,q),
(104,262,o),
(154,367,o),
(241,441,o),
(353,481,o),
(415,481,q),
(497,481,o),
(617,417,o),
(683,303,o),
(683,226,q),
(683,185,o),
(646,126,o),
(586,94,o),
(551,94,q),
(541,94,o),
(533,112,o),
(533,123,q),
(533,130,o),
(535,142,o),
(536,148,q),
(560,285,l),
(563,301,o),
(579,363,o),
(588,386,q),
(588,390,o),
(573,395,o),
(556,397,o),
(553,397,q),
(547,397,o),
(538,384,o),
(529,370,o),
(523,370,q),
(519,370,o),
(502,377,o),
(494,379,q),
(482,382,o),
(440,390,o),
(421,390,q),
(354,390,o),
(243,331,o),
(177,222,o),
(177,148,q),
(177,85,o),
(262,17,o),
(323,17,q),
(361,17,o),
(420,41,o),
(458,64,o),
(464,64,q),
(470,64,o),
(485,43,o),
(517,22,o),
(547,22,q),
(599,22,o),
(696,80,o),
(758,180,o),
(758,244,q),
(758,309,o),
(706,418,o),
(614,499,o),
(495,543,o),
(429,543,q),
(349,543,o),
(205,497,o),
(94,407,o),
(30,273,o),
(30,185,q),
(30,109,o),
(90,-17,o),
(194,-108,o),
(328,-158,o),
(402,-158,q),
(447,-158,o)
);
},
{
closed = 1;
nodes = (
(310,97,o),
(286,144,o),
(286,181,q),
(286,232,o),
(317,304,o),
(366,342,o),
(394,342,q),
(424,342,o),
(467,305,o),
(467,276,q),
(467,272,o),
(467,266,o),
(466,264,q),
(444,147,l),
(440,125,o),
(429,102,o),
(420,95,q),
(407,85,o),
(381,75,o),
(364,75,q),
(346,75,o)
);
}
);
width = 788;
}
);
note = at;
unicode = 64;
}
{
glyphname = A;
kernLeft = A;
kernRight = A;
layers = (
{
layerId = m01;
shapes = (
{
closed = 1;
nodes = (
(114,1,o),
(147,1,qs),
(175,1,o),
(225,-1,o),
(238,-1,qs),
(251,-1,o),
(267,4,o),
(267,10,qs),
(267,21,o),
(234,30,qs),
(210,36,o),
(176,65,o),
(176,87,qs),
(176,92,o),
(186,130,o),
(200,178,o),
(214,221,o),
(217,231,qs),
(221,242,o),
(230,249,o),
(234,249,qs),
(423,249,ls),
(437,249,o),
(448,246,o),
(450,238,qs),
(458,213,o),
(476,148,o),
(489,91,o),
(489,76,qs),
(489,60,o),
(461,36,o),
(428,31,qs),
(415,29,o),
(395,19,o),
(395,12,qs),
(395,6,o),
(411,0,o),
(424,0,qs),
(436,0,o),
(470,1,o),
(510,1,o),
(529,1,qs),
(552,1,o),
(606,-2,o),
(654,-5,o),
(668,-5,qs),
(681,-5,o),
(697,-1,o),
(697,5,qs),
(697,12,o),
(681,25,o),
(664,28,qs),
(644,32,o),
(609,48,o),
(577,88,o),
(563,128,qs),
(551,164,o),
(510,281,o),
(461,428,o),
(409,586,o),
(385,662,qs),
(383,668,o),
(380,680,o),
(378,684,qs),
(377,686,o),
(374,686,o),
(373,685,qs),
(370,681,o),
(363,657,o),
(354,651,qs),
(345,645,o),
(327,639,o),
(318,636,q),
(317,620,o),
(309,592,o),
(304,578,qs),
(279,509,o),
(234,392,o),
(192,284,o),
(145,172,o),
(117,108,qs),
(101,71,o),
(57,39,o),
(31,31,qs),
(15,26,o),
(-2,15,o),
(-2,8,qs),
(-2,2,o),
(14,-5,o),
(27,-5,qs),
(52,-5,o)
);
},
{
closed = 1;
nodes = (
(240,284,o),
(240,289,qs),
(240,291,o),
(242,297,qs),
(333,542,ls),
(339,559,o),
(341,559,qs),
(344,559,o),
(350,541,qs),
(428,297,ls),
(429,294,o),
(430,289,o),
(430,287,qs),
(430,282,o),
(416,282,qs),
(261,282,ls),
(251,282,o)
);
}
);
width = 692;
},
{
layerId = "9ED1D18C-5CBC-4B18-9EF9-8B0496956F76";
shapes = (
{
closed = 1;
nodes = (
(106,1,o),
(135,1,q),
(165,1,o),
(215,-2,o),
(248,-2,q),
(259,-2,o),
(269,5,o),
(269,12,q),
(269,29,o),
(247,34,q),
(200,45,o),
(176,77,o),
(185,109,q),
(189,124,o),
(197,149,o),
(205,173,o),
(214,198,o),
(218,213,q),
(220,221,o),
(227,230,o),
(235,230,q),
(409,230,l),
(417,230,o),
(423,221,o),
(425,213,q),
(430,194,o),
(440,155,o),
(451,117,o),
(456,97,q),
(464,68,o),
(428,42,o),
(390,34,q),
(381,32,o),
(368,21,o),
(368,12,q),
(368,5,o),
(381,-3,o),
(389,-3,q),
(411,-3,o),
(471,0,o),
(529,2,o),
(549,2,q),
(572,2,o),
(633,0,o),
(694,-2,o),
(715,-2,q),
(723,-2,o),
(734,6,o),
(734,13,q),
(734,23,o),
(721,31,o),
(712,34,q),
(692,40,o),
(660,57,o),
(637,82,o),
(632,98,q),
(610,168,o),
(565,306,o),
(521,443,o),
(478,577,o),
(458,643,q),
(456,651,o),
(451,664,o),
(447,671,q),
(443,679,o),
(434,677,o),
(429,674,q),
(422,667,o),
(393,646,o),
(374,639,q),
(353,632,o),
(319,623,o),
(299,618,q),
(296,617,o),
(288,578,o),
(271,532,q),
(251,477,o),
(210,368,o),
(168,261,o),
(124,153,o),
(100,98,q),
(90,76,o),
(47,42,o),
(17,34,q),
(8,31,o),
(-5,22,o),
(-5,12,q),
(-5,2,o),
(10,-5,o),
(21,-5,q),
(53,-5,o)
);
},
{
closed = 1;
nodes = (
(246,293,o),
(246,298,q),
(246,302,o),
(248,306,q),
(325,527,l),
(329,537,o),
(331,537,q),
(334,537,o),
(337,527,q),
(401,306,l),
(402,302,o),
(403,299,o),
(403,295,q),
(403,288,o),
(388,288,q),
(263,288,l),
(257,288,o)
);
}
);
width = 726;
}
);
note = A;
unicode = 65;
}
{
glyphname = B;
kernLeft = B;
kernRight = B;
layers = (
{
layerId = m01;
shapes = (
{
closed = 1;
nodes = (
(116,-2,o),
(152,0,o),
(178,0,qs),
(208,0,o),
(260,-4,o),
(273,-4,qs),
(330,-4,o),
(412,14,o),
(443,30,qs),
(464,41,o),
(512,75,o),
(547,139,o),
(547,194,qs),
(547,238,o),
(520,295,o),
(477,330,o),
(428,352,o),
(405,359,q),
(401,361,o),
(401,368,o),
(405,369,qs),
(430,379,o),
(456,396,o),
(472,412,qs),
(483,423,o),
(506,474,o),
(506,508,qs),
(506,590,o),
(391,657,o),
(274,657,qs),
(245,657,o),
(210,655,o),
(182,652,o),
(163,652,qs),
(143,652,o),
(116,653,o),
(86,653,o),
(59,653,qs),
(46,653,o),
(30,648,o),
(30,642,qs),
(30,635,o),
(46,624,o),
(63,622,qs),
(100,619,o),
(130,585,o),
(130,549,qs),
(130,99,ls),
(130,63,o),
(90,31,o),
(52,24,qs),
(19,18,o),
(19,6,qs),
(19,0,o),
(35,-5,o),
(48,-5,qs),
(77,-5,o)
);
},
{
closed = 1;
nodes = (
(208,66,o),
(208,108,qs),
(208,307,ls),
(208,317,o),
(233,343,o),
(265,343,qs),
(310,343,o),
(366,326,o),
(379,318,qs),
(393,311,o),
(427,279,o),
(453,228,o),
(453,189,qs),
(453,146,o),
(407,77,o),
(331,37,o),
(287,37,qs),
(249,37,o)
);
},
{
closed = 1;
nodes = (
(208,382,o),
(208,408,qs),
(208,582,ls),
(208,605,o),
(233,627,o),
(274,627,qs),
(336,627,o),
(398,585,o),
(420,524,o),
(420,495,qs),
(420,452,o),
(386,406,o),
(375,400,qs),
(344,383,o),
(281,371,o),
(254,371,qs),
(242,371,o)
);
}
);
width = 587;
},
{
layerId = "9ED1D18C-5CBC-4B18-9EF9-8B0496956F76";
shapes = (
{
closed = 1;
nodes = (
(106,-2,o),
(159,0,o),
(179,0,q),
(218,0,o),
(288,-4,o),
(326,-4,q),
(384,-4,o),
(468,11,o),
(501,27,q),
(522,38,o),
(572,72,o),
(607,138,o),
(607,194,q),
(607,238,o),
(577,295,o),
(527,331,o),
(470,350,o),
(443,355,q),
(439,356,o),
(439,364,o),
(443,365,q),
(464,370,o),
(501,389,o),
(517,402,q),
(542,422,o),
(571,478,o),
(571,508,q),
(571,590,o),
(446,657,o),
(327,657,q),
(291,657,o),
(242,652,o),
(202,647,o),
(178,647,q),
(152,647,o),
(112,651,o),
(68,655,o),
(35,655,q),
(26,655,o),
(15,646,o),
(15,639,q),
(15,633,o),
(24,621,o),
(36,618,q),
(71,610,o),
(96,583,o),
(96,551,q),
(96,95,l),
(96,64,o),
(69,42,o),
(36,32,q),
(16,26,o),
(16,11,q),
(16,5,o),
(26,-5,o),
(35,-5,q),
(55,-5,o)
);
},
{
closed = 1;
nodes = (
(266,86,o),
(266,116,q),
(266,288,l),
(266,305,o),
(297,320,o),
(310,320,q),
(337,320,o),
(374,305,o),
(381,298,q),
(390,291,o),
(411,264,o),
(426,220,o),
(426,186,q),
(426,149,o),
(398,89,o),
(351,54,o),
(323,54,q),
(296,54,o)
);
},
{
closed = 1;
nodes = (
(266,385,o),
(266,403,q),
(266,568,l),
(266,589,o),
(292,610,o),
(317,610,q),
(348,610,o),
(390,585,o),
(411,530,o),
(411,485,q),
(411,445,o),
(389,402,o),
(382,395,q),
(364,379,o),
(328,368,o),
(305,368,q),
(293,368,o)
);
}
);
width = 635;
}
);
note = B;
unicode = 66;
}
{
glyphname = D;
kernLeft = B;
kernRight = D;
layers = (
{
layerId = m01;
shapes = (
{
closed = 1;
nodes = (
(569,47,o),
(665,144,o),
(719,270,o),
(719,342,qs),
(719,408,o),
(676,523,o),
(586,610,o),
(442,659,o),
(340,659,qs),
(330,659,o),
(287,657,o),
(234,653,o),
(185,651,o),
(169,651,qs),
(145,651,o),
(115,652,o),
(84,653,o),
(58,653,qs),
(45,653,o),
(29,647,o),
(29,640,qs),
(29,632,o),
(45,625,o),
(62,622,qs),
(100,615,o),
(129,585,o),
(129,549,qs),
(129,99,ls),
(129,63,o),
(100,31,o),
(62,24,qs),
(45,21,o),
(29,16,o),
(29,8,qs),
(29,1,o),
(45,-5,o),
(58,-5,qs),
(85,-5,o),
(116,-2,o),
(143,0,o),
(163,0,qs),
(203,0,o),
(292,-3,o),
(361,-7,o),
(371,-7,qs),
(443,-7,o)
);
},
{
closed = 1;
nodes = (
(253,41,o),
(209,81,o),
(209,121,qs),
(209,567,ls),
(209,597,o),
(241,623,o),
(302,628,o),
(345,628,qs),
(396,628,o),
(496,587,o),
(576,510,o),
(624,397,o),
(624,325,qs),
(624,238,o),
(557,104,o),
(437,28,o),
(359,28,qs),
(322,28,o)
);
}
);
width = 754;
},
{
layerId = "9ED1D18C-5CBC-4B18-9EF9-8B0496956F76";
shapes = (
{
closed = 1;
nodes = (
(607,50,o),
(698,146,o),
(744,269,o),
(744,335,q),
(744,407,o),
(688,526,o),
(590,612,o),
(464,659,o),
(394,659,q),
(374,659,o),
(314,656,o),
(251,653,o),
(198,650,o),
(183,650,q),
(163,650,o),
(110,653,o),
(55,655,o),
(33,655,q),
(27,655,o),
(15,647,o),
(15,640,q),
(15,631,o),
(25,620,o),
(34,618,q),
(74,609,o),
(100,583,o),
(100,551,q),
(100,97,l),
(100,66,o),
(72,42,o),
(34,34,q),
(25,32,o),
(15,21,o),
(15,12,q),
(15,5,o),
(27,-3,o),
(33,-3,q),
(55,-3,o),
(110,-1,o),
(163,0,o),
(183,0,q),
(196,0,o),
(262,-3,o),
(345,-7,o),
(385,-7,q),
(473,-7,o)
);
},
{
closed = 1;
nodes = (
(291,65,o),
(270,103,o),
(270,134,q),
(270,568,l),
(270,584,o),
(290,597,o),
(329,601,o),
(359,601,q),
(410,601,o),
(486,558,o),
(536,480,o),
(561,372,o),
(561,306,q),
(561,228,o),
(520,112,o),
(435,48,o),
(369,48,q),
(335,48,o)
);
}
);
width = 769;
}
);
note = D;
unicode = 68;
}
{
glyphname = H;
kernLeft = B;
kernRight = H;
layers = (
{
layerId = m01;
shapes = (
{
closed = 1;
nodes = (
(126,-2,o),
(155,0,o),
(176,0,qs),
(199,0,o),
(231,-2,o),
(266,-5,o),
(293,-5,qs),
(306,-5,o),
(322,2,o),
(322,8,qs),
(322,15,o),
(307,21,o),
(290,24,qs),
(256,30,o),
(210,75,o),
(210,106,qs),
(210,296,ls),
(210,307,o),
(215,307,qs),
(597,307,ls),
(602,307,o),
(602,297,o),
(602,292,qs),
(602,97,ls),
(602,65,o),
(565,30,o),
(533,24,qs),
(516,21,o),
(501,15,o),
(501,8,qs),
(501,2,o),
(517,-5,o),
(530,-5,qs),
(557,-5,o),
(589,-2,o),
(616,0,o),
(637,0,qs),
(658,0,o),
(684,-2,o),
(714,-5,o),
(741,-5,qs),
(754,-5,o),
(770,2,o),
(770,8,qs),
(770,18,o),
(738,24,qs),
(701,31,o),
(682,63,o),
(682,100,qs),
(682,552,ls),
(682,581,o),
(698,615,o),
(735,622,qs),
(768,628,o),
(768,640,qs),
(768,646,o),
(753,653,o),
(739,653,qs),
(712,653,o),
(686,651,o),
(666,650,o),
(648,650,qs),
(626,650,o),
(594,651,o),
(559,653,o),
(532,653,qs),
(503,653,o),
(503,640,qs),
(503,633,o),
(519,625,o),
(536,622,qs),
(574,615,o),
(602,579,o),
(602,552,qs),
(602,357,ls),
(602,345,o),
(595,345,qs),
(224,345,ls),
(220,345,o),
(210,348,o),
(210,354,qs),
(210,551,ls),
(210,580,o),
(241,615,o),
(278,622,qs),
(295,625,o),
(311,633,o),
(311,640,qs),
(311,653,o),
(282,653,qs),
(255,653,o),
(224,651,o),
(197,650,o),
(176,650,qs),
(156,650,o),
(130,651,o),
(100,653,o),
(73,653,qs),
(58,653,o),
(44,646,o),
(44,640,qs),
(44,628,o),
(77,622,qs),
(115,615,o),
(130,586,o),
(130,551,qs),
(130,99,ls),
(130,63,o),
(107,31,o),
(69,24,qs),
(37,18,o),
(37,8,qs),
(37,2,o),
(53,-5,o),
(66,-5,qs),
(93,-5,o)
);
}
);
width = 810;
},
{
layerId = "9ED1D18C-5CBC-4B18-9EF9-8B0496956F76";
shapes = (
{
closed = 1;
nodes = (
(104,0,o),
(157,2,o),
(177,2,q),
(197,2,o),
(253,0,o),
(311,-2,o),
(332,-2,q),
(340,-2,o),
(348,6,o),
(348,13,q),
(348,23,o),
(338,31,o),
(329,34,q),
(290,45,o),
(264,70,o),
(264,98,q),
(264,284,l),
(264,301,o),
(280,301,q),
(521,301,l),
(529,301,o),
(535,292,o),
(535,284,q),
(535,98,l),
(535,70,o),
(509,45,o),
(470,34,q),
(461,31,o),
(451,23,o),
(451,13,q),
(451,6,o),
(460,-2,o),
(467,-2,q),
(488,-2,o),
(546,0,o),
(603,2,o),
(622,2,q),
(642,2,o),
(695,0,o),
(747,-3,o),
(766,-3,q),
(772,-3,o),
(784,5,o),
(784,12,q),
(784,29,o),
(765,34,q),
(731,42,o),
(705,66,o),
(705,97,q),
(705,551,l),
(705,583,o),
(730,609,o),
(765,618,q),
(784,623,o),
(784,640,q),
(784,647,o),
(772,655,o),
(766,655,q),
(744,655,o),
(692,653,o),
(642,650,o),
(622,650,q),
(603,650,o),
(546,652,o),
(488,654,o),
(467,654,q),
(451,654,o),
(451,639,q),
(451,629,o),
(461,621,o),
(470,618,q),
(511,606,o),
(535,580,o),
(535,550,q),
(535,373,l),
(535,358,o),
(521,358,q),
(280,358,l),
(273,358,o),
(264,365,o),
(264,373,q),
(264,550,l),
(264,580,o),
(288,606,o),
(329,618,q),
(338,621,o),
(348,629,o),
(348,639,q),
(348,654,o),
(332,654,q),
(311,654,o),
(253,652,o),
(197,650,o),
(177,650,q),
(157,650,o),
(107,653,o),
(55,655,o),
(33,655,q),
(27,655,o),
(15,647,o),
(15,640,q),
(15,623,o),
(34,618,q),
(69,609,o),
(94,583,o),
(94,551,q),
(94,97,l),
(94,66,o),
(68,42,o),
(34,34,q),
(15,29,o),
(15,12,q),
(15,5,o),
(27,-3,o),
(33,-3,q),
(52,-3,o)
);
}
);
width = 799;
}
);
note = H;
unicode = 72;
}
{
glyphname = J;
kernRight = IJ;
layers = (
{
layerId = m01;
shapes = (
{
closed = 1;
nodes = (
(111,-170,o),
(131,-146,qs),
(147,-127,o),
(184,-69,o),
(210,5,o),
(210,47,qs),
(210,551,ls),
(210,586,o),
(230,615,o),
(267,622,qs),
(284,625,o),
(300,635,o),
(300,642,qs),
(300,648,o),
(284,653,o),
(271,653,qs),
(244,653,o),
(217,651,o),
(196,650,o),
(177,650,qs),
(154,650,o),
(122,651,o),
(87,653,o),
(60,653,qs),
(47,653,o),
(31,648,o),
(31,642,qs),
(31,628,o),
(64,622,qs),
(100,615,o),
(130,586,o),
(130,551,qs),
(130,-1,ls),
(130,-74,o),
(99,-159,o),
(64,-159,qs),
(51,-159,o),
(30,-145,o),
(17,-129,qs),
(7,-115,o),
(-17,-104,o),
(-30,-104,qs),
(-41,-104,o),
(-69,-134,o),
(-69,-151,qs),
(-69,-200,o),
(34,-200,qs),
(63,-200,o)
);
}
);
width = 340;
},
{
layerId = "9ED1D18C-5CBC-4B18-9EF9-8B0496956F76";
shapes = (
{
closed = 1;
nodes = (
(179,-140,o),
(211,-97,q),
(235,-65,o),
(272,6,o),
(292,71,o),
(292,94,q),
(292,550,l),
(292,580,o),
(316,606,o),
(357,618,q),
(366,621,o),
(376,629,o),
(376,639,q),
(376,647,o),
(368,654,o),
(360,654,q),
(339,654,o),
(281,652,o),
(225,650,o),
(205,650,q),
(185,650,o),
(132,653,o),
(77,655,o),
(55,655,q),
(49,655,o),
(37,647,o),
(37,640,q),
(37,623,o),
(56,618,q),
(96,609,o),
(122,583,o),
(122,551,q),
(122,9,l),
(122,-82,o),
(89,-158,o),
(60,-158,q),
(49,-158,o),
(30,-127,o),
(10,-103,q),
(0,-92,o),
(-20,-80,o),
(-31,-80,q),
(-49,-80,o),
(-85,-119,o),
(-85,-140,q),
(-85,-200,o),
(62,-200,q),
(101,-200,o)
);
}
);
width = 376;
}
);
note = J;
unicode = 74;
}
{
glyphname = K;
kernLeft = B;
layers = (
{
layerId = m01;
shapes = (
{
closed = 1;
nodes = (
(125,-1,o),
(162,2,o),
(186,2,qs),
(205,2,o),
(228,-1,o),
(257,-5,o),
(284,-5,qs),
(297,-5,o),
(313,0,o),
(313,6,qs),
(313,13,o),
(297,21,o),
(280,24,qs),
(255,29,o),
(228,53,o),
(217,89,o),
(216,110,qs),
(214,170,o),
(211,255,o),
(211,302,qs),
(211,307,o),
(211,323,o),
(215,323,qs),
(219,323,o),
(232,312,o),
(238,306,qs),
(450,72,ls),
(456,65,o),
(465,53,o),
(465,47,qs),
(465,34,o),
(437,27,qs),
(410,21,o),
(410,10,qs),
(410,4,o),
(426,-1,o),
(439,-1,qs),
(473,-1,o),
(501,0,o),
(520,0,qs),
(548,0,o),
(588,-2,o),
(630,-5,o),
(659,-5,qs),
(672,-5,o),
(688,0,o),
(688,6,qs),
(688,13,o),
(672,20,o),
(655,24,qs),
(627,30,o),
(594,45,o),
(567,71,o),
(545,95,qs),
(303,353,ls),
(292,365,o),
(298,371,qs),
(333,410,o),
(393,471,o),
(454,528,o),
(490,558,qs),
(525,587,o),
(605,617,o),
(642,624,qs),
(659,627,o),
(675,637,o),
(675,644,qs),
(675,649,o),
(663,655,o),
(653,655,qs),
(647,655,o),
(590,653,o),
(520,651,o),
(491,651,qs),
(437,651,ls),
(424,651,o),
(408,646,o),
(408,640,qs),
(408,633,o),
(422,625,o),
(439,620,qs),
(458,615,o),
(458,597,qs),
(458,590,o),
(451,575,o),
(443,567,qs),
(243,363,ls),
(238,357,o),
(221,345,o),
(216,345,qs),
(212,345,o),
(211,360,o),
(211,364,qs),
(211,551,ls),
(211,580,o),
(228,615,o),
(265,622,qs),
(282,625,o),
(298,635,o),
(298,642,qs),
(298,648,o),
(282,653,o),
(269,653,qs),
(242,653,o),
(214,652,o),
(191,651,o),
(172,651,qs),
(150,651,o),
(120,652,o),
(87,653,o),
(60,653,qs),
(47,653,o),
(31,648,o),
(31,642,qs),
(31,628,o),
(64,622,qs),
(102,615,o),
(131,586,o),
(131,551,qs),
(131,101,ls),
(131,64,o),
(102,31,o),
(64,24,qs),
(31,18,o),
(31,6,qs),
(31,0,o),
(47,-5,o),
(60,-5,qs),
(87,-5,o)
);
}
);
width = 681;
},
{
layerId = "9ED1D18C-5CBC-4B18-9EF9-8B0496956F76";
shapes = (
{
closed = 1;
nodes = (
(125,-1,o),
(163,4,o),
(183,4,q),
(203,4,o),
(244,0,o),
(294,-4,o),
(326,-4,q),
(336,-4,o),
(354,6,o),
(354,13,q),
(354,23,o),
(338,31,o),
(329,34,q),
(303,42,o),
(280,57,o),
(273,80,o),
(272,98,q),
(270,143,o),
(269,232,o),
(269,277,q),
(269,285,o),
(276,293,o),
(280,293,q),
(285,293,o),
(297,285,o),
(304,277,q),
(456,97,l),
(464,87,o),
(473,71,o),
(473,63,q),
(471,42,o),
(429,34,q),
(410,29,o),
(410,12,q),
(410,5,o),
(422,-3,o),
(428,-3,q),
(463,-3,o),
(526,2,o),
(563,2,q),
(595,2,o),
(658,-1,o),
(720,-5,o),
(750,-5,q),
(770,-5,o),
(791,6,o),
(791,13,q),
(791,23,o),
(769,31,o),
(760,34,q),
(734,42,o),
(698,61,o),
(671,85,o),
(659,98,q),
(420,368,l),
(404,386,o),
(420,400,q),
(450,427,o),
(505,483,o),
(560,535,o),
(589,557,q),
(617,578,o),
(690,611,o),
(743,618,q),
(752,620,o),
(773,629,o),
(773,639,q),
(773,647,o),
(756,654,o),
(746,654,q),
(705,654,o),
(638,652,o),
(575,651,o),
(540,651,q),
(468,651,l),
(462,651,o),
(450,643,o),
(450,636,q),
(450,627,o),
(460,616,o),
(469,614,q),
(515,604,o),
(515,582,q),
(515,575,o),
(504,560,o),
(496,551,q),
(305,343,l),
(297,336,o),
(286,328,o),
(281,328,q),
(277,328,o),
(270,335,o),
(270,343,q),
(270,550,l),
(270,580,o),
(294,606,o),
(335,618,q),
(344,621,o),
(354,629,o),
(354,639,q),
(354,647,o),
(346,654,o),
(338,654,q),
(317,654,o),
(259,652,o),
(203,650,o),
(183,650,q),
(163,650,o),
(110,653,o),
(55,655,o),
(33,655,q),
(27,655,o),
(15,647,o),
(15,640,q),
(15,623,o),
(34,618,q),
(74,609,o),
(100,583,o),
(100,551,q),
(100,97,l),
(100,66,o),
(78,42,o),
(40,34,q),
(15,29,o),
(15,12,q),
(15,5,o),
(34,-6,o),
(43,-6,q),
(78,-6,o)
);
}
);
width = 781;
}
);
note = K;
unicode = 75;
}
{
glyphname = L;
kernLeft = B;
kernRight = L;
layers = (
{
layerId = m01;
shapes = (
{
closed = 1;
nodes = (
(102,-2,o),
(165,0,o),
(190,0,qs),
(228,0,o),
(306,-2,o),
(391,-3,o),
(483,-5,o),
(533,-5,qs),
(541,-5,o),
(546,5,o),
(547,12,qs),
(549,33,o),
(556,71,o),
(567,113,o),
(574,139,q),
(574,140,o),
(575,143,o),
(575,144,qs),
(575,150,o),
(569,162,o),
(563,162,qs),
(556,162,o),
(543,138,o),
(541,132,q),
(528,105,o),
(509,78,o),
(489,61,qs),
(479,52,o),
(438,35,o),
(411,35,qs),
(287,35,ls),
(238,35,o),
(210,65,o),
(210,96,qs),
(210,567,ls),
(210,596,o),
(262,615,o),
(299,622,qs),
(316,625,o),
(332,635,o),
(332,642,qs),
(332,648,o),
(316,653,o),
(303,653,qs),
(276,653,o),
(238,651,o),
(202,650,o),
(177,650,qs),
(155,650,o),
(125,651,o),
(92,653,o),
(65,653,qs),
(52,653,o),
(36,648,o),
(36,642,qs),
(36,628,o),
(69,622,qs),
(94,618,o),
(120,607,o),
(130,584,o),
(130,560,qs),
(130,96,ls),
(130,63,o),
(88,32,o),
(49,24,qs),
(46,23,o),
(27,16,o),
(27,7,qs),
(27,2,o),
(42,-5,o),
(55,-5,q),
(55,-5,o)
);
}
);
width = 584;
},
{
layerId = "9ED1D18C-5CBC-4B18-9EF9-8B0496956F76";
shapes = (
{
closed = 1;
nodes = (
(111,-2,o),
(163,0,o),
(183,0,q),
(228,0,o),
(337,-2,o),
(439,-3,o),
(516,-5,o),
(530,-5,q),
(539,-5,o),
(546,7,o),
(547,14,q),
(550,39,o),
(557,78,o),
(569,121,o),
(577,151,q),
(577,156,o),
(581,172,o),
(581,174,q),
(581,181,o),
(575,195,o),
(567,195,q),
(561,195,o),
(550,186,o),
(539,163,q),
(529,141,o),
(502,98,o),
(485,82,q),
(471,69,o),
(437,54,o),
(416,54,q),
(319,54,l),
(294,54,o),
(270,77,o),
(270,105,q),
(270,550,l),
(270,580,o),
(294,606,o),
(335,618,q),
(344,621,o),
(354,629,o),
(354,639,q),
(354,647,o),
(346,654,o),
(338,654,q),
(317,654,o),
(259,652,o),
(203,650,o),
(183,650,q),
(163,650,o),
(110,653,o),
(55,655,o),
(33,655,q),
(27,655,o),
(15,647,o),
(15,640,q),
(15,623,o),
(34,618,q),
(61,612,o),
(89,597,o),
(100,573,o),
(100,551,q),
(100,95,l),
(100,64,o),
(73,42,o),
(40,32,q),
(30,29,o),
(20,17,o),
(20,11,q),
(20,5,o),
(30,-5,o),
(39,-5,q),
(59,-5,o)
);
}
);
width = 586;
}
);
note = L;
unicode = 76;
}
{
glyphname = N;
kernLeft = B;
layers = (
{
layerId = m01;
shapes = (
{
closed = 1;
nodes = (
(689,-8,o),
(689,8,qs),
(689,15,o),
(687,42,o),
(684,81,o),
(684,105,qs),
(684,152,o),
(684,271,o),
(685,391,o),
(685,495,o),
(686,563,o),
(686,568,qs),
(688,593,o),
(712,615,o),
(749,622,qs),
(782,628,o),
(782,642,qs),
(782,648,o),
(766,653,o),
(753,653,qs),
(723,653,o),
(690,651,o),
(662,650,o),
(638,650,qs),
(629,650,o),
(610,650,o),
(591,650,o),
(581,650,qs),
(568,650,o),
(540,645,o),
(540,639,qs),
(540,632,o),
(568,622,o),
(585,619,qs),
(602,616,o),
(642,584,o),
(643,564,qs),
(643,495,o),
(643,363,o),
(642,250,o),
(641,171,o),
(641,157,qs),
(640,136,o),
(631,136,qs),
(625,136,o),
(610,152,o),
(606,156,qs),
(602,161,o),
(557,215,o),
(489,298,o),
(409,395,o),
(329,492,o),
(262,575,o),
(217,630,o),
(213,636,qs),
(208,643,o),
(198,653,o),
(189,653,qs),
(162,653,o),
(128,654,o),
(100,656,o),
(64,657,o),
(35,658,qs),
(30,658,o),
(12,653,o),
(12,644,qs),
(12,635,o),
(39,622,o),
(43,620,q),
(87,606,o),
(142,560,o),
(142,507,qs),
(142,425,o),
(136,270,o),
(128,145,o),
(124,107,qs),
(121,76,o),
(95,33,o),
(66,25,qs),
(49,21,o),
(33,13,o),
(33,6,qs),
(33,0,o),
(49,-5,o),
(62,-5,qs),
(89,-5,o),
(115,-2,o),
(135,0,o),
(153,0,qs),
(172,0,o),
(193,-2,o),
(220,-5,o),
(247,-5,qs),
(260,-5,o),
(276,0,o),
(276,6,qs),
(276,13,o),
(260,21,o),
(243,24,qs),
(206,31,o),
(179,77,o),
(179,104,qs),
(179,166,o),
(181,302,o),
(183,430,o),
(184,479,qs),
(184,485,o),
(188,500,o),
(193,500,qs),
(197,500,o),
(207,493,o),
(214,484,qs),
(219,478,o),
(262,427,o),
(326,352,o),
(400,264,o),
(474,176,o),
(537,101,o),
(578,51,o),
(582,46,qs),
(606,13,o),
(659,-17,o),
(668,-17,qs),
(676,-17,o)
);
}
);
width = 792;
},
{
layerId = "9ED1D18C-5CBC-4B18-9EF9-8B0496956F76";
shapes = (
{
closed = 1;
nodes = (
(712,3,o),
(712,30,q),
(712,39,o),
(706,88,o),
(700,147,o),
(700,170,q),
(700,199,o),
(702,269,o),
(706,346,o),
(710,428,o),
(712,513,o),
(712,556,q),
(712,586,o),
(744,612,o),
(778,619,q),
(803,624,o),
(803,640,q),
(803,647,o),
(790,655,o),
(779,655,q),
(754,655,o),
(721,653,o),
(693,652,o),
(673,652,q),
(656,652,o),
(628,653,o),
(594,654,o),
(567,654,q),
(560,654,o),
(546,646,o),
(546,639,q),
(546,629,o),
(560,620,o),
(569,618,q),
(607,608,o),
(646,582,o),
(647,553,q),
(649,522,o),
(650,441,o),
(650,354,o),
(650,271,o),
(650,236,q),
(650,222,o),
(642,222,q),
(639,222,o),
(631,230,o),
(628,234,q),
(602,263,o),
(549,322,o),
(496,380,o),
(444,439,o),
(391,497,o),
(338,555,o),
(285,614,o),
(259,643,q),
(256,648,o),
(247,653,o),
(239,653,q),
(212,653,o),
(154,655,o),
(99,656,o),
(52,658,o),
(36,658,q),
(25,658,o),
(10,651,o),
(10,642,q),
(10,633,o),
(28,622,o),
(37,620,q),
(74,606,o),
(126,560,o),
(126,508,q),
(126,426,o),
(118,274,o),
(109,152,o),
(105,115,q),
(103,85,o),
(78,43,o),
(55,34,q),
(46,30,o),
(31,21,o),
(31,12,q),
(31,5,o),
(48,-3,o),
(54,-3,q),
(54,-3,o),
(81,-1,o),
(124,1,o),
(147,1,q),
(168,1,o),
(199,0,o),
(235,-2,o),
(262,-2,q),
(270,-2,o),
(286,6,o),
(286,13,q),
(286,23,o),
(268,32,o),
(259,34,q),
(219,44,o),
(176,79,o),
(176,113,q),
(176,162,o),
(173,287,o),
(170,411,o),
(170,456,q),
(170,461,o),
(173,475,o),
(177,475,q),
(179,475,o),
(187,467,o),
(188,465,q),
(216,435,o),
(271,376,o),
(327,317,o),
(382,259,o),
(438,200,o),
(494,141,o),
(549,82,o),
(577,52,q),
(610,12,o),
(669,-19,o),
(683,-19,q),
(697,-19,o)
);
}
);
width = 813;
}
);
note = N;
unicode = 78;
}
{
glyphname = Q;
kernLeft = C;
kernRight = D;
layers = (
{
layerId = m01;
shapes = (
{
closed = 1;
nodes = (
(833,-232,o),
(861,-215,qs),
(872,-208,o),
(879,-198,o),
(879,-189,qs),
(879,-181,o),
(868,-181,qs),
(864,-181,o),
(854,-183,o),
(849,-185,qs),
(842,-188,o),
(811,-192,o),
(793,-192,qs),
(735,-192,o),
(648,-165,o),
(598,-129,qs),
(561,-102,o),
(500,-49,o),
(471,-18,qs),
(467,-14,o),
(467,-9,qs),
(467,-4,o),
(475,-2,qs),
(555,19,o),
(663,121,o),
(718,259,o),
(718,335,qs),
(718,409,o),
(664,530,o),
(572,617,o),
(452,664,o),
(386,664,qs),
(303,664,o),
(175,606,o),
(89,508,o),
(45,383,o),
(45,315,qs),
(45,254,o),
(78,157,o),
(135,83,o),
(209,29,o),
(250,10,qs),
(271,0,o),
(330,-25,o),
(365,-54,qs),
(414,-94,o),
(484,-145,o),
(523,-173,qs),
(571,-207,o),
(672,-248,o),
(744,-248,qs),
(772,-248,o)
);
},
{
closed = 1;
nodes = (
(235,79,o),
(172,173,o),
(141,295,o),
(141,365,qs),
(141,482,o),
(257,622,o),
(370,622,qs),
(433,622,o),
(527,570,o),
(590,477,o),
(622,355,o),
(622,286,qs),
(622,168,o),
(507,26,o),
(392,26,qs),
(329,26,o)
);
}
);
width = 763;
},
{
layerId = "9ED1D18C-5CBC-4B18-9EF9-8B0496956F76";
shapes = (
{
closed = 1;
nodes = (
(845,-234,o),
(865,-221,q),
(876,-214,o),
(885,-201,o),
(885,-192,q),
(885,-169,o),
(854,-169,q),
(848,-169,o),
(837,-170,o),
(831,-171,q),
(825,-172,o),
(810,-173,o),
(800,-173,q),
(762,-173,o),
(678,-137,o),
(629,-97,q),
(592,-66,o),
(547,-26,o),
(525,-5,q),
(520,0,o),
(520,5,q),
(520,13,o),
(531,16,q),
(598,45,o),
(688,143,o),
(734,268,o),
(734,335,q),
(734,409,o),
(678,530,o),
(580,617,o),
(454,664,o),
(384,664,q),
(296,664,o),
(162,606,o),
(71,508,o),
(25,383,o),
(25,315,q),
(25,243,o),
(69,138,o),
(136,66,o),
(212,22,o),
(243,11,q),
(284,-4,o),
(339,-54,o),
(356,-70,q),
(389,-100,o),
(448,-144,o),
(484,-170,q),
(537,-207,o),
(669,-248,o),
(726,-248,q),
(773,-248,o)
);
},
{
closed = 1;
nodes = (
(273,92,o),
(228,187,o),
(206,305,o),
(206,367,q),
(206,481,o),
(285,612,o),
(364,612,q),
(414,612,o),
(485,557,o),
(531,463,o),
(553,345,o),
(553,283,q),
(553,168,o),
(473,36,o),
(393,36,q),
(344,36,o)
);
}
);
width = 759;
}
);
note = Q;
unicode = 81;
}
{
glyphname = R;
kernLeft = B;
kernRight = R;
layers = (
{
layerId = m01;
shapes = (
{
closed = 1;
nodes = (
(688,-16,o),
(718,-1,o),
(718,14,qs),
(718,25,o),
(703,25,qs),
(668,25,o),
(614,35,o),
(588,58,qs),
(541,101,o),
(473,181,o),
(416,265,o),
(385,312,qs),
(382,317,o),
(381,324,o),
(385,325,q),
(413,339,o),
(467,383,o),
(503,448,o),
(503,493,qs),
(503,575,o),
(388,657,o),
(278,657,qs),
(249,657,o),
(212,655,o),
(182,652,o),
(163,652,qs),
(143,652,o),
(119,653,o),
(92,653,o),
(65,653,qs),
(52,653,o),
(36,648,o),
(36,642,qs),
(36,635,o),
(52,624,o),
(69,622,qs),
(98,619,o),
(123,603,o),
(130,564,o),
(130,526,qs),
(130,100,ls),
(130,63,o),
(95,31,o),
(57,24,qs),
(24,18,o),
(24,6,qs),
(24,0,o),
(40,-5,o),
(53,-5,qs),
(80,-5,o),
(119,-1,o),
(158,2,o),
(183,2,qs),
(202,2,o),
(225,-1,o),
(254,-5,o),
(281,-5,qs),
(294,-5,o),
(310,0,o),
(310,6,qs),
(310,13,o),
(294,21,o),
(277,24,qs),
(240,31,o),
(210,78,o),
(210,110,qs),
(210,286,ls),
(210,295,o),
(217,307,o),
(225,306,qs),
(239,305,o),
(282,296,o),
(304,285,qs),
(332,271,o),
(347,246,qs),
(382,190,o),
(431,118,o),
(475,63,o),
(499,33,qs),
(517,12,o),
(559,-12,o),
(609,-21,o),
(637,-21,qs),
(650,-21,o)
);
},
{
closed = 1;
nodes = (
(210,339,o),
(210,364,qs),
(210,424,o),
(211,509,o),
(212,534,qs),
(214,586,o),
(234,627,o),
(266,627,qs),
(329,627,o),
(392,586,o),
(413,518,o),
(413,477,qs),
(413,439,o),
(376,371,o),
(309,329,o),
(263,329,qs),
(238,329,o)
);
}
);
width = 713;
},
{
layerId = "9ED1D18C-5CBC-4B18-9EF9-8B0496956F76";
shapes = (
{
closed = 1;
nodes = (
(744,-7,o),
(775,22,o),
(775,46,q),
(775,65,o),
(760,65,q),
(725,65,o),
(650,77,o),
(615,110,q),
(586,138,o),
(528,207,o),
(471,289,o),
(441,333,q),
(439,336,o),
(438,344,o),
(442,345,q),
(473,354,o),
(533,391,o),
(573,452,o),
(573,497,q),
(573,578,o),
(444,657,o),
(326,657,q),
(289,657,o),
(243,652,o),
(206,647,o),
(182,647,q),
(156,647,o),
(116,651,o),
(72,655,o),
(39,655,q),
(30,655,o),
(19,646,o),
(19,639,q),
(19,633,o),
(28,621,o),
(40,618,q),
(64,613,o),
(90,598,o),
(100,573,o),
(100,551,q),
(100,97,l),
(100,66,o),
(72,42,o),
(34,34,q),
(15,29,o),
(15,12,q),
(15,5,o),
(27,-3,o),
(33,-3,q),
(55,-3,o),
(110,0,o),
(163,2,o),
(183,2,q),
(203,2,o),
(266,0,o),
(330,-2,o),
(351,-2,q),
(359,-2,o),
(367,6,o),
(367,13,q),
(367,23,o),
(357,32,o),
(348,34,q),
(305,43,o),
(270,67,o),
(270,98,q),
(270,292,l),
(270,301,o),
(275,312,o),
(280,312,q),
(285,312,o),
(298,309,o),
(304,305,q),
(318,297,o),
(328,275,q),
(347,234,o),
(385,167,o),
(425,108,o),
(446,79,q),
(466,52,o),
(516,7,o),
(591,-21,o),
(647,-21,q),
(686,-21,o)
);
},
{
closed = 1;
nodes = (
(270,364,o),
(270,384,q),
(270,429,o),
(270,496,o),
(270,518,q),
(270,576,o),
(289,610,o),
(309,610,q),
(341,610,o),
(386,581,o),
(410,521,o),
(410,473,q),
(410,435,o),
(387,378,o),
(341,346,o),
(305,346,q),
(289,346,o)
);
}
);
width = 770;
}
);
note = R;
unicode = 82;
}
{
glyphname = S;
kernLeft = S;
kernRight = S;
layers = (
{
layerId = m01;
shapes = (
{
closed = 1;
nodes = (
(368,32,o),
(422,121,o),
(422,180,qs),
(422,230,o),
(379,299,o),
(312,349,o),
(277,370,qs),
(240,393,o),
(176,437,o),
(137,486,o),
(137,516,qs),
(137,558,o),
(170,608,o),
(222,630,o),
(252,630,qs),
(295,630,o),
(351,574,o),
(372,521,qs),
(374,515,o),
(391,507,o),
(400,507,qs),
(415,507,o),
(415,518,qs),
(415,542,o),
(401,596,o),
(395,617,qs),
(393,625,o),
(382,639,o),
(374,642,qs),
(358,649,o),
(305,664,o),
(269,664,qs),
(199,664,o),
(106,615,o),
(60,533,o),
(60,482,qs),
(60,434,o),
(110,367,o),
(186,316,o),
(225,291,qs),
(261,269,o),
(311,231,o),
(338,180,o),
(338,139,qs),
(338,102,o),
(307,47,o),
(253,17,o),
(218,17,qs),
(175,17,o),
(96,83,o),
(76,160,qs),
(75,166,o),
(65,171,o),
(60,171,qs),
(52,171,o),
(40,164,o),
(40,157,qs),
(42,136,o),
(45,72,o),
(50,52,qs),
(52,46,o),
(59,36,o),
(63,32,qs),
(91,9,o),
(162,-16,o),
(204,-16,qs),
(270,-16,o)
);
}
);
width = 465;
},
{
layerId = "9ED1D18C-5CBC-4B18-9EF9-8B0496956F76";
shapes = (
{
closed = 1;
nodes = (
(404,28,o),
(465,118,o),
(465,189,q),
(465,233,o),
(439,302,o),
(375,366,o),
(317,400,q),
(276,425,o),
(215,466,o),
(183,506,o),
(183,528,q),
(183,556,o),
(202,593,o),
(241,613,o),
(272,613,q),
(321,613,o),
(389,550,o),
(405,488,q),
(407,481,o),
(422,472,o),
(430,472,q),
(449,472,o),
(449,485,q),
(449,524,o),
(444,585,o),
(439,606,q),
(434,623,o),
(424,634,o),
(411,639,q),
(389,648,o),
(316,664,o),
(278,664,q),
(213,664,o),
(104,616,o),
(39,529,o),
(39,469,q),
(39,410,o),
(89,332,o),
(168,278,o),
(210,255,q),
(250,234,o),
(300,198,o),
(324,156,o),
(324,126,q),
(324,106,o),
(305,63,o),
(266,34,o),
(235,34,q),
(174,34,o),
(85,132,o),
(62,206,q),
(58,213,o),
(51,219,o),
(40,219,q),
(32,219,o),
(21,213,o),
(21,206,q),
(19,162,o),
(27,81,o),
(38,52,q),
(41,45,o),
(54,32,o),
(61,27,q),
(97,5,o),
(179,-14,o),
(222,-14,q),
(295,-14,o)
);
}
);
width = 500;
}
);
note = S;
unicode = 83;
}
{
glyphname = T;
kernLeft = T;
kernRight = T;
layers = (
{
layerId = m01;
shapes = (
{
closed = 1;
nodes = (
(280,-2,o),
(317,0,o),
(342,0,qs),
(365,0,o),
(397,-2,o),
(432,-5,o),
(459,-5,qs),
(472,-5,o),
(488,0,o),
(488,6,qs),
(488,13,o),
(472,21,o),
(455,24,qs),
(418,31,o),
(376,66,o),
(376,102,qs),
(376,495,ls),
(376,550,o),
(382,598,o),
(404,610,o),
(426,610,qs),
(527,610,ls),
(575,610,o),
(615,585,o),
(619,564,qs),
(623,545,o),
(631,523,o),
(638,523,qs),
(646,523,o),
(654,546,o),
(654,555,qs),
(654,567,ls),
(654,580,o),
(656,592,o),
(661,608,o),
(664,626,qs),
(665,631,o),
(668,649,o),
(668,654,qs),
(668,662,o),
(664,677,o),
(661,677,qs),
(649,677,o),
(634,663,o),
(622,657,qs),
(606,650,o),
(562,642,o),
(527,642,qs),
(175,642,ls),
(154,642,o),
(111,652,o),
(105,662,qs),
(101,670,o),
(84,694,o),
(80,694,qs),
(76,694,o),
(65,688,o),
(63,671,qs),
(59,640,o),
(46,595,o),
(32,566,qs),
(27,556,o),
(27,546,qs),
(27,541,o),
(30,533,o),
(34,533,qs),
(42,533,o),
(58,547,o),
(72,566,o),
(75,571,qs),
(86,591,o),
(133,610,o),
(157,610,qs),
(204,610,ls),
(230,610,o),
(261,609,o),
(275,606,qs),
(283,605,o),
(292,585,o),
(296,536,o),
(296,490,qs),
(296,102,ls),
(296,66,o),
(256,31,o),
(218,24,qs),
(201,21,o),
(185,13,o),
(185,6,qs),
(185,0,o),
(201,-5,o),
(214,-5,qs),
(241,-5,o)
);
}
);
width = 670;
},
{
layerId = "9ED1D18C-5CBC-4B18-9EF9-8B0496956F76";
shapes = (
{
closed = 1;
nodes = (
(283,0,o),
(339,2,o),
(359,2,q),
(379,2,o),
(438,0,o),
(498,-2,o),
(519,-2,q),
(527,-2,o),
(538,6,o),
(538,13,q),
(538,23,o),
(525,31,o),
(516,34,q),
(477,45,o),
(446,70,o),
(446,98,q),
(446,503,l),
(446,547,o),
(456,592,o),
(477,608,o),
(493,608,q),
(534,608,l),
(577,608,o),
(621,572,o),
(634,532,q),
(641,511,o),
(654,493,o),
(664,493,q),
(674,493,o),
(681,512,o),
(681,530,q),
(681,551,l),
(681,569,o),
(688,605,o),
(699,644,o),
(704,664,q),
(705,669,o),
(706,679,o),
(706,683,q),
(706,691,o),
(701,699,o),
(694,699,q),
(681,699,o),
(661,675,o),
(644,665,q),
(637,661,o),
(604,651,o),
(581,651,q),
(199,650,l),
(186,650,o),
(138,658,o),
(127,666,q),
(117,674,o),
(101,700,o),
(93,700,q),
(83,700,o),
(69,688,o),
(67,674,q),
(64,637,o),
(45,581,o),
(25,542,q),
(18,528,o),
(18,515,q),
(18,508,o),
(25,497,o),
(34,497,q),
(45,497,o),
(67,517,o),
(87,543,o),
(92,550,q),
(110,574,o),
(170,608,o),
(203,608,q),
(220,608,l),
(225,608,o),
(254,606,o),
(261,601,q),
(266,599,o),
(272,588,o),
(276,553,o),
(276,515,q),
(276,97,l),
(276,66,o),
(243,42,o),
(205,34,q),
(196,32,o),
(183,21,o),
(183,12,q),
(183,5,o),
(198,-3,o),
(204,-3,q),
(226,-3,o)
);
}
);
width = 701;
}
);
note = T;
unicode = 84;
}
{
glyphname = U;
layers = (
{
layerId = m01;
shapes = (
{
closed = 1;
nodes = (
(563,53,o),
(633,173,o),
(635,250,qs),
(637,319,o),
(640,461,o),
(645,547,qs),
(647,577,o),
(669,617,o),
(695,622,qs),
(728,629,o),
(728,642,qs),
(728,648,o),
(712,653,o),
(699,653,qs),
(688,653,o),
(662,651,o),
(634,650,o),
(618,650,qs),
(596,650,o),
(566,651,o),
(543,651,qs),
(530,651,o),
(514,646,o),
(514,640,qs),
(514,633,o),
(537,623,o),
(547,620,qs),
(561,616,o),
(579,583,o),
(588,537,o),
(588,511,qs),
(589,473,o),
(591,390,o),
(592,318,o),
(592,296,qs),
(592,179,o),
(496,36,o),
(393,36,qs),
(332,36,o),
(237,85,o),
(183,188,o),
(183,268,qs),
(183,549,ls),
(183,579,o),
(213,617,o),
(225,621,qs),
(242,626,o),
(258,634,o),
(258,641,qs),
(258,647,o),
(242,652,o),
(229,652,qs),
(213,652,o),
(172,650,o),
(149,650,qs),
(121,650,o),
(76,653,o),
(53,653,qs),
(40,653,o),
(24,648,o),
(24,642,qs),
(24,629,o),
(57,620,qs),
(74,616,o),
(103,583,o),
(103,547,qs),
(103,240,ls),
(103,164,o),
(163,49,o),
(283,-14,o),
(372,-14,qs),
(446,-14,o)
);
}
);
width = 738;
},
{
layerId = "9ED1D18C-5CBC-4B18-9EF9-8B0496956F76";
shapes = (
{
closed = 1;
nodes = (
(571,57,o),
(643,183,o),
(643,265,q),
(643,330,o),
(645,454,o),
(648,527,q),
(650,565,o),
(677,608,o),
(712,618,q),
(738,626,o),
(738,640,q),
(738,649,o),
(724,655,o),
(713,655,q),
(692,655,o),
(665,653,o),
(640,651,o),
(621,651,q),
(597,651,o),
(559,654,o),
(520,654,q),
(506,654,o),
(490,647,o),
(490,639,q),
(490,629,o),
(520,620,o),
(531,614,q),
(551,604,o),
(574,577,o),
(586,526,o),
(587,477,q),
(588,448,o),
(587,382,o),
(586,318,o),
(586,291,q),
(586,182,o),
(498,81,o),
(410,81,q),
(369,81,o),
(300,121,o),
(258,206,o),
(258,272,q),
(258,530,l),
(258,564,o),
(279,601,o),
(295,608,q),
(311,616,o),
(344,627,o),
(344,639,q),
(344,647,o),
(330,654,o),
(318,654,q),
(287,654,o),
(200,650,o),
(171,650,q),
(141,650,o),
(67,655,o),
(34,655,q),
(23,655,o),
(8,647,o),
(8,640,q),
(8,625,o),
(35,618,q),
(62,611,o),
(87,562,o),
(87,536,q),
(87,256,l),
(87,175,o),
(151,54,o),
(278,-14,o),
(373,-14,q),
(448,-14,o)
);
}
);
width = 746;
}
);
note = U;
unicode = 85;
}
{
glyphname = V;
kernLeft = V;
kernRight = V;
layers = (
{
layerId = m01;
shapes = (
{
closed = 1;
nodes = (
(327,-8,o),
(328,-5,qs),
(334,7,o),
(346,43,o),
(357,74,o),
(359,79,qs),
(547,535,ls),
(558,562,o),
(608,614,o),
(645,622,qs),
(662,626,o),
(678,635,o),
(678,642,qs),
(678,648,o),
(662,653,o),
(649,653,qs),
(630,653,o),
(564,650,o),
(535,650,qs),
(516,650,o),
(481,651,o),
(449,651,o),
(436,651,qs),
(423,651,o),
(407,646,o),
(407,640,qs),
(407,633,o),
(425,622,o),
(440,620,qs),
(472,616,o),
(507,567,o),
(487,514,qs),
(350,154,ls),
(347,147,o),
(341,149,o),
(339,153,qs),
(195,533,ls),
(193,540,o),
(184,565,o),
(184,582,qs),
(184,599,o),
(221,618,o),
(249,621,qs),
(266,623,o),
(282,634,o),
(282,641,qs),
(282,647,o),
(266,652,o),
(253,652,qs),
(243,652,o),
(210,651,o),
(171,650,o),
(151,650,qs),
(128,650,o),
(84,651,o),
(45,653,o),
(29,653,qs),
(16,653,o),
(0,648,o),
(0,642,qs),
(0,635,o),
(17,625,o),
(33,620,qs),
(59,613,o),
(93,575,o),
(103,547,qs),
(286,56,ls),
(291,43,o),
(303,6,o),
(307,-5,qs),
(310,-12,o),
(318,-12,qs),
(321,-12,o)
);
}
);
width = 672;
},
{
layerId = "9ED1D18C-5CBC-4B18-9EF9-8B0496956F76";
shapes = (
{
closed = 1;
nodes = (
(377,-10,o),
(381,0,q),
(392,23,o),
(414,71,o),
(442,133,o),
(461,177,q),
(605,520,l),
(625,568,o),
(662,612,o),
(692,620,q),
(701,623,o),
(718,630,o),
(718,640,q),
(718,650,o),
(699,657,o),
(688,657,q),
(657,657,o),
(608,651,o),
(579,651,q),
(559,651,o),
(533,652,o),
(506,654,o),
(484,654,q),
(474,654,o),
(455,647,o),
(455,640,q),
(455,631,o),
(475,620,o),
(485,618,q),
(532,611,o),
(553,544,o),
(533,493,q),
(421,198,l),
(418,188,o),
(413,190,o),
(411,197,q),
(285,555,l),
(284,561,o),
(281,574,o),
(281,578,q),
(281,595,o),
(307,611,o),
(337,618,q),
(346,620,o),
(365,631,o),
(365,640,q),
(365,647,o),
(346,655,o),
(338,655,q),
(316,655,o),
(253,653,o),
(191,650,o),
(171,650,q),
(152,650,o),
(96,652,o),
(40,654,o),
(19,654,q),
(12,654,o),
(0,647,o),
(0,639,q),
(0,629,o),
(13,621,o),
(22,618,q),
(52,610,o),
(85,574,o),
(95,551,q),
(294,92,l),
(302,69,o),
(325,16,o),
(332,0,q),
(340,-18,o),
(355,-18,q),
(366,-18,o)
);
}
);
width = 714;
}
);
note = V;
unicode = 86;
}
{
glyphname = W;
kernLeft = V;
kernRight = V;
layers = (
{
layerId = m01;
shapes = (
{
closed = 1;
nodes = (
(353,5,o),
(357,15,qs),
(378,74,o),
(412,165,o),
(447,253,o),
(471,310,qs),
(475,320,o),
(479,323,o),
(482,316,qs),
(506,258,o),
(541,162,o),
(579,67,o),
(605,7,qs),
(608,0,o),
(618,-12,o),
(622,-12,qs),
(627,-12,o),
(637,7,o),
(638,11,qs),
(815,534,ls),
(821,549,o),
(840,586,o),
(873,617,o),
(897,622,qs),
(914,626,o),
(930,635,o),
(930,642,qs),
(930,648,o),
(914,653,o),
(901,653,qs),
(882,653,o),
(836,650,o),
(811,650,qs),
(792,650,o),
(759,651,o),
(739,651,qs),
(726,651,o),
(710,646,o),
(710,640,qs),
(710,633,o),
(733,623,o),
(743,620,qs),
(760,616,o),
(773,592,o),
(773,577,qs),
(773,569,o),
(770,550,o),
(767,541,qs),
(733,426,o),
(670,220,o),
(645,154,qs),
(642,147,o),
(636,143,o),
(634,148,qs),
(531,413,ls),
(529,418,o),
(534,444,o),
(537,451,qs),
(545,473,o),
(566,523,o),
(585,565,o),
(590,574,qs),
(603,595,o),
(626,615,o),
(658,622,qs),
(675,626,o),
(691,635,o),
(691,642,qs),
(691,648,o),
(675,653,o),
(662,653,qs),
(644,653,o),
(620,650,o),
(603,650,qs),
(589,650,o),
(573,652,o),
(551,652,qs),
(538,652,o),
(522,647,o),
(522,641,qs),
(522,633,o),
(541,622,o),
(559,610,o),
(559,598,qs),
(559,594,o),
(558,591,qs),
(556,583,o),
(543,542,o),
(526,496,o),
(518,478,qs),
(512,465,o),
(505,466,o),
(500,478,qs),
(497,485,o),
(483,518,o),
(468,556,o),
(457,587,o),
(455,591,qs),
(454,593,o),
(453,597,o),
(453,599,qs),
(453,611,o),
(474,623,o),
(494,633,o),
(494,641,qs),
(494,647,o),
(478,652,o),
(465,652,qs),
(450,652,o),
(411,650,o),
(388,650,qs),
(370,650,o),
(339,651,o),
(310,653,o),
(294,653,qs),
(281,653,o),
(265,648,o),
(265,642,qs),
(265,635,o),
(282,625,o),
(298,620,qs),
(324,613,o),
(380,570,o),
(393,538,qs),
(450,396,ls),
(454,386,o),
(458,373,o),
(458,367,qs),
(458,363,o),
(455,352,o),
(452,344,qs),
(374,151,ls),
(371,143,o),
(364,141,o),
(359,152,qs),
(334,209,o),
(293,302,o),
(256,391,o),
(218,487,o),
(195,545,q),
(195,545,o),
(187,572,o),
(187,588,qs),
(187,599,o),
(195,618,o),
(207,621,qs),
(224,626,o),
(240,634,o),
(240,641,qs),
(240,647,o),
(224,652,o),
(211,652,qs),
(196,652,o),
(146,650,o),
(118,650,qs),
(93,650,o),
(52,653,o),
(29,653,qs),
(16,653,o),
(0,648,o),
(0,642,qs),
(0,635,o),
(17,625,o),
(33,620,qs),
(59,613,o),
(93,580,o),
(105,554,q),
(321,12,ls),
(325,2,o),
(333,-16,o),
(335,-16,qs),
(341,-16,o)
);
}
);
width = 916;
},
{
layerId = "9ED1D18C-5CBC-4B18-9EF9-8B0496956F76";
shapes = (
{
closed = 1;
nodes = (
(396,-5,o),
(400,5,q),
(421,41,o),
(465,120,o),
(508,198,o),
(527,234,q),
(530,240,o),
(539,241,o),
(542,234,q),
(571,172,o),
(614,81,o),
(645,22,o),
(653,4,q),
(658,-6,o),
(669,-15,o),
(678,-15,q),
(686,-15,o),
(695,-7,o),
(699,3,q),
(944,554,l),
(951,570,o),
(969,595,o),
(996,615,o),
(1016,620,q),
(1025,623,o),
(1047,630,o),
(1047,640,q),
(1047,650,o),
(1026,657,o),
(1012,657,q),
(982,657,o),
(951,652,o),
(936,651,q),
(923,650,o),
(899,654,o),
(867,654,q),
(857,654,o),
(838,647,o),
(838,640,q),
(838,631,o),
(858,620,o),
(868,618,q),
(881,615,o),
(895,601,o),
(896,591,q),
(897,586,o),
(894,567,o),
(883,539,q),
(855,469,o),
(778,289,o),
(738,200,q),
(736,195,o),
(729,189,o),
(725,199,q),
(654,357,l),
(648,372,o),
(645,397,o),
(651,410,q),
(662,432,o),
(686,482,o),
(711,531,o),
(722,552,q),
(734,575,o),
(763,610,o),
(793,618,q),
(802,621,o),
(819,628,o),
(819,638,q),
(819,648,o),
(800,655,o),
(789,655,q),
(758,655,o),
(728,651,o),
(713,650,q),
(699,650,o),
(681,653,o),
(653,653,q),
(637,653,o),
(632,645,o),
(632,638,q),
(632,627,o),
(657,616,o),
(683,603,o),
(683,587,q),
(683,575,o),
(678,565,q),
(673,554,o),
(656,509,o),
(638,464,o),
(632,451,q),
(628,443,o),
(621,436,o),
(614,451,q),
(609,462,o),
(596,496,o),
(582,533,o),
(570,566,o),
(566,576,q),
(561,590,o),
(568,614,o),
(589,618,q),
(601,621,o),
(617,626,o),
(624,634,o),
(624,640,q),
(624,647,o),
(606,654,o),
(590,654,q),
(557,654,o),
(491,650,o),
(461,650,q),
(442,650,o),
(386,652,o),
(330,654,o),
(309,654,q),
(302,654,o),
(290,647,o),
(290,639,q),
(290,629,o),
(303,621,o),
(312,618,q),
(342,610,o),
(379,577,o),
(388,554,q),
(501,318,l),
(503,313,o),
(506,305,o),
(506,301,q),
(506,297,o),
(502,288,o),
(499,283,q),
(449,198,l),
(443,186,o),
(437,188,o),
(432,199,q),
(414,245,o),
(375,336,o),
(336,427,o),
(296,517,o),
(277,562,q),
(276,566,o),
(272,584,o),
(272,588,q),
(272,599,o),
(278,614,o),
(295,618,q),
(310,621,o),
(327,630,o),
(327,640,q),
(327,647,o),
(309,655,o),
(296,655,q),
(263,655,o),
(198,650,o),
(168,650,q),
(139,650,o),
(57,654,o),
(25,654,q),
(18,654,o),
(0,647,o),
(0,639,q),
(0,629,o),
(19,621,o),
(28,618,q),
(58,610,o),
(85,577,o),
(95,554,q),
(355,8,l),
(360,-2,o),
(368,-17,o),
(378,-17,q),
(387,-17,o)
);
}
);
width = 1043;
}
);
note = W;
unicode = 87;
}
{
glyphname = X;
kernLeft = X;
kernRight = X;
layers = (
{
layerId = m01;
shapes = (
{
closed = 1;
nodes = (
(116,1,o),
(150,1,qs),
(177,1,o),
(226,-1,o),
(239,-1,qs),
(252,-1,o),
(268,4,o),
(268,10,qs),
(268,17,o),
(252,26,o),
(235,30,qs),
(215,35,o),
(190,56,o),
(190,70,qs),
(190,75,o),
(195,87,o),
(199,93,qs),
(334,267,ls),
(339,274,o),
(349,273,o),
(356,262,qs),
(460,111,ls),
(467,102,o),
(472,86,o),
(472,78,qs),
(472,59,o),
(443,36,o),
(428,31,qs),
(418,28,o),
(395,18,o),
(395,11,qs),
(395,5,o),
(411,0,o),
(424,0,qs),
(442,0,o),
(496,1,o),
(527,1,qs),
(551,1,o),
(606,-2,o),
(656,-5,o),
(670,-5,qs),
(683,-5,o),
(699,0,o),
(699,6,qs),
(699,13,o),
(683,22,o),
(666,26,qs),
(638,34,o),
(582,78,o),
(559,111,qs),
(404,334,l),
(399,345,o),
(405,358,o),
(418,374,qs),
(533,510,ls),
(566,549,o),
(635,618,o),
(663,625,qs),
(680,630,o),
(696,638,o),
(696,645,qs),
(696,651,o),
(680,656,o),
(667,656,qs),
(647,656,o),
(582,650,o),
(553,650,qs),
(538,650,o),
(510,651,o),
(484,651,o),
(472,651,qs),
(459,651,o),
(443,646,o),
(443,640,qs),
(443,633,o),
(466,622,o),
(476,620,qs),
(500,616,o),
(521,600,o),
(521,589,qs),
(521,579,o),
(507,553,o),
(495,538,qs),
(388,397,ls),
(380,386,o),
(369,384,o),
(358,400,qs),
(267,528,ls),
(234,574,o),
(234,590,qs),
(234,602,o),
(260,614,o),
(285,621,qs),
(302,626,o),
(318,634,o),
(318,641,qs),
(318,647,o),
(302,652,o),
(289,652,qs),
(276,652,o),
(220,650,o),
(190,650,qs),
(153,650,o),
(72,655,o),
(47,655,qs),
(34,655,o),
(18,650,o),
(18,644,qs),
(18,637,o),
(35,627,o),
(51,622,qs),
(68,617,o),
(102,601,o),
(142,564,o),
(167,529,qs),
(301,341,ls),
(315,321,o),
(307,294,o),
(296,280,qs),
(171,124,ls),
(150,98,o),
(96,58,o),
(45,33,o),
(28,28,qs),
(12,23,o),
(-5,13,o),
(-5,6,qs),
(-5,0,o),
(11,-5,o),
(24,-5,qs),
(49,-5,o)
);
}
);
width = 707;
},
{
layerId = "9ED1D18C-5CBC-4B18-9EF9-8B0496956F76";
shapes = (
{
closed = 1;
nodes = (
(103,-1,o),
(132,-1,q),
(148,-1,o),
(204,-4,o),
(237,-4,q),
(248,-4,o),
(266,3,o),
(266,10,q),
(266,19,o),
(246,31,o),
(236,32,q),
(215,35,o),
(192,54,o),
(190,67,q),
(189,74,o),
(194,103,o),
(209,125,q),
(294,251,l),
(309,274,o),
(330,268,o),
(343,248,q),
(453,94,l),
(457,88,o),
(461,78,o),
(461,73,q),
(461,56,o),
(421,40,o),
(401,35,q),
(392,33,o),
(373,22,o),
(373,13,q),
(373,6,o),
(392,-2,o),
(400,-2,q),
(432,-2,o),
(492,1,o),
(522,1,q),
(556,2,o),
(618,-2,o),
(688,-5,o),
(730,-5,q),
(741,-5,o),
(755,3,o),
(755,10,q),
(755,20,o),
(728,34,o),
(719,36,q),
(702,41,o),
(668,72,o),
(654,92,q),
(484,332,l),
(471,350,o),
(472,374,o),
(483,387,q),
(625,564,l),
(640,583,o),
(686,613,o),
(707,620,q),
(716,623,o),
(736,630,o),
(736,640,q),
(736,650,o),
(714,657,o),
(703,657,q),
(672,657,o),
(633,650,o),
(604,650,q),
(584,650,o),
(559,652,o),
(533,654,o),
(511,654,q),
(498,654,o),
(479,647,o),
(479,640,q),
(479,631,o),
(499,621,o),
(509,618,q),
(533,611,o),
(553,593,o),
(553,579,q),
(553,569,o),
(543,542,o),
(529,523,q),
(452,415,l),
(442,402,o),
(426,405,o),
(417,417,q),
(321,548,l),
(308,565,o),
(308,577,q),
(308,594,o),
(338,611,o),
(369,618,q),
(378,620,o),
(397,631,o),
(397,640,q),
(397,647,o),
(378,655,o),
(370,655,q),
(333,655,o),
(269,648,o),
(236,648,q),
(187,647,o),
(87,654,o),
(37,654,q),
(30,654,o),
(18,647,o),
(18,639,q),
(18,629,o),
(31,621,o),
(40,618,q),
(60,613,o),
(87,593,o),
(107,568,o),
(116,554,q),
(260,352,l),
(274,333,o),
(274,298,o),
(261,281,q),
(140,124,l),
(117,94,o),
(78,57,o),
(41,36,o),
(21,30,q),
(12,27,o),
(-5,20,o),
(-5,10,q),
(-5,0,o),
(14,-7,o),
(25,-7,q),
(57,-7,o)
);
}
);
width = 760;
}
);
note = X;
unicode = 88;
}
{
glyphname = Z;
layers = (
{
layerId = m01;
shapes = (
{
closed = 1;
nodes = (
(548,6,o),
(551,12,qs),
(555,21,o),
(568,65,o),
(580,115,o),
(588,154,o),
(588,158,qs),
(588,171,o),
(579,171,qs),
(572,171,o),
(559,156,o),
(557,150,qs),
(519,48,o),
(433,41,qs),
(398,39,o),
(326,36,o),
(292,36,qs),
(259,36,o),
(201,39,o),
(179,41,qs),
(174,42,o),
(168,52,o),
(168,58,qs),
(168,66,o),
(171,70,qs),
(218,142,o),
(297,259,o),
(373,366,o),
(457,480,o),
(509,550,qs),
(570,631,ls),
(573,635,o),
(564,649,o),
(559,649,qs),
(531,648,o),
(475,647,o),
(418,646,o),
(359,646,o),
(328,646,qs),
(294,646,o),
(227,646,o),
(202,646,qs),
(177,646,o),
(126,658,o),
(116,662,qs),
(108,666,o),
(89,676,o),
(85,676,qs),
(81,676,o),
(71,670,o),
(70,659,qs),
(69,638,o),
(58,591,o),
(47,552,o),
(43,541,qs),
(41,535,o),
(36,520,o),
(36,514,qs),
(36,510,o),
(41,503,o),
(45,503,qs),
(56,503,o),
(69,526,o),
(73,535,qs),
(87,572,o),
(147,607,o),
(171,609,qs),
(190,611,o),
(244,611,o),
(273,611,qs),
(313,611,o),
(392,610,o),
(419,609,qs),
(430,608,o),
(438,604,o),
(438,601,qs),
(438,599,o),
(436,595,o),
(434,593,q),
(386,521,o),
(303,402,o),
(223,291,o),
(137,174,o),
(86,104,qs),
(75,89,o),
(47,49,o),
(28,16,o),
(28,11,q),
(28,11,o),
(31,-3,o),
(35,-3,qs),
(112,-3,ls),
(141,-3,o),
(201,-2,o),
(231,-2,qs),
(264,-2,o),
(335,-3,o),
(410,-4,o),
(490,-5,o),
(533,-5,qs),
(541,-5,o)
);
}
);
width = 603;
},
{
layerId = "9ED1D18C-5CBC-4B18-9EF9-8B0496956F76";
shapes = (
{
closed = 1;
nodes = (
(544,6,o),
(547,16,q),
(552,34,o),
(563,73,o),
(573,112,o),
(580,147,o),
(580,160,q),
(580,175,o),
(565,175,q),
(559,175,o),
(550,171,o),
(546,163,q),
(516,91,o),
(474,69,q),
(451,57,o),
(389,50,o),
(346,50,q),
(334,50,o),
(290,51,o),
(279,52,q),
(266,53,o),
(254,58,o),
(254,64,q),
(254,74,o),
(266,93,q),
(295,138,o),
(357,244,o),
(421,356,o),
(484,467,o),
(514,516,q),
(584,630,l),
(586,634,o),
(574,655,o),
(566,655,q),
(550,655,o),
(487,653,o),
(416,652,o),
(355,650,o),
(340,650,q),
(311,650,o),
(253,650,o),
(224,650,q),
(196,650,o),
(158,651,o),
(138,658,q),
(123,664,o),
(92,688,o),
(82,688,q),
(70,688,o),
(61,675,o),
(59,659,q),
(57,631,o),
(52,591,o),
(42,553,o),
(29,526,q),
(26,520,o),
(22,505,o),
(22,499,q),
(22,492,o),
(29,481,o),
(38,481,q),
(54,481,o),
(75,504,o),
(82,516,q),
(106,556,o),
(173,603,o),
(217,603,q),
(234,603,o),
(264,603,o),
(281,603,q),
(297,603,o),
(328,603,o),
(344,603,q),
(353,603,o),
(359,597,o),
(359,592,q),
(359,588,o),
(355,579,o),
(353,574,q),
(320,519,o),
(250,406,o),
(180,292,o),
(111,178,o),
(79,122,q),
(70,107,o),
(51,75,o),
(31,43,o),
(21,27,q),
(18,23,o),
(26,-5,o),
(36,-5,q),
(113,-3,l),
(151,-2,o),
(227,-1,o),
(264,0,q),
(306,0,o),
(393,-2,o),
(466,-3,o),
(514,-4,o),
(518,-4,q),
(529,-4,o)
);
}
);
width = 595;
}
);
note = Z;
unicode = 90;
}
{
glyphname = bracketleft;
layers = (
{
layerId = m01;
shapes = (
{
closed = 1;
nodes = (
(294,-200,o),
(311,-194,o),
(311,-185,qs),
(311,-176,o),
(295,-168,o),
(285,-167,qs),
(206,-154,ls),
(197,-152,o),
(183,-134,o),
(183,-121,qs),
(183,642,ls),
(183,650,o),
(199,666,o),
(206,667,qs),
(285,673,ls),
(295,674,o),
(311,681,o),
(311,688,qs),
(311,696,o),
(300,701,o),
(293,701,qs),
(148,702,ls),
(132,702,o),
(116,699,o),
(110,685,o),
(110,668,qs),
(110,-175,ls),
(110,-187,o),
(116,-197,o),
(130,-200,o),
(141,-200,qs),
(285,-200,ls)
);
}
);
width = 331;
},
{
layerId = "9ED1D18C-5CBC-4B18-9EF9-8B0496956F76";
shapes = (
{
closed = 1;
nodes = (
(336,-200,o),
(348,-191,o),
(348,-179,q),
(348,-170,o),
(323,-160,o),
(309,-158,q),
(233,-146,l),
(224,-144,o),
(216,-132,o),
(216,-125,q),
(217,626,l),
(217,634,o),
(225,648,o),
(235,649,q),
(316,661,l),
(324,663,o),
(352,672,o),
(352,683,q),
(352,695,o),
(336,700,o),
(328,700,q),
(152,701,l),
(135,701,o),
(116,696,o),
(110,673,o),
(110,645,q),
(110,-145,l),
(110,-173,o),
(116,-196,o),
(135,-201,o),
(152,-201,q),
(328,-200,l)
);
}
);
width = 362;
}
);
note = bracketleft;
unicode = 91;
}
{
glyphname = backslash;
layers = (
{
layerId = m01;
shapes = (
{
closed = 1;
nodes = (
(381,-53,o),
(378,-47,qs),
(81,648,ls),
(76,659,o),
(55,665,o),
(42,665,qs),
(32,665,o),
(26,655,o),
(29,648,qs),
(326,-47,ls),
(331,-57,o),
(351,-62,o),
(362,-62,qs),
(372,-62,o)
);
}
);
width = 399;
},
{
layerId = "9ED1D18C-5CBC-4B18-9EF9-8B0496956F76";
shapes = (
{
closed = 1;
nodes = (
(395,-49,o),
(392,-42,q),
(80,645,l),
(73,659,o),
(50,667,o),
(33,667,q),
(20,667,o),
(8,652,o),
(11,645,q),
(324,-42,l),
(330,-55,o),
(357,-62,o),
(371,-62,q),
(382,-62,o)
);
}
);
width = 407;
}
);
note = backslash;
unicode = 92;
}
{
glyphname = bracketright;
kernLeft = parenright;
layers = (
{
layerId = m01;
shapes = (
{
closed = 1;
nodes = (
(215,-197,o),
(221,-187,o),
(221,-175,qs),
(221,668,ls),
(221,685,o),
(215,699,o),
(199,702,o),
(183,702,qs),
(38,701,ls),
(31,701,o),
(20,696,o),
(20,688,qs),
(20,681,o),
(36,674,o),
(46,673,qs),
(125,667,ls),
(132,666,o),
(148,650,o),
(148,642,qs),
(148,-121,ls),
(148,-134,o),
(134,-152,o),
(125,-154,qs),
(46,-167,ls),
(36,-168,o),
(20,-176,o),
(20,-185,qs),
(20,-194,o),
(37,-200,o),
(46,-200,qs),
(190,-200,ls),
(202,-200,o)
);
}
);
width = 331;
},
{
layerId = "9ED1D18C-5CBC-4B18-9EF9-8B0496956F76";
shapes = (
{
closed = 1;
nodes = (
(246,-196,o),
(252,-173,o),
(252,-145,q),
(252,645,l),
(252,673,o),
(246,696,o),
(228,701,o),
(210,701,q),
(34,700,l),
(27,700,o),
(10,695,o),
(10,683,q),
(10,672,o),
(38,663,o),
(46,661,q),
(127,649,l),
(137,648,o),
(145,634,o),
(145,626,q),
(146,-125,l),
(146,-132,o),
(138,-144,o),
(129,-146,q),
(53,-158,l),
(40,-160,o),
(14,-170,o),
(14,-179,q),
(14,-191,o),
(27,-200,o),
(34,-200,q),
(210,-201,l),
(228,-201,o)
);
}
);
width = 362;
}
);
note = bracketright;
unicode = 93;
}
{
glyphname = asciicircum;
layers = (
{
layerId = m01;
shapes = (
{
closed = 1;
nodes = (
(92,294,o),
(98,303,qs),
(244,514,ls),
(247,519,o),
(250,519,o),
(254,514,qs),
(402,302,ls),
(407,295,o),
(432,284,o),
(443,284,qs),
(450,284,o),
(453,299,o),
(449,305,qs),
(251,603,l),
(248,603,l),
(51,305,ls),
(48,301,o),
(48,295,qs),
(48,291,o),
(53,284,o),
(57,284,qs),
(66,284,o)
);
}
);
width = 500;
},
{
layerId = "9ED1D18C-5CBC-4B18-9EF9-8B0496956F76";
shapes = (
{
closed = 1;
nodes = (
(94,264,o),
(104,279,q),
(252,500,l),
(254,504,o),
(258,505,o),
(262,500,q),
(413,279,l),
(423,264,o),
(448,242,o),
(463,242,q),
(479,242,o),
(490,258,o),
(485,266,q),
(261,609,l),
(253,609,l),
(32,266,l),
(30,262,o),
(30,259,q),
(30,249,o),
(45,242,o),
(54,242,q),
(69,242,o)
);
}
);
width = 517;
}
);
note = asciicircum;
unicode = 94;
}
{
glyphname = underscore;
layers = (
{
layerId = m01;
shapes = (
{
closed = 1;
nodes = (
(15,-132,o),
(5,-147,o),
(0,-165,o),
(0,-170,qs),
(0,-174,o),
(9,-182,o),
(14,-182,qs),
(469,-182,ls),
(481,-182,o),
(501,-153,o),
(501,-143,qs),
(501,-138,o),
(492,-132,o),
(487,-132,qs),
(24,-132,ls)
);
}
);
width = 500;
},
{
layerId = "9ED1D18C-5CBC-4B18-9EF9-8B0496956F76";
shapes = (
{
closed = 1;
nodes = (
(19,-127,o),
(6,-145,o),
(0,-168,o),
(0,-174,q),
(0,-178,o),
(10,-188,o),
(17,-188,q),
(575,-188,l),
(589,-188,o),
(609,-156,o),
(609,-143,q),
(609,-136,o),
(596,-127,o),
(585,-127,q),
(29,-127,l)
);
}
);
width = 610;
}
);
note = underscore;
unicode = 95;
}
{
glyphname = grave;
layers = (
{
layerId = m01;
shapes = (
{
closed = 1;
nodes = (
(179,466,qs),
(179,469,o),
(177,478,o),
(175,484,qs),
(168,503,o),
(137,562,o),
(106,618,o),
(98,631,qs),
(94,639,o),
(79,649,o),
(71,649,qs),
(52,649,o),
(22,639,o),
(22,628,qs),
(22,622,o),
(28,614,o),
(32,607,qs),
(44,590,o),
(85,539,o),
(127,491,o),
(140,478,qs),
(161,457,o),
(171,457,qs),
(179,457,o)
);
}
);
width = 200;
},
{
layerId = "9ED1D18C-5CBC-4B18-9EF9-8B0496956F76";
shapes = (
{
closed = 1;
nodes = (
(211,465,q),
(211,469,o),
(209,480,o),
(206,487,q),
(199,506,o),
(175,563,o),
(151,618,o),
(143,633,q),
(135,650,o),
(114,660,o),
(94,660,q),
(69,660,o),
(33,648,o),
(33,635,q),
(33,630,o),
(37,617,o),
(43,610,q),
(64,587,o),
(107,538,o),
(152,490,o),
(174,467,q),
(189,452,o),
(200,452,q),
(211,452,o)
);
}
);
width = 245;
}
);
note = grave;
unicode = 96;
}
{
glyphname = b;
kernLeft = b;
kernRight = uni1EFC;
layers = (
{
layerId = m01;
shapes = (
{
closed = 1;
nodes = (
(424,44,o),
(480,149,o),
(480,217,qs),
(480,273,o),
(432,362,o),
(351,414,o),
(300,414,qs),
(267,414,o),
(185,381,o),
(154,355,q),
(149,356,o),
(145,369,o),
(145,388,qs),
(145,593,ls),
(145,635,o),
(148,694,o),
(148,698,qs),
(148,701,o),
(144,705,o),
(142,705,qs),
(139,705,o),
(133,702,qs),
(126,699,o),
(86,683,o),
(41,667,o),
(28,664,qs),
(24,663,o),
(16,659,o),
(16,654,qs),
(16,648,o),
(25,641,o),
(29,639,qs),
(49,630,o),
(75,592,o),
(75,566,qs),
(75,81,ls),
(75,62,o),
(68,18,o),
(68,9,qs),
(68,4,o),
(78,-3,o),
(82,-3,qs),
(86,-3,o),
(91,2,qs),
(96,7,o),
(107,15,o),
(113,15,qs),
(118,15,o),
(151,5,o),
(173,-1,qs),
(193,-6,o),
(237,-14,o),
(259,-14,qs),
(325,-14,o)
);
},
{
closed = 1;
nodes = (
(184,45,o),
(145,97,o),
(145,132,qs),
(145,326,l),
(167,346,o),
(227,372,o),
(267,372,qs),
(315,372,o),
(376,316,o),
(405,234,o),
(405,195,qs),
(405,145,o),
(375,64,o),
(320,17,o),
(282,17,qs),
(247,17,o)
);
}
);
width = 515;
},
{
layerId = "9ED1D18C-5CBC-4B18-9EF9-8B0496956F76";
shapes = (
{
closed = 1;
nodes = (
(464,47,o),
(527,156,o),
(527,227,q),
(527,287,o),
(478,381,o),
(394,436,o),
(341,436,q),
(312,436,o),
(248,415,o),
(217,395,q),
(213,395,o),
(208,410,o),
(208,422,q),
(209,638,l),
(209,652,o),
(214,685,o),
(214,692,q),
(214,697,o),
(209,705,o),
(202,705,q),
(197,705,o),
(187,701,q),
(170,695,o),
(112,673,o),
(51,654,o),
(27,649,q),
(22,648,o),
(16,640,o),
(16,634,q),
(16,627,o),
(23,619,o),
(28,618,q),
(53,614,o),
(65,573,o),
(65,546,q),
(70,110,l),
(71,67,o),
(59,13,o),
(59,4,q),
(59,-1,o),
(68,-9,o),
(78,-9,q),
(84,-9,o),
(94,-2,q),
(102,4,o),
(122,11,o),
(132,11,q),
(141,11,o),
(164,6,o),
(178,2,q),
(198,-4,o),
(248,-14,o),
(279,-14,q),
(353,-14,o)
);
},
{
closed = 1;
nodes = (
(233,59,o),
(208,110,o),
(208,142,q),
(208,359,l),
(222,369,o),
(267,377,o),
(280,377,q),
(313,377,o),
(354,322,o),
(373,240,o),
(373,200,q),
(373,155,o),
(354,78,o),
(320,31,o),
(295,31,q),
(273,31,o)
);
}
);
width = 548;
}
);
note = b;
unicode = 98;
}
{
glyphname = c;
kernLeft = c;
kernRight = c;
layers = (
{
layerId = m01;
shapes = (
{
closed = 1;
nodes = (
(297,-1,o),
(341,28,o),
(357,48,qs),
(365,58,o),
(372,73,o),
(372,79,qs),
(372,93,o),
(361,93,qs),
(359,93,o),
(353,90,o),
(351,88,qs),
(327,64,o),
(285,45,o),
(256,45,qs),
(214,45,o),
(145,89,o),
(104,165,o),
(104,212,qs),
(104,286,o),
(165,377,o),
(214,377,qs),
(232,377,o),
(286,347,o),
(308,330,qs),
(314,326,o),
(324,319,o),
(329,319,qs),
(338,319,o),
(358,332,o),
(372,352,o),
(372,360,qs),
(372,370,o),
(360,379,qs),
(311,414,o),
(246,414,qs),
(188,414,o),
(92,351,o),
(35,245,o),
(35,180,qs),
(35,125,o),
(82,36,o),
(163,-15,o),
(213,-15,qs),
(244,-15,o)
);
}
);
width = 407;
},
{
layerId = "9ED1D18C-5CBC-4B18-9EF9-8B0496956F76";
shapes = (
{
closed = 1;
nodes = (
(330,27,o),
(382,82,o),
(390,102,q),
(394,111,o),
(396,125,o),
(396,129,q),
(396,145,o),
(384,145,q),
(379,145,o),
(371,139,o),
(366,135,q),
(342,117,o),
(297,97,o),
(267,97,q),
(226,97,o),
(170,134,o),
(142,204,o),
(142,253,q),
(142,324,o),
(176,381,o),
(211,381,q),
(231,381,o),
(284,354,o),
(311,331,q),
(319,324,o),
(337,312,o),
(347,312,q),
(355,312,o),
(378,331,o),
(396,354,o),
(396,360,q),
(396,368,o),
(388,378,q),
(333,436,o),
(247,436,q),
(184,436,o),
(82,374,o),
(21,270,o),
(21,205,q),
(21,143,o),
(71,44,o),
(157,-14,o),
(211,-14,q),
(256,-14,o)
);
}
);
width = 412;
}
);
note = c;
unicode = 99;
}
{
glyphname = d;
kernLeft = c;
kernRight = d;
layers = (
{
layerId = m01;
shapes = (
{
closed = 1;
nodes = (
(365,-17,o),
(373,-13,qs),
(408,2,o),
(462,17,o),
(490,21,q),
(495,21,o),
(504,32,o),
(504,39,qs),
(504,49,o),
(486,48,qs),
(473,47,o),
(448,45,o),
(443,45,qs),
(432,45,o),
(422,76,o),
(422,110,qs),
(422,562,ls),
(422,607,o),
(426,663,o),
(429,692,o),
(429,698,qs),
(428,704,o),
(422,704,qs),
(420,704,o),
(413,703,o),
(409,701,qs),
(395,695,o),
(345,675,o),
(301,664,q),
(293,661,o),
(293,652,qs),
(293,641,o),
(302,639,qs),
(326,635,o),
(352,607,o),
(352,566,qs),
(352,424,ls),
(352,400,o),
(345,400,qs),
(341,400,o),
(332,403,qs),
(321,407,o),
(280,414,o),
(260,414,qs),
(190,414,o),
(89,350,o),
(35,248,o),
(35,190,qs),
(35,140,o),
(80,46,o),
(163,-14,o),
(220,-14,qs),
(270,-14,o),
(336,34,o),
(351,57,q),
(351,51,ls),
(351,38,o),
(346,1,o),
(346,-9,qs),
(346,-11,o),
(355,-19,o),
(357,-19,qs),
(360,-19,o)
);
},
{
closed = 1;
nodes = (
(189,51,o),
(140,87,o),
(106,156,o),
(106,213,qs),
(106,280,o),
(148,351,o),
(206,379,o),
(229,379,qs),
(266,379,o),
(321,346,o),
(352,294,o),
(352,267,qs),
(351,87,l),
(332,65,o),
(282,38,o),
(256,38,qs),
(240,38,o)
);
}
);
width = 506;
},
{
layerId = "9ED1D18C-5CBC-4B18-9EF9-8B0496956F76";
shapes = (
{
closed = 1;
nodes = (
(370,-16,o),
(376,-13,q),
(413,1,o),
(497,20,o),
(535,24,q),
(540,24,o),
(553,43,o),
(553,51,q),
(553,63,o),
(540,62,q),
(515,60,o),
(506,59,o),
(501,59,q),
(488,59,o),
(478,88,o),
(478,122,q),
(484,638,l),
(485,649,o),
(487,678,o),
(489,697,o),
(489,692,q),
(489,705,o),
(477,705,q),
(476,705,o),
(466,702,o),
(451,695,q),
(423,683,o),
(338,657,o),
(302,649,q),
(291,647,o),
(291,634,q),
(291,621,o),
(303,618,q),
(324,614,o),
(340,581,o),
(340,546,q),
(340,433,l),
(340,422,o),
(336,422,q),
(338,422,o),
(323,425,q),
(309,429,o),
(278,433,o),
(264,433,q),
(193,433,o),
(83,373,o),
(21,266,o),
(21,196,q),
(21,137,o),
(73,41,o),
(161,-14,o),
(216,-14,q),
(255,-14,o),
(327,24,o),
(349,57,q),
(349,51,l),
(348,41,o),
(346,16,o),
(343,-1,q),
(343,-5,o),
(355,-19,o),
(358,-19,q),
(361,-19,o)
);
},
{
closed = 1;
nodes = (
(215,82,o),
(189,126,o),
(175,187,o),
(175,224,q),
(175,271,o),
(197,343,o),
(234,384,o),
(258,384,q),
(275,384,o),
(313,362,o),
(339,330,o),
(339,315,q),
(340,84,l),
(327,71,o),
(283,58,o),
(271,58,q),
(250,58,o)
);
}
);
width = 563;
}
);
note = d;
unicode = 100;
}
{
glyphname = e;
kernLeft = c;
kernRight = ae;
layers = (
{
layerId = m01;
shapes = (
{
closed = 1;
nodes = (
(290,0,o),
(332,28,o),
(347,47,qs),
(365,70,o),
(365,89,qs),
(365,99,o),
(357,99,qs),
(354,99,o),
(350,96,o),
(346,91,qs),
(327,69,o),
(278,46,o),
(248,46,qs),
(206,46,o),
(136,93,o),
(94,172,o),
(94,220,qs),
(94,242,o),
(105,257,o),
(119,257,qs),
(330,257,ls),
(360,257,o),
(360,288,qs),
(360,325,o),
(325,382,o),
(263,414,o),
(223,414,qs),
(171,414,o),
(83,356,o),
(30,261,o),
(30,203,qs),
(30,138,o),
(76,39,o),
(158,-15,o),
(213,-15,qs),
(240,-15,o)
);
},
{
closed = 1;
nodes = (
(109,298,qs),
(109,318,o),
(139,358,o),
(185,385,o),
(208,385,qs),
(243,385,o),
(294,344,o),
(294,315,qs),
(294,305,o),
(291,294,o),
(286,293,qs),
(270,290,o),
(236,288,o),
(212,288,qs),
(121,288,ls),
(109,288,o)
);
}
);
width = 390;
},
{
layerId = "9ED1D18C-5CBC-4B18-9EF9-8B0496956F76";
shapes = (
{
closed = 1;
nodes = (
(334,20,o),
(382,73,o),
(391,100,q),
(397,118,o),
(397,127,q),
(397,140,o),
(386,140,q),
(383,140,o),
(375,135,o),
(372,133,q),
(347,114,o),
(298,92,o),
(269,92,q),
(232,92,o),
(176,126,o),
(144,185,o),
(144,221,q),
(144,240,o),
(157,256,o),
(171,256,q),
(369,256,l),
(400,256,o),
(400,295,q),
(400,335,o),
(358,398,o),
(288,436,o),
(245,436,q),
(183,436,o),
(81,374,o),
(21,269,o),
(21,205,q),
(21,143,o),
(71,44,o),
(157,-14,o),
(211,-14,q),
(259,-14,o)
);
},
{
closed = 1;
nodes = (
(156,315,q),
(155,335,o),
(177,371,o),
(212,394,o),
(232,394,q),
(258,394,o),
(291,361,o),
(291,335,q),
(291,325,o),
(285,307,o),
(280,305,q),
(272,302,o),
(253,300,o),
(224,300,q),
(171,300,l),
(156,300,o)
);
}
);
width = 423;
}
);
note = e;
unicode = 101;
}
{
glyphname = f;
kernRight = f;
layers = (
{
layerId = m01;
shapes = (
{
closed = 1;
nodes = (
(88,0,o),
(110,2,o),
(127,2,qs),
(153,2,o),
(199,-3,o),
(229,-3,qs),
(239,-3,o),
(249,2,o),
(249,8,qs),
(249,21,o),
(226,24,qs),
(186,29,o),
(160,48,o),
(160,68,qs),
(160,339,ls),
(160,345,o),
(167,352,o),
(179,352,qs),
(294,352,ls),
(300,352,o),
(303,360,qs),
(306,366,o),
(309,382,o),
(309,389,qs),
(309,394,o),
(301,400,o),
(296,400,qs),
(171,400,ls),
(167,400,o),
(160,404,o),
(160,410,qs),
(160,498,ls),
(160,583,o),
(221,665,o),
(268,665,qs),
(301,665,o),
(339,642,o),
(352,629,qs),
(362,620,o),
(377,606,o),
(386,606,qs),
(400,606,o),
(420,626,o),
(420,646,qs),
(420,672,o),
(366,706,o),
(310,706,qs),
(277,706,o),
(201,677,o),
(133,609,o),
(90,493,o),
(90,406,q),
(75,399,o),
(49,385,o),
(31,376,q),
(30,375,o),
(24,372,o),
(24,370,qs),
(24,365,o),
(35,353,o),
(38,352,q),
(54,351,o),
(80,350,o),
(90,350,q),
(90,68,ls),
(90,48,o),
(70,29,o),
(47,24,qs),
(37,22,o),
(24,16,o),
(24,8,qs),
(24,2,o),
(34,-3,o),
(44,-3,qs),
(64,-3,o)
);
}
);
width = 318;
},
{
layerId = "9ED1D18C-5CBC-4B18-9EF9-8B0496956F76";
shapes = (
{
closed = 1;
nodes = (
(100,0,o),
(138,2,o),
(155,2,q),
(181,2,o),
(263,-3,o),
(293,-3,q),
(299,-3,o),
(309,8,o),
(309,14,q),
(309,29,o),
(290,33,q),
(248,42,o),
(225,64,o),
(225,91,q),
(225,336,l),
(225,350,o),
(241,361,o),
(265,361,q),
(352,361,l),
(355,361,o),
(360,369,q),
(364,376,o),
(369,397,o),
(369,406,q),
(369,412,o),
(361,423,o),
(352,423,q),
(242,423,l),
(235,423,o),
(225,429,o),
(225,438,q),
(225,519,l),
(225,593,o),
(264,659,o),
(303,659,q),
(335,659,o),
(383,621,o),
(401,601,q),
(411,588,o),
(429,572,o),
(438,572,q),
(458,572,o),
(479,601,o),
(479,624,q),
(479,667,o),
(416,706,o),
(345,706,q),
(306,706,o),
(218,677,o),
(139,611,o),
(85,503,o),
(80,423,q),
(64,416,o),
(36,405,o),
(24,400,q),
(20,399,o),
(14,394,o),
(14,390,q),
(14,382,o),
(22,359,o),
(28,358,q),
(44,357,o),
(70,356,o),
(80,356,q),
(80,71,l),
(80,55,o),
(67,41,o),
(38,32,q),
(30,29,o),
(20,20,o),
(20,12,q),
(20,5,o),
(34,-3,o),
(40,-3,q),
(60,-3,o)
);
}
);
width = 369;
}
);
note = f;
unicode = 102;
}
{
glyphname = g;
layers = (
{
layerId = m01;
shapes = (
{
closed = 1;
nodes = (
(315,-253,o),
(379,-191,o),
(418,-116,o),
(418,-77,qs),
(418,-31,o),
(328,19,o),
(236,24,qs),
(194,27,o),
(136,39,o),
(106,60,o),
(106,74,qs),
(106,85,o),
(136,112,o),
(158,120,q),
(124,137,l),
(119,128,o),
(108,116,o),
(86,99,o),
(63,81,qs),
(51,71,o),
(40,54,o),
(40,44,qs),
(40,6,o),
(113,-30,o),
(207,-37,qs),
(260,-40,o),
(326,-58,o),
(357,-87,o),
(357,-109,qs),
(357,-143,o),
(329,-204,o),
(304,-223,qs),
(268,-250,o),
(209,-250,qs),
(157,-250,o),
(86,-195,o),
(86,-155,qs),
(86,-115,o),
(124,-59,o),
(172,-28,q),
(130,-26,l),
(105,-46,o),
(58,-83,o),
(44,-95,qs),
(27,-108,o),
(11,-144,o),
(11,-170,qs),
(11,-225,o),
(110,-290,o),
(195,-290,qs),
(236,-290,o)
);
},
{
closed = 1;
nodes = (
(137,176,o),
(111,235,o),
(111,270,qs),
(111,301,o),
(136,353,o),
(177,386,o),
(200,386,qs),
(225,386,o),
(268,355,o),
(295,304,o),
(295,275,qs),
(295,218,o),
(245,141,o),
(207,141,qs),
(181,141,o)
);
},
{
closed = 1;
nodes = (
(316,158,o),
(360,244,o),
(360,295,qs),
(360,304,o),
(362,322,o),
(365,337,o),
(366,341,qs),
(369,349,o),
(396,349,qs),
(423,349,ls),
(426,349,o),
(431,354,qs),
(441,364,o),
(441,373,qs),
(441,388,o),
(428,388,qs),
(421,388,o),
(385,385,o),
(373,385,qs),
(358,385,o),
(330,388,o),
(306,395,qs),
(285,401,o),
(242,416,o),
(213,416,qs),
(168,416,o),
(88,376,o),
(39,305,o),
(39,258,qs),
(39,217,o),
(86,148,o),
(160,106,o),
(201,106,qs),
(244,106,o)
);
}
);
width = 435;
},
{
layerId = "9ED1D18C-5CBC-4B18-9EF9-8B0496956F76";
shapes = (
{
closed = 1;
nodes = (
(366,-249,o),
(445,-181,o),
(492,-99,o),
(492,-57,q),
(492,-10,o),
(393,39,o),
(281,48,q),
(224,53,o),
(161,61,o),
(136,74,o),
(136,84,q),
(136,92,o),
(160,116,o),
(180,122,q),
(127,140,l),
(124,133,o),
(104,115,o),
(77,95,o),
(63,85,q),
(46,74,o),
(35,54,o),
(35,45,q),
(35,-5,o),
(126,-68,o),
(232,-79,q),
(283,-84,o),
(338,-97,o),
(358,-115,o),
(358,-130,q),
(358,-150,o),
(338,-192,o),
(321,-209,q),
(294,-236,o),
(223,-236,q),
(170,-236,o),
(102,-183,o),
(102,-142,q),
(102,-116,o),
(136,-77,o),
(164,-62,q),
(113,-42,l),
(103,-49,o),
(69,-75,o),
(49,-89,q),
(22,-108,o),
(8,-145,o),
(8,-176,q),
(8,-229,o),
(120,-289,o),
(220,-289,q),
(270,-289,o)
);
},
{
closed = 1;
nodes = (
(183,175,o),
(165,235,o),
(165,273,q),
(165,308,o),
(182,362,o),
(212,393,o),
(231,393,q),
(252,393,o),
(282,362,o),
(299,306,o),
(299,268,q),
(299,209,o),
(264,140,o),
(234,140,q),
(215,140,o)
);
},
{
closed = 1;
nodes = (
(369,147,o),
(425,235,o),
(425,288,q),
(425,314,o),
(425,331,o),
(427,333,o),
(430,335,q),
(440,343,o),
(466,343,q),
(493,343,l),
(500,343,o),
(506,350,q),
(520,369,o),
(520,390,q),
(520,414,o),
(503,414,q),
(493,414,o),
(464,411,o),
(448,411,q),
(424,411,o),
(384,415,o),
(366,418,q),
(330,423,o),
(272,437,o),
(241,437,q),
(187,437,o),
(92,393,o),
(33,314,o),
(33,263,q),
(33,214,o),
(90,137,o),
(177,94,o),
(222,94,q),
(277,94,o)
);
}
);
width = 514;
}
);
note = g;
unicode = 103;
}
{
glyphname = k;
kernLeft = h;
layers = (
{
layerId = m01;
shapes = (
{
closed = 1;
nodes = (
(83,0,o),
(103,2,o),
(120,2,qs),
(138,2,o),
(153,0,o),
(171,-3,o),
(190,-3,qs),
(194,-3,o),
(213,1,o),
(213,8,qs),
(213,16,o),
(198,21,o),
(190,24,qs),
(175,29,o),
(155,45,o),
(155,65,qs),
(154,82,o),
(154,118,o),
(154,135,qs),
(154,152,o),
(154,185,o),
(155,199,qs),
(155,206,o),
(160,206,qs),
(164,206,o),
(170,199,qs),
(291,62,ls),
(294,58,o),
(298,51,o),
(298,48,qs),
(298,39,o),
(282,29,o),
(271,25,qs),
(264,23,o),
(254,15,o),
(254,9,qs),
(254,0,o),
(272,0,qs),
(323,0,o),
(420,-3,o),
(459,-3,qs),
(479,-3,o),
(479,8,qs),
(479,16,o),
(460,22,o),
(449,26,qs),
(434,31,o),
(391,56,o),
(374,72,qs),
(364,82,o),
(313,132,o),
(253,198,o),
(227,230,q),
(226,232,o),
(224,236,o),
(224,237,qs),
(224,241,o),
(230,247,qs),
(254,268,o),
(309,314,o),
(352,349,o),
(358,353,qs),
(372,361,o),
(405,379,o),
(424,384,qs),
(435,387,o),
(449,396,o),
(449,402,qs),
(449,412,o),
(435,412,qs),
(426,412,o),
(395,406,o),
(360,400,o),
(344,400,qs),
(295,400,ls),
(285,400,o),
(273,393,o),
(273,388,qs),
(273,381,o),
(285,378,qs),
(294,376,o),
(311,368,o),
(311,363,qs),
(311,361,o),
(307,354,o),
(302,348,qs),
(292,337,o),
(237,280,o),
(196,245,qs),
(185,235,o),
(166,225,o),
(160,225,qs),
(155,225,o),
(155,234,qs),
(155,562,ls),
(155,626,o),
(164,686,o),
(164,696,qs),
(164,701,o),
(161,705,o),
(158,705,qs),
(155,705,o),
(149,702,qs),
(134,696,o),
(103,683,o),
(65,670,o),
(39,664,qs),
(31,662,o),
(31,652,qs),
(31,641,o),
(40,639,qs),
(65,633,o),
(85,601,o),
(85,566,qs),
(85,65,ls),
(85,45,o),
(57,29,o),
(42,24,qs),
(34,21,o),
(19,16,o),
(19,8,qs),
(19,-3,o),
(42,-3,qs),
(62,-3,o)
);
}
);
width = 469;
},
{
layerId = "9ED1D18C-5CBC-4B18-9EF9-8B0496956F76";
shapes = (
{
closed = 1;
nodes = (
(92,0,o),
(127,2,o),
(144,2,q),
(162,2,o),
(196,0,o),
(232,-3,o),
(252,-3,q),
(260,-3,o),
(269,6,o),
(269,13,q),
(269,21,o),
(257,31,o),
(249,34,q),
(233,39,o),
(220,54,o),
(220,70,q),
(220,87,o),
(220,124,o),
(220,140,q),
(220,155,o),
(220,186,o),
(220,201,q),
(220,207,o),
(226,209,q),
(228,209,o),
(230,207,q),
(321,74,l),
(327,66,o),
(334,55,o),
(334,50,q),
(333,46,o),
(328,39,o),
(320,36,q),
(309,32,o),
(297,23,o),
(297,15,q),
(297,0,o),
(317,0,q),
(367,0,o),
(486,-3,o),
(551,-3,q),
(573,-3,o),
(573,12,q),
(573,20,o),
(554,28,o),
(546,31,q),
(530,37,o),
(481,68,o),
(464,87,q),
(438,117,o),
(396,173,o),
(356,232,o),
(332,263,q),
(330,266,o),
(325,271,o),
(325,275,q),
(325,281,o),
(330,286,q),
(343,299,o),
(376,325,o),
(414,350,o),
(433,360,q),
(459,375,o),
(507,395,o),
(524,399,q),
(535,401,o),
(547,412,o),
(547,420,q),
(547,432,o),
(536,432,q),
(523,431,o),
(462,426,o),
(399,423,o),
(381,423,q),
(332,423,l),
(325,423,o),
(310,418,o),
(310,409,q),
(310,399,o),
(322,397,q),
(339,395,o),
(355,384,o),
(355,379,q),
(355,376,o),
(350,367,o),
(346,361,q),
(336,345,o),
(277,278,o),
(241,246,q),
(239,245,o),
(232,241,o),
(229,241,q),
(220,241,o),
(220,254,q),
(219,638,l),
(220,652,o),
(224,685,o),
(224,692,q),
(224,697,o),
(220,705,o),
(213,705,q),
(208,705,o),
(199,702,q),
(184,697,o),
(125,675,o),
(61,654,o),
(36,649,q),
(26,647,o),
(26,634,q),
(26,620,o),
(37,618,q),
(62,613,o),
(75,573,o),
(75,546,q),
(75,71,l),
(75,49,o),
(53,38,o),
(38,33,q),
(27,29,o),
(15,20,o),
(15,12,q),
(15,-3,o),
(35,-3,q),
(55,-3,o)
);
}
);
width = 563;
}
);
note = k;
unicode = 107;
}
{
glyphname = l;
kernLeft = h;
kernRight = d;
layers = (
{
layerId = m01;
shapes = (
{
closed = 1;
nodes = (
(81,0,o),
(103,2,o),
(120,2,qs),
(138,2,o),
(159,0,o),
(182,-3,o),
(201,-3,qs),
(206,-3,o),
(221,0,o),
(221,6,qs),
(221,14,o),
(206,21,o),
(198,24,qs),
(183,29,o),
(155,42,o),
(155,62,qs),
(155,562,ls),
(155,630,o),
(162,689,o),
(162,698,qs),
(162,700,o),
(159,705,o),
(157,705,qs),
(155,705,o),
(151,703,qs),
(135,697,o),
(102,683,o),
(64,670,o),
(38,664,qs),
(31,662,o),
(31,652,qs),
(31,641,o),
(39,639,qs),
(64,634,o),
(85,595,o),
(85,566,qs),
(85,62,ls),
(85,42,o),
(57,29,o),
(42,24,qs),
(34,21,o),
(19,14,o),
(19,6,qs),
(19,0,o),
(34,-3,o),
(39,-3,qs),
(59,-3,o)
);
}
);
width = 240;
},
{
layerId = "9ED1D18C-5CBC-4B18-9EF9-8B0496956F76";
shapes = (
{
closed = 1;
nodes = (
(92,0,o),
(127,2,o),
(144,2,q),
(162,2,o),
(200,1,o),
(240,-1,o),
(260,-1,q),
(270,-1,o),
(280,7,o),
(280,14,q),
(280,22,o),
(268,31,o),
(257,35,q),
(242,40,o),
(220,51,o),
(220,73,q),
(220,638,l),
(221,652,o),
(225,685,o),
(225,692,q),
(225,697,o),
(221,705,o),
(214,705,q),
(209,705,o),
(200,702,q),
(185,697,o),
(126,675,o),
(61,654,o),
(36,649,q),
(26,647,o),
(26,634,q),
(26,620,o),
(37,618,q),
(62,613,o),
(75,573,o),
(75,546,q),
(75,71,l),
(75,49,o),
(53,38,o),
(38,33,q),
(27,29,o),
(15,20,o),
(15,12,q),
(15,5,o),
(25,-3,o),
(35,-3,q),
(55,-3,o)
);
}
);
width = 295;
}
);
note = l;
unicode = 108;
}
{
glyphname = m;
kernLeft = dotlessi;
kernRight = h;
layers = (
{
layerId = m01;
shapes = (
{
closed = 1;
nodes = (
(87,0,o),
(108,2,o),
(125,2,qs),
(143,2,o),
(163,0,o),
(186,-3,o),
(206,-3,qs),
(215,-3,o),
(226,2,o),
(226,8,qs),
(226,16,o),
(211,21,o),
(203,24,qs),
(188,29,o),
(160,42,o),
(160,62,qs),
(160,268,ls),
(160,320,o),
(187,340,qs),
(206,355,o),
(249,367,o),
(274,367,qs),
(296,367,o),
(332,339,o),
(354,296,o),
(354,272,qs),
(354,62,ls),
(354,42,o),
(325,29,o),
(310,24,qs),
(302,21,o),
(287,16,o),
(287,8,qs),
(287,2,o),
(299,-3,o),
(307,-3,qs),
(327,-3,o),
(351,0,o),
(373,2,o),
(390,2,qs),
(408,2,o),
(429,0,o),
(452,-3,o),
(472,-3,qs),
(482,-3,o),
(492,2,o),
(492,8,qs),
(492,15,o),
(479,22,o),
(469,24,qs),
(454,28,o),
(424,42,o),
(424,62,qs),
(424,268,ls),
(424,318,o),
(452,340,qs),
(471,355,o),
(514,367,o),
(539,367,qs),
(561,367,o),
(597,339,o),
(619,296,o),
(619,272,qs),
(619,62,ls),
(619,42,o),
(592,28,o),
(576,24,qs),
(566,22,o),
(553,16,o),
(553,8,qs),
(553,2,o),
(564,-3,o),
(573,-3,qs),
(593,-3,o),
(617,0,o),
(639,2,o),
(656,2,qs),
(674,2,o),
(693,0,o),
(715,-3,o),
(735,-3,qs),
(746,-3,o),
(755,2,o),
(755,8,qs),
(755,15,o),
(742,21,o),
(732,24,qs),
(717,29,o),
(689,42,o),
(689,62,qs),
(689,275,ls),
(689,310,o),
(666,374,o),
(622,414,o),
(589,414,qs),
(540,414,o),
(458,374,o),
(426,345,q),
(423,345,l),
(407,383,o),
(359,414,o),
(323,414,qs),
(265,414,o),
(190,369,o),
(167,347,q),
(165,347,l),
(163,349,o),
(163,359,qs),
(163,373,o),
(168,416,o),
(168,423,qs),
(168,430,o),
(162,430,qs),
(159,430,o),
(155,427,o),
(153,426,qs),
(135,415,o),
(110,396,o),
(78,381,o),
(51,374,qs),
(43,372,o),
(43,362,qs),
(43,356,o),
(48,350,o),
(52,349,qs),
(78,345,o),
(90,304,o),
(90,277,qs),
(90,62,ls),
(90,42,o),
(61,29,o),
(47,24,qs),
(37,21,o),
(24,15,o),
(24,8,qs),
(24,1,o),
(36,-3,o),
(44,-3,qs),
(64,-3,o)
);
}
);
width = 778;
},
{
layerId = "9ED1D18C-5CBC-4B18-9EF9-8B0496956F76";
shapes = (
{
closed = 1;
nodes = (
(98,0,o),
(134,2,o),
(151,2,q),
(169,2,o),
(199,0,o),
(232,-3,o),
(252,-3,q),
(258,-3,o),
(268,6,o),
(268,12,q),
(268,20,o),
(257,30,o),
(249,33,q),
(234,38,o),
(225,53,o),
(225,70,q),
(225,292,l),
(225,317,o),
(235,324,q),
(251,335,o),
(279,345,o),
(289,345,q),
(304,345,o),
(326,326,o),
(338,292,o),
(338,267,q),
(338,63,l),
(338,49,o),
(327,37,o),
(314,33,q),
(306,30,o),
(295,20,o),
(295,12,q),
(295,5,o),
(305,-3,o),
(311,-3,q),
(331,-3,o),
(363,0,o),
(394,2,o),
(411,2,q),
(429,2,o),
(460,0,o),
(493,-3,o),
(513,-3,q),
(519,-3,o),
(530,5,o),
(530,12,q),
(530,20,o),
(518,30,o),
(510,33,q),
(495,38,o),
(483,50,o),
(483,70,q),
(483,288,l),
(483,313,o),
(494,323,q),
(508,335,o),
(536,346,o),
(546,346,q),
(561,346,o),
(584,327,o),
(596,292,o),
(596,267,q),
(596,63,l),
(596,49,o),
(585,37,o),
(572,33,q),
(564,30,o),
(553,20,o),
(553,12,q),
(553,5,o),
(563,-3,o),
(569,-3,q),
(589,-3,o),
(621,0,o),
(652,2,o),
(669,2,q),
(687,2,o),
(723,0,o),
(761,-3,o),
(781,-3,q),
(787,-3,o),
(798,5,o),
(798,12,q),
(798,20,o),
(786,30,o),
(778,33,q),
(763,38,o),
(741,50,o),
(741,70,q),
(741,292,l),
(741,338,o),
(710,402,o),
(659,436,o),
(628,436,q),
(582,436,o),
(508,395,o),
(479,357,q),
(474,357,l),
(462,390,o),
(409,436,o),
(379,436,q),
(336,436,o),
(264,400,o),
(232,368,q),
(230,368,l),
(228,370,o),
(228,380,q),
(228,394,o),
(233,431,o),
(233,439,q),
(233,451,o),
(223,451,q),
(220,451,o),
(214,447,o),
(210,445,q),
(191,435,o),
(134,415,o),
(74,398,o),
(50,392,q),
(39,389,o),
(39,374,q),
(39,364,o),
(47,356,o),
(51,355,q),
(68,352,o),
(80,323,o),
(80,303,q),
(80,71,l),
(80,51,o),
(58,38,o),
(43,33,q),
(35,30,o),
(20,20,o),
(20,12,q),
(20,5,o),
(34,-3,o),
(40,-3,q),
(60,-3,o)
);
}
);
width = 813;
}
);
note = m;
unicode = 109;
}
{
glyphname = n;
kernLeft = dotlessi;
kernRight = h;
layers = (
{
layerId = m01;
shapes = (
{
closed = 1;
nodes = (
(87,0,o),
(108,2,o),
(125,2,qs),
(143,2,o),
(163,0,o),
(186,-3,o),
(206,-3,qs),
(216,-3,o),
(226,2,o),
(226,8,qs),
(226,18,o),
(203,24,qs),
(188,28,o),
(160,42,o),
(160,62,qs),
(160,303,ls),
(160,309,o),
(164,322,o),
(168,326,qs),
(189,343,o),
(243,366,o),
(279,366,qs),
(320,365,o),
(369,316,o),
(369,272,qs),
(369,62,ls),
(369,42,o),
(341,29,o),
(326,24,qs),
(318,21,o),
(303,14,o),
(303,6,qs),
(303,0,o),
(318,-3,o),
(323,-3,qs),
(343,-3,o),
(366,0,o),
(388,2,o),
(405,2,qs),
(423,2,o),
(443,0,o),
(465,-3,o),
(485,-3,qs),
(491,-3,o),
(505,0,o),
(505,6,qs),
(505,14,o),
(490,21,o),
(482,24,qs),
(467,29,o),
(439,42,o),
(439,62,qs),
(439,275,ls),
(439,334,o),
(375,414,o),
(326,414,qs),
(279,414,o),
(200,380,o),
(165,347,q),
(164,348,o),
(163,355,o),
(163,359,qs),
(163,373,o),
(168,416,o),
(168,423,qs),
(168,426,o),
(165,430,o),
(163,430,qs),
(160,430,o),
(155,427,o),
(152,425,qs),
(131,409,o),
(87,383,o),
(52,374,q),
(43,373,o),
(43,362,qs),
(43,356,o),
(49,351,o),
(53,349,q),
(79,342,o),
(90,304,o),
(90,277,qs),
(90,62,ls),
(90,42,o),
(62,28,o),
(47,24,qs),
(36,21,o),
(24,16,o),
(24,8,qs),
(24,2,o),
(35,-3,o),
(44,-3,qs),
(64,-3,o)
);
}
);
width = 528;
},
{
layerId = "9ED1D18C-5CBC-4B18-9EF9-8B0496956F76";
shapes = (
{
closed = 1;
nodes = (
(100,0,o),
(138,2,o),
(155,2,q),
(173,2,o),
(206,0,o),
(242,-3,o),
(262,-3,q),
(268,-3,o),
(278,6,o),
(278,12,q),
(278,26,o),
(259,33,q),
(245,38,o),
(225,50,o),
(225,70,q),
(225,305,l),
(225,310,o),
(229,320,o),
(233,323,q),
(250,335,o),
(280,346,o),
(299,346,q),
(325,346,o),
(357,304,o),
(357,267,q),
(357,70,l),
(357,50,o),
(338,38,o),
(323,33,q),
(315,30,o),
(304,20,o),
(304,12,q),
(304,5,o),
(314,-3,o),
(320,-3,q),
(340,-3,o),
(377,0,o),
(413,2,o),
(430,2,q),
(448,2,o),
(484,0,o),
(522,-3,o),
(542,-3,q),
(548,-3,o),
(559,5,o),
(559,12,q),
(559,20,o),
(547,30,o),
(539,33,q),
(524,38,o),
(502,50,o),
(502,70,q),
(502,292,l),
(502,360,o),
(430,436,o),
(377,436,q),
(331,436,o),
(264,399,o),
(230,367,q),
(229,368,o),
(228,378,o),
(228,382,q),
(228,396,o),
(233,430,o),
(233,438,q),
(233,443,o),
(230,451,o),
(223,451,q),
(219,451,o),
(208,444,o),
(203,442,q),
(173,427,o),
(83,400,o),
(49,392,q),
(39,389,o),
(39,374,q),
(39,365,o),
(46,356,o),
(50,355,q),
(67,352,o),
(80,323,o),
(80,303,q),
(80,71,l),
(80,51,o),
(58,38,o),
(43,33,q),
(35,30,o),
(20,20,o),
(20,12,q),
(20,5,o),
(34,-3,o),
(40,-3,q),
(60,-3,o)
);
}
);
width = 574;
}
);
note = n;
unicode = 110;
}
{
glyphname = p;
kernLeft = dotlessi;
kernRight = uni1EFC;
layers = (
{
layerId = m01;
shapes = (
{
closed = 1;
nodes = (
(82,-282,o),
(103,-280,o),
(120,-280,qs),
(146,-280,o),
(185,-285,o),
(214,-285,qs),
(220,-285,o),
(236,-282,o),
(236,-276,qs),
(236,-268,o),
(221,-261,o),
(213,-258,qs),
(203,-255,o),
(176,-248,o),
(155,-233,o),
(155,-220,qs),
(155,-33,ls),
(155,-30,o),
(156,-5,o),
(158,18,o),
(159,18,q),
(169,9,o),
(206,-5,o),
(245,-14,o),
(259,-14,qs),
(306,-14,o),
(388,27,o),
(450,95,o),
(484,180,o),
(484,225,qs),
(484,272,o),
(445,359,o),
(372,414,o),
(320,414,qs),
(289,414,o),
(221,389,o),
(168,358,o),
(158,348,q),
(157,349,o),
(157,357,qs),
(157,369,o),
(162,408,o),
(162,417,qs),
(162,420,o),
(158,426,o),
(156,426,qs),
(155,426,o),
(155,425,o),
(154,425,q),
(130,415,o),
(76,394,o),
(38,385,qs),
(35,384,o),
(31,378,o),
(31,373,qs),
(31,369,o),
(35,361,o),
(39,360,qs),
(56,357,o),
(76,327,o),
(85,295,o),
(85,287,qs),
(85,-220,ls),
(85,-240,o),
(57,-253,o),
(42,-258,qs),
(34,-261,o),
(19,-268,o),
(19,-276,qs),
(19,-282,o),
(35,-285,o),
(40,-285,qs),
(60,-285,o)
);
},
{
closed = 1;
nodes = (
(192,58,o),
(155,126,o),
(155,166,qs),
(155,175,o),
(156,208,o),
(157,250,o),
(158,295,o),
(158,317,qs),
(158,324,o),
(193,349,o),
(244,369,o),
(268,369,qs),
(284,369,o),
(330,357,o),
(374,321,o),
(404,251,o),
(404,193,qs),
(404,143,o),
(375,75,o),
(332,35,o),
(289,17,o),
(274,17,qs),
(247,17,o)
);
}
);
width = 519;
},
{
layerId = "9ED1D18C-5CBC-4B18-9EF9-8B0496956F76";
shapes = (
{
closed = 1;
nodes = (
(95,-254,o),
(133,-252,o),
(150,-252,q),
(176,-252,o),
(247,-257,o),
(277,-257,q),
(284,-257,o),
(293,-248,o),
(293,-242,q),
(293,-234,o),
(282,-225,o),
(271,-222,q),
(253,-216,o),
(230,-204,o),
(219,-186,o),
(219,-172,q),
(219,-11,l),
(219,-7,o),
(220,-2,o),
(222,0,o),
(223,0,q),
(236,-5,o),
(266,-14,o),
(295,-19,o),
(305,-19,q),
(354,-19,o),
(438,23,o),
(502,95,o),
(538,184,o),
(538,231,q),
(538,280,o),
(498,370,o),
(422,428,o),
(368,428,q),
(337,428,o),
(271,401,o),
(220,367,o),
(210,357,q),
(208,359,o),
(208,369,q),
(208,383,o),
(213,419,o),
(213,427,q),
(213,432,o),
(210,440,o),
(203,440,q),
(199,440,o),
(188,433,o),
(183,431,q),
(153,416,o),
(67,389,o),
(33,381,q),
(28,380,o),
(21,372,o),
(21,363,q),
(21,353,o),
(28,346,o),
(34,344,q),
(47,342,o),
(65,326,o),
(75,303,o),
(75,290,q),
(75,-183,l),
(75,-199,o),
(61,-214,o),
(38,-221,q),
(28,-224,o),
(15,-234,o),
(15,-242,q),
(15,-249,o),
(28,-257,o),
(35,-257,q),
(55,-257,o)
);
},
{
closed = 1;
nodes = (
(236,69,o),
(219,121,o),
(219,141,q),
(219,149,o),
(219,198,o),
(220,257,o),
(220,303,o),
(220,309,q),
(220,318,o),
(242,339,o),
(277,354,o),
(294,354,q),
(305,354,o),
(335,344,o),
(364,312,o),
(384,248,o),
(384,194,q),
(384,148,o),
(365,85,o),
(337,47,o),
(308,31,o),
(298,31,q),
(271,31,o)
);
}
);
width = 558;
}
);
note = p;
unicode = 112;
}
{
glyphname = r;
kernLeft = dotlessi;
layers = (
{
layerId = m01;
shapes = (
{
closed = 1;
nodes = (
(92,0,o),
(113,2,o),
(130,2,qs),
(156,2,o),
(187,-3,o),
(217,-3,qs),
(237,-3,o),
(237,8,qs),
(237,15,o),
(225,21,o),
(214,24,qs),
(189,32,o),
(161,49,o),
(161,62,qs),
(161,264,ls),
(161,314,o),
(206,348,o),
(230,348,qs),
(238,348,o),
(254,342,o),
(262,339,qs),
(270,335,o),
(284,330,o),
(290,330,qs),
(300,330,o),
(318,348,o),
(329,372,o),
(329,382,qs),
(329,396,o),
(302,414,o),
(281,414,qs),
(262,414,o),
(221,396,o),
(182,366,o),
(166,346,q),
(164,346,o),
(164,348,qs),
(165,364,o),
(166,396,o),
(167,420,o),
(167,423,qs),
(167,430,o),
(162,430,qs),
(160,430,o),
(153,427,o),
(147,423,qs),
(131,413,o),
(74,382,o),
(48,374,qs),
(39,372,o),
(39,362,qs),
(39,358,o),
(45,350,o),
(49,349,qs),
(74,344,o),
(90,304,o),
(90,277,qs),
(90,62,ls),
(90,48,o),
(71,29,o),
(52,24,qs),
(41,21,o),
(29,16,o),
(29,8,qs),
(29,2,o),
(39,-3,o),
(49,-3,qs),
(69,-3,o)
);
}
);
width = 334;
},
{
layerId = "9ED1D18C-5CBC-4B18-9EF9-8B0496956F76";
shapes = (
{
closed = 1;
nodes = (
(100,0,o),
(138,2,o),
(155,2,q),
(181,2,o),
(253,-3,o),
(283,-3,q),
(299,-3,o),
(299,12,q),
(299,20,o),
(288,29,o),
(277,32,q),
(249,40,o),
(225,60,o),
(225,82,q),
(225,236,l),
(225,294,o),
(261,333,o),
(287,333,q),
(295,333,o),
(315,324,o),
(325,319,q),
(336,314,o),
(357,304,o),
(367,304,q),
(383,304,o),
(411,332,o),
(429,371,o),
(429,387,q),
(429,409,o),
(399,437,o),
(362,437,q),
(337,437,o),
(288,409,o),
(247,367,o),
(232,346,q),
(228,346,o),
(228,356,q),
(228,366,o),
(230,399,o),
(231,431,o),
(231,436,q),
(231,448,o),
(221,448,q),
(217,448,o),
(201,440,o),
(196,437,q),
(166,423,o),
(85,398,o),
(52,390,q),
(39,387,o),
(39,372,q),
(39,362,o),
(48,355,o),
(53,353,q),
(70,348,o),
(80,324,o),
(80,304,q),
(80,71,l),
(80,55,o),
(66,40,o),
(43,33,q),
(33,30,o),
(20,20,o),
(20,12,q),
(20,5,o),
(33,-3,o),
(40,-3,q),
(60,-3,o)
);
}
);
width = 432;
}
);
note = r;
unicode = 114;
}
{
glyphname = s;
kernLeft = s;
kernRight = s;
layers = (
{
layerId = m01;
shapes = (
{
closed = 1;
nodes = (
(291,54,o),
(291,108,qs),
(291,155,o),
(234,212,o),
(176,245,qs),
(136,268,o),
(107,304,o),
(107,327,qs),
(107,356,o),
(146,386,o),
(171,386,qs),
(200,386,o),
(239,351,o),
(252,318,qs),
(254,314,o),
(265,309,o),
(271,309,qs),
(281,309,o),
(281,316,qs),
(281,337,o),
(270,384,o),
(262,395,q),
(252,402,o),
(212,414,o),
(182,414,qs),
(137,414,o),
(77,383,o),
(47,331,o),
(47,299,qs),
(47,274,o),
(66,234,o),
(108,196,o),
(142,175,qs),
(187,147,o),
(223,108,o),
(223,81,qs),
(223,52,o),
(182,13,o),
(153,13,qs),
(124,13,o),
(67,55,o),
(54,104,qs),
(53,108,o),
(46,111,o),
(42,111,qs),
(29,111,o),
(29,102,qs),
(30,85,o),
(35,33,o),
(40,22,q),
(59,5,o),
(113,-14,o),
(144,-14,qs),
(209,-14,o)
);
}
);
width = 323;
},
{
layerId = "9ED1D18C-5CBC-4B18-9EF9-8B0496956F76";
shapes = (
{
closed = 1;
nodes = (
(342,60,o),
(342,127,q),
(342,181,o),
(286,245,o),
(220,279,q),
(193,293,o),
(152,326,o),
(152,346,q),
(152,369,o),
(187,397,o),
(209,397,q),
(233,397,o),
(274,357,o),
(287,317,q),
(289,312,o),
(305,301,o),
(312,301,q),
(332,301,o),
(332,312,q),
(332,348,o),
(323,405,o),
(315,415,q),
(304,422,o),
(245,437,o),
(211,437,q),
(166,437,o),
(90,404,o),
(45,345,o),
(45,304,q),
(45,264,o),
(81,208,o),
(135,171,o),
(163,157,q),
(188,145,o),
(230,111,o),
(230,85,q),
(230,66,o),
(205,34,o),
(179,34,q),
(142,34,o),
(94,97,o),
(74,137,q),
(72,142,o),
(59,154,o),
(50,154,q),
(29,154,o),
(29,141,q),
(28,102,o),
(36,35,o),
(46,19,q),
(73,1,o),
(136,-14,o),
(170,-14,q),
(256,-14,o)
);
}
);
width = 368;
}
);
note = s;
unicode = 115;
}
{
glyphname = t;
kernLeft = t;
layers = (
{
layerId = m01;
shapes = (
{
closed = 1;
nodes = (
(273,12,o),
(306,42,o),
(306,47,qs),
(306,52,o),
(303,61,o),
(299,61,qs),
(297,61,o),
(295,59,q),
(282,50,o),
(250,41,o),
(221,41,qs),
(189,41,o),
(155,87,o),
(155,127,qs),
(155,324,ls),
(155,344,o),
(170,352,o),
(195,352,qs),
(294,352,ls),
(298,352,o),
(304,369,o),
(304,378,qs),
(304,387,o),
(298,400,o),
(294,400,qs),
(180,400,ls),
(167,400,o),
(155,408,o),
(156,419,qs),
(161,464,ls),
(162,471,o),
(153,475,o),
(148,475,qs),
(143,475,o),
(136,468,o),
(131,463,qs),
(122,452,o),
(95,425,o),
(62,397,o),
(42,383,qs),
(41,382,o),
(35,374,o),
(35,372,qs),
(35,365,o),
(42,352,o),
(47,352,qs),
(53,352,ls),
(73,352,o),
(85,345,o),
(85,337,qs),
(85,105,ls),
(85,46,o),
(140,-14,o),
(189,-14,qs),
(220,-14,o)
);
}
);
width = 314;
},
{
layerId = "9ED1D18C-5CBC-4B18-9EF9-8B0496956F76";
shapes = (
{
closed = 1;
nodes = (
(336,14,o),
(380,47,o),
(380,53,q),
(380,62,o),
(374,75,o),
(369,75,q),
(366,75,o),
(362,73,q),
(351,69,o),
(325,57,o),
(297,57,q),
(268,57,o),
(233,102,o),
(233,149,q),
(233,336,l),
(233,349,o),
(251,361,o),
(273,361,q),
(365,361,l),
(370,361,o),
(378,388,o),
(378,404,q),
(378,409,o),
(372,423,o),
(370,423,q),
(250,423,l),
(238,423,o),
(224,432,o),
(225,445,q),
(232,507,l),
(234,521,o),
(226,529,o),
(216,529,q),
(208,529,o),
(197,521,o),
(189,515,q),
(172,501,o),
(116,456,o),
(56,416,o),
(31,408,q),
(27,407,o),
(25,401,o),
(25,399,q),
(25,389,o),
(35,364,o),
(42,364,q),
(57,364,l),
(74,363,o),
(88,355,o),
(88,346,q),
(88,116,l),
(88,54,o),
(156,-14,o),
(226,-14,q),
(266,-14,o)
);
}
);
width = 388;
}
);
note = t;
unicode = 116;
}
{
glyphname = u;
layers = (
{
layerId = m01;
shapes = (
{
closed = 1;
nodes = (
(383,-14,o),
(386,-13,qs),
(408,-4,o),
(464,16,o),
(503,21,qs),
(509,22,o),
(517,27,o),
(517,35,qs),
(517,44,o),
(507,48,o),
(502,48,qs),
(495,48,o),
(464,45,o),
(456,45,qs),
(449,45,o),
(438,68,o),
(438,95,qs),
(438,326,ls),
(438,334,o),
(441,364,o),
(444,392,o),
(445,395,qs),
(446,398,o),
(447,403,o),
(447,404,qs),
(447,415,o),
(434,415,qs),
(432,415,o),
(426,414,o),
(424,413,q),
(406,408,o),
(373,401,o),
(332,398,o),
(301,397,qs),
(293,397,o),
(280,391,o),
(280,382,qs),
(280,372,o),
(292,365,o),
(301,365,qs),
(311,365,o),
(343,357,o),
(368,336,o),
(368,315,qs),
(368,132,ls),
(368,101,o),
(334,65,o),
(323,57,qs),
(304,43,o),
(265,37,o),
(239,37,qs),
(218,37,o),
(179,63,o),
(155,104,o),
(155,128,qs),
(155,323,ls),
(155,346,o),
(158,377,o),
(161,400,qs),
(162,414,o),
(151,414,qs),
(149,414,o),
(146,414,o),
(143,413,qs),
(115,406,o),
(78,399,o),
(44,397,qs),
(38,396,o),
(29,390,o),
(29,381,qs),
(29,373,o),
(37,367,o),
(42,365,qs),
(65,356,o),
(85,330,o),
(85,308,qs),
(85,105,ls),
(85,66,o),
(115,13,o),
(167,-14,o),
(199,-14,qs),
(246,-14,o),
(325,19,o),
(364,57,q),
(364,56,o),
(364,53,o),
(364,51,qs),
(364,38,o),
(359,-1,o),
(359,-11,qs),
(359,-19,o),
(366,-19,qs),
(371,-19,o)
);
}
);
width = 527;
},
{
layerId = "9ED1D18C-5CBC-4B18-9EF9-8B0496956F76";
shapes = (
{
closed = 1;
nodes = (
(362,-17,o),
(369,-14,q),
(398,-3,o),
(480,23,o),
(530,27,q),
(541,28,o),
(548,40,o),
(548,50,q),
(548,58,o),
(538,69,o),
(528,69,q),
(525,69,o),
(508,70,o),
(504,70,q),
(497,70,o),
(486,84,o),
(486,106,q),
(486,338,l),
(486,347,o),
(489,377,o),
(492,404,o),
(493,408,q),
(495,413,o),
(497,421,o),
(497,425,q),
(497,437,o),
(482,437,q),
(479,437,o),
(471,435,o),
(468,434,q),
(449,430,o),
(409,424,o),
(345,419,o),
(290,415,q),
(280,415,o),
(265,405,o),
(265,394,q),
(265,382,o),
(278,372,o),
(290,371,q),
(307,370,o),
(330,355,o),
(341,331,o),
(341,314,q),
(341,158,l),
(341,133,o),
(332,103,o),
(327,98,q),
(314,85,o),
(285,76,o),
(271,76,q),
(255,77,o),
(229,96,o),
(215,131,o),
(215,155,q),
(215,346,l),
(215,369,o),
(219,400,o),
(223,423,q),
(224,437,o),
(210,437,q),
(204,437,o),
(191,434,o),
(186,432,q),
(149,423,o),
(74,409,o),
(30,407,q),
(23,406,o),
(15,396,o),
(15,389,q),
(15,380,o),
(25,371,o),
(31,370,q),
(54,366,o),
(70,337,o),
(70,314,q),
(70,130,l),
(70,90,o),
(99,24,o),
(149,-15,o),
(180,-15,q),
(226,-15,o),
(312,33,o),
(336,64,q),
(337,63,o),
(338,57,o),
(338,52,q),
(338,42,o),
(333,1,o),
(333,-11,q),
(333,-21,o),
(342,-21,q),
(348,-21,o)
);
}
);
width = 556;
}
);
note = u;
unicode = 117;
}
{
glyphname = v;
kernLeft = uni0263;
kernRight = uni0233;
layers = (
{
layerId = m01;
shapes = (
{
closed = 1;
nodes = (
(224,-16,o),
(234,5,o),
(242,24,o),
(242,24,q),
(242,24,o),
(252,51,o),
(266,88,o),
(278,119,o),
(280,123,qs),
(358,311,ls),
(369,336,o),
(405,374,o),
(420,378,qs),
(443,385,o),
(443,396,qs),
(443,402,o),
(431,405,o),
(423,405,qs),
(409,405,o),
(390,400,o),
(364,400,qs),
(338,400,o),
(302,405,o),
(291,405,qs),
(284,405,o),
(271,402,o),
(271,396,qs),
(271,389,o),
(281,383,o),
(294,378,qs),
(308,373,o),
(320,356,o),
(320,336,qs),
(320,328,o),
(316,305,o),
(312,295,qs),
(236,100,l),
(235,99,o),
(234,99,o),
(233,100,q),
(154,310,ls),
(152,316,o),
(150,330,o),
(150,337,qs),
(150,351,o),
(160,374,o),
(170,378,qs),
(179,381,o),
(193,389,o),
(193,396,qs),
(193,402,o),
(178,405,o),
(173,405,qs),
(154,405,o),
(134,403,o),
(116,400,o),
(98,400,qs),
(81,400,o),
(63,403,o),
(45,405,o),
(25,405,qs),
(20,405,o),
(5,402,o),
(5,396,qs),
(5,389,o),
(15,383,o),
(23,380,qs),
(38,376,o),
(67,347,o),
(74,329,qs),
(98,268,o),
(149,149,o),
(171,87,qs),
(177,71,o),
(189,34,o),
(196,17,qs),
(198,10,o),
(210,-21,o),
(214,-21,qs),
(220,-21,l)
);
}
);
width = 438;
},
{
layerId = "9ED1D18C-5CBC-4B18-9EF9-8B0496956F76";
shapes = (
{
closed = 1;
nodes = (
(279,-10,o),
(294,25,o),
(309,59,o),
(313,68,q),
(317,76,o),
(325,93,o),
(333,110,o),
(341,127,o),
(344,135,q),
(422,333,l),
(431,356,o),
(461,387,o),
(480,394,q),
(498,401,o),
(498,416,q),
(498,424,o),
(480,428,o),
(473,428,q),
(444,427,o),
(414,426,o),
(402,426,q),
(389,426,o),
(364,427,o),
(334,428,q),
(327,428,o),
(310,422,o),
(310,414,q),
(310,405,o),
(324,398,o),
(332,395,q),
(349,389,o),
(365,362,o),
(365,345,q),
(365,338,o),
(363,323,o),
(360,315,q),
(304,165,l),
(303,165,o),
(302,165,o),
(301,165,q),
(237,320,l),
(233,328,o),
(233,344,o),
(233,353,q),
(233,371,o),
(246,392,o),
(257,396,q),
(265,400,o),
(279,406,o),
(279,415,q),
(279,423,o),
(262,429,o),
(255,429,q),
(231,429,o),
(192,426,o),
(156,423,o),
(134,423,q),
(112,423,o),
(84,426,o),
(55,429,o),
(30,429,q),
(23,429,o),
(5,425,o),
(5,417,q),
(5,408,o),
(13,399,o),
(23,395,q),
(42,388,o),
(64,357,o),
(74,334,q),
(101,276,o),
(155,166,o),
(181,108,q),
(189,89,o),
(209,42,o),
(217,24,q),
(226,4,o),
(239,-21,o),
(246,-21,q),
(273,-21,l)
);
}
);
width = 493;
}
);
note = v;
unicode = 118;
}
{
glyphname = z;
kernLeft = uni01B6;
layers = (
{
layerId = m01;
shapes = (
{
closed = 1;
nodes = (
(98,0,o),
(119,0,qs),
(201,0,o),
(306,-5,o),
(328,-5,qs),
(341,-5,o),
(344,9,qs),
(346,15,o),
(355,49,o),
(366,88,o),
(374,119,o),
(374,122,qs),
(374,130,o),
(357,136,o),
(352,129,qs),
(337,107,o),
(309,68,o),
(297,56,qs),
(286,45,o),
(263,33,o),
(252,33,qs),
(134,33,ls),
(127,33,o),
(121,41,o),
(125,48,qs),
(320,343,ls),
(330,358,o),
(348,380,o),
(358,393,qs),
(360,395,o),
(358,401,o),
(354,405,o),
(351,405,qs),
(305,404,o),
(217,402,o),
(165,402,qs),
(158,402,o),
(138,401,o),
(127,401,qs),
(114,401,o),
(89,403,o),
(84,407,qs),
(73,416,o),
(69,416,qs),
(66,416,o),
(54,406,o),
(54,398,qs),
(54,386,o),
(47,348,o),
(38,313,o),
(35,304,qs),
(32,296,o),
(51,288,o),
(57,294,qs),
(62,301,o),
(73,316,o),
(84,332,o),
(95,346,o),
(101,352,qs),
(107,358,o),
(131,372,o),
(145,371,qs),
(244,368,ls),
(255,368,o),
(255,361,o),
(253,358,qs),
(226,315,o),
(178,240,o),
(133,173,o),
(87,106,o),
(62,70,qs),
(55,61,o),
(38,35,o),
(25,15,o),
(25,12,qs),
(25,8,o),
(35,-5,o),
(39,-5,qs),
(52,-5,o)
);
}
);
width = 377;
},
{
layerId = "9ED1D18C-5CBC-4B18-9EF9-8B0496956F76";
shapes = (
{
closed = 1;
nodes = (
(111,1,o),
(135,1,q),
(227,1,o),
(352,-5,o),
(377,-5,q),
(392,-5,o),
(397,11,q),
(403,31,o),
(415,74,o),
(424,115,o),
(430,147,o),
(430,154,q),
(430,166,o),
(400,173,o),
(392,159,q),
(373,125,o),
(355,93,o),
(339,76,q),
(326,62,o),
(302,53,o),
(287,53,q),
(236,53,l),
(222,53,o),
(217,61,o),
(221,68,q),
(381,329,l),
(393,346,o),
(412,371,o),
(424,385,q),
(428,391,o),
(424,412,o),
(413,429,o),
(404,429,q),
(353,427,o),
(235,425,o),
(188,425,q),
(181,425,o),
(158,424,o),
(146,424,q),
(130,424,o),
(102,427,o),
(97,431,q),
(87,441,o),
(77,441,q),
(68,441,o),
(53,425,o),
(53,414,q),
(53,393,o),
(42,334,o),
(30,282,o),
(27,271,q),
(26,262,o),
(54,254,o),
(60,261,q),
(63,264,o),
(81,291,o),
(104,323,o),
(124,351,o),
(128,355,q),
(139,366,o),
(159,373,o),
(173,373,q),
(218,373,l),
(231,373,o),
(231,365,o),
(229,361,q),
(199,312,o),
(158,245,o),
(123,190,o),
(86,133,o),
(62,94,q),
(56,84,o),
(36,57,o),
(20,32,o),
(20,25,q),
(20,15,o),
(41,-5,o),
(45,-5,q),
(59,-5,o)
);
}
);
width = 450;
}
);
note = z;
unicode = 122;
}
{
glyphname = braceleft;
layers = (
{
layerId = m01;
shapes = (
{
closed = 1;
nodes = (
(353,-144,o),
(353,-137,qs),
(353,-129,o),
(335,-126,o),
(327,-125,qs),
(295,-122,o),
(251,-103,o),
(228,-62,o),
(228,-26,qs),
(228,8,o),
(235,65,o),
(241,118,o),
(241,147,qs),
(241,172,o),
(215,216,o),
(176,252,o),
(137,276,o),
(125,279,q),
(123,280,o),
(120,282,o),
(123,283,qs),
(144,292,o),
(200,328,o),
(241,381,o),
(241,414,qs),
(241,443,o),
(235,496,o),
(228,553,o),
(228,587,qs),
(228,624,o),
(252,664,o),
(298,682,o),
(330,686,qs),
(338,687,o),
(356,692,o),
(356,700,qs),
(356,707,o),
(345,715,o),
(338,715,qs),
(291,713,o),
(201,686,o),
(143,629,o),
(143,582,qs),
(143,530,o),
(156,451,o),
(156,404,qs),
(156,375,o),
(136,334,o),
(98,308,o),
(71,301,qs),
(60,298,o),
(50,287,o),
(50,282,qs),
(50,276,o),
(62,267,o),
(69,265,qs),
(91,260,o),
(130,231,o),
(156,186,o),
(156,157,qs),
(156,111,o),
(143,32,o),
(143,-21,qs),
(143,-68,o),
(200,-123,o),
(288,-149,o),
(335,-152,qs),
(342,-153,o)
);
}
);
width = 376;
},
{
layerId = "9ED1D18C-5CBC-4B18-9EF9-8B0496956F76";
shapes = (
{
closed = 1;
nodes = (
(361,-147,o),
(361,-137,q),
(361,-126,o),
(339,-117,o),
(327,-115,q),
(297,-110,o),
(268,-92,o),
(258,-56,o),
(258,-24,q),
(258,-7,o),
(272,49,o),
(285,109,o),
(285,130,q),
(285,155,o),
(266,198,o),
(228,235,o),
(171,266,o),
(133,279,q),
(131,280,o),
(127,282,o),
(131,283,q),
(168,291,o),
(236,330,o),
(281,389,o),
(281,424,q),
(281,446,o),
(269,505,o),
(257,562,o),
(257,578,q),
(257,604,o),
(262,638,o),
(289,663,o),
(323,673,q),
(335,677,o),
(362,686,o),
(362,696,q),
(362,707,o),
(350,714,o),
(333,714,q),
(278,714,o),
(179,676,o),
(120,606,o),
(124,559,q),
(127,522,o),
(146,447,o),
(146,406,q),
(146,371,o),
(127,334,o),
(96,315,o),
(77,306,q),
(68,302,o),
(45,292,o),
(45,280,q),
(45,268,o),
(66,262,o),
(77,257,q),
(110,244,o),
(142,218,o),
(151,183,o),
(151,157,q),
(151,116,o),
(129,19,o),
(126,-19,q),
(122,-66,o),
(178,-125,o),
(277,-152,o),
(335,-152,q),
(346,-152,o)
);
}
);
width = 372;
}
);
note = braceleft;
unicode = 123;
}
{
glyphname = braceright;
kernLeft = parenright;
layers = (
{
layerId = m01;
shapes = (
{
closed = 1;
nodes = (
(176,-123,o),
(233,-68,o),
(233,-21,qs),
(233,32,o),
(220,111,o),
(220,157,qs),
(220,186,o),
(246,231,o),
(286,260,o),
(307,265,qs),
(314,267,o),
(326,276,o),
(326,282,qs),
(326,287,o),
(316,298,o),
(305,301,qs),
(279,308,o),
(240,334,o),
(220,375,o),
(220,404,qs),
(220,451,o),
(233,530,o),
(233,582,qs),
(233,629,o),
(175,686,o),
(85,713,o),
(38,715,qs),
(31,715,o),
(20,707,o),
(20,700,qs),
(20,692,o),
(38,687,o),
(46,686,qs),
(78,682,o),
(124,664,o),
(148,624,o),
(148,587,qs),
(148,553,o),
(142,496,o),
(135,443,o),
(135,414,qs),
(135,381,o),
(177,328,o),
(232,292,o),
(253,283,qs),
(256,282,o),
(253,280,o),
(251,279,q),
(239,276,o),
(200,252,o),
(161,216,o),
(135,172,o),
(135,147,qs),
(135,118,o),
(142,65,o),
(148,8,o),
(148,-26,qs),
(148,-62,o),
(125,-103,o),
(81,-122,o),
(49,-125,qs),
(41,-126,o),
(23,-129,o),
(23,-137,qs),
(23,-144,o),
(34,-153,o),
(41,-152,qs),
(88,-149,o)
);
}
);
width = 376;
},
{
layerId = "9ED1D18C-5CBC-4B18-9EF9-8B0496956F76";
shapes = (
{
closed = 1;
nodes = (
(194,-125,o),
(250,-66,o),
(246,-19,q),
(243,19,o),
(221,116,o),
(221,157,q),
(221,183,o),
(231,218,o),
(262,244,o),
(295,257,q),
(306,262,o),
(327,268,o),
(327,280,q),
(327,292,o),
(304,302,o),
(295,306,q),
(277,315,o),
(245,334,o),
(226,371,o),
(226,406,q),
(226,447,o),
(245,522,o),
(248,559,q),
(252,606,o),
(193,676,o),
(94,714,o),
(39,714,q),
(23,714,o),
(10,707,o),
(10,696,q),
(10,686,o),
(37,677,o),
(49,673,q),
(83,663,o),
(110,638,o),
(115,604,o),
(115,578,q),
(115,562,o),
(103,505,o),
(91,446,o),
(91,424,q),
(91,389,o),
(136,330,o),
(205,291,o),
(241,283,q),
(245,282,o),
(241,280,o),
(239,279,q),
(201,266,o),
(144,235,o),
(106,198,o),
(87,155,o),
(87,130,q),
(87,109,o),
(101,49,o),
(114,-7,o),
(114,-24,q),
(114,-56,o),
(105,-92,o),
(75,-110,o),
(45,-115,q),
(33,-117,o),
(11,-126,o),
(11,-137,q),
(11,-147,o),
(27,-152,o),
(37,-152,q),
(96,-152,o)
);
}
);
width = 372;
}
);
note = braceright;
unicode = 125;
}
{
glyphname = exclamdown;
layers = (
{
layerId = m01;
shapes = (
{
closed = 1;
nodes = (
(107,258,o),
(105,236,qs),
(101,193,o),
(91,92,o),
(84,-8,o),
(79,-90,o),
(79,-114,qs),
(79,-136,o),
(106,-169,o),
(126,-169,qs),
(146,-169,o),
(171,-136,o),
(171,-114,qs),
(171,-90,o),
(165,-8,o),
(156,92,o),
(146,194,o),
(141,236,qs),
(140,253,o),
(131,275,o),
(123,275,qs),
(116,275,o)
);
},
{
closed = 1;
nodes = (
(65,459,o),
(65,434,qs),
(65,409,o),
(100,374,o),
(125,374,qs),
(150,374,o),
(185,409,o),
(185,434,qs),
(185,459,o),
(150,494,o),
(125,494,qs),
(100,494,o)
);
}
);
width = 250;
},
{
layerId = "9ED1D18C-5CBC-4B18-9EF9-8B0496956F76";
shapes = (
{
closed = 1;
nodes = (
(119,284,o),
(114,255,q),
(105,197,o),
(89,103,o),
(78,24,o),
(72,-43,o),
(71,-75,q),
(70,-111,o),
(117,-169,o),
(152,-169,q),
(187,-169,o),
(229,-114,o),
(229,-77,q),
(229,-45,o),
(220,24,o),
(206,103,o),
(188,198,o),
(179,255,q),
(175,278,o),
(160,308,o),
(147,308,q),
(134,308,o)
);
},
{
closed = 1;
nodes = (
(70,450,o),
(70,419,q),
(70,388,o),
(114,344,o),
(145,344,q),
(176,344,o),
(220,388,o),
(220,419,q),
(220,450,o),
(176,494,o),
(145,494,q),
(114,494,o)
);
}
);
width = 299;
}
);
note = exclamdown;
unicode = 161;
}
{
glyphname = cent;
layers = (
{
layerId = m01;
shapes = (
{
closed = 1;
nodes = (
(220,-5,o),
(221,2,qs),
(228,76,l),
(282,78,o),
(358,121,o),
(386,167,q),
(387,168,o),
(387,170,o),
(387,171,qs),
(387,183,o),
(374,183,qs),
(368,183,o),
(365,178,qs),
(346,150,o),
(282,135,o),
(250,135,qs),
(246,135,o),
(239,135,o),
(235,136,q),
(269,469,l),
(289,464,o),
(316,438,o),
(326,419,qs),
(331,409,o),
(347,409,qs),
(358,409,o),
(384,433,o),
(384,443,qs),
(384,450,o),
(380,455,qs),
(360,480,o),
(302,502,o),
(273,503,q),
(277,562,ls),
(278,568,o),
(270,579,o),
(264,579,qs),
(256,579,o),
(243,570,o),
(242,562,qs),
(238,502,l),
(179,497,o),
(87,433,o),
(35,335,o),
(35,278,qs),
(35,229,o),
(79,143,o),
(152,86,o),
(194,78,q),
(186,2,ls),
(185,-5,o),
(195,-13,o),
(202,-13,qs),
(209,-13,o)
);
},
{
closed = 1;
nodes = (
(102,247,o),
(102,312,qs),
(102,350,o),
(134,424,o),
(193,474,o),
(233,474,qs),
(235,474,l),
(200,143,l),
(157,160,o)
);
}
);
width = 422;
},
{
layerId = "9ED1D18C-5CBC-4B18-9EF9-8B0496956F76";
shapes = (
{
closed = 1;
nodes = (
(229,-94,o),
(231,-85,q),
(237,-14,l),
(313,-9,o),
(396,76,o),
(415,134,q),
(417,141,o),
(421,156,o),
(421,161,q),
(421,177,o),
(408,177,q),
(399,177,o),
(393,167,q),
(380,144,o),
(316,116,o),
(278,116,q),
(271,116,o),
(257,117,o),
(250,118,q),
(276,369,l),
(287,363,o),
(309,341,o),
(323,323,q),
(337,306,o),
(359,306,q),
(382,305,o),
(420,336,o),
(420,360,q),
(420,369,o),
(411,378,q),
(384,405,o),
(315,433,o),
(282,436,q),
(289,498,l),
(290,506,o),
(280,520,o),
(272,520,q),
(262,520,o),
(244,509,o),
(243,498,q),
(236,436,l),
(173,430,o),
(76,364,o),
(21,263,o),
(21,205,q),
(21,144,o),
(68,52,o),
(146,-3,o),
(191,-11,q),
(185,-85,l),
(184,-94,o),
(197,-105,o),
(206,-105,q),
(214,-105,o)
);
},
{
closed = 1;
nodes = (
(142,207,o),
(142,253,q),
(142,292,o),
(159,349,o),
(198,380,o),
(230,380,q),
(231,380,l),
(206,132,l),
(177,148,o)
);
}
);
width = 437;
}
);
note = cent;
unicode = 162;
}
{
glyphname = currency;
layers = (
{
layerId = m01;
shapes = (
{
closed = 1;
nodes = (
(78,60,qs),
(135,116,l),
(159,97,o),
(219,75,o),
(253,75,qs),
(321,75,o),
(371,116,q),
(427,60,ls),
(430,57,o),
(435,57,qs),
(445,57,o),
(466,78,o),
(466,88,qs),
(466,92,o),
(463,95,qs),
(406,152,l),
(425,177,o),
(445,237,o),
(445,270,qs),
(445,303,o),
(425,363,o),
(406,388,q),
(461,443,ls),
(465,447,o),
(465,453,qs),
(465,464,o),
(444,483,o),
(435,483,qs),
(430,483,o),
(427,480,qs),
(371,424,l),
(347,444,o),
(287,465,o),
(253,465,qs),
(219,465,o),
(159,443,o),
(134,424,q),
(79,479,ls),
(76,482,o),
(71,482,qs),
(61,482,o),
(40,461,o),
(40,451,qs),
(40,447,o),
(43,444,qs),
(100,387,l),
(81,363,o),
(61,303,o),
(61,270,qs),
(61,237,o),
(81,177,o),
(100,152,q),
(43,95,ls),
(40,92,o),
(40,87,qs),
(40,77,o),
(60,57,o),
(70,57,qs),
(75,57,o)
);
},
{
closed = 1;
nodes = (
(149,165,o),
(111,231,o),
(111,270,qs),
(111,310,o),
(149,375,o),
(214,415,o),
(253,415,qs),
(293,415,o),
(357,375,o),
(395,310,o),
(395,270,qs),
(395,231,o),
(357,165,o),
(293,125,o),
(253,125,qs),
(214,125,o)
);
}
);
width = 506;
},
{
layerId = "9ED1D18C-5CBC-4B18-9EF9-8B0496956F76";
shapes = (
{
closed = 1;
nodes = (
(73,46,q),
(128,100,l),
(156,78,o),
(224,54,o),
(261,54,q),
(332,54,o),
(387,95,q),
(437,46,l),
(441,42,o),
(446,42,q),
(458.581,42,o),
(485,68,o),
(485,80.941,q),
(485,86.118,o),
(482,90,q),
(431,140,l),
(450.974,166.483,o),
(472,230.042,o),
(472,265,q),
(472,301.194,o),
(449,367,o),
(429,393,q),
(482,445,l),
(485,450,o),
(485,454,q),
(485,467,o),
(459,493,o),
(446,493,q),
(441,493,o),
(437,489,q),
(384,437,l),
(358,456,o),
(296.085,477,o),
(261,477,q),
(223.857,477,o),
(158.311,452.854,o),
(131,432,q),
(73,489,l),
(70,493,o),
(63.75,493,q),
(51.25,493,o),
(25,466,o),
(25,455,q),
(25,449.857,o),
(29,446,q),
(88,388,l),
(70,362,o),
(49,300,o),
(49,265,q),
(49,231.645,o),
(69,171,o),
(86,146,q),
(29,89,l),
(25,85,o),
(25,79.667,q),
(25,69,o),
(51,42,o),
(64,42,q),
(70,43,o)
);
},
{
closed = 1;
nodes = (
(148,154.966,o),
(110,224,o),
(110,264.696,q),
(110,306.435,o),
(150.317,374.261,o),
(219.28,416,o),
(260.659,416,q),
(303.098,416,o),
(371,376,o),
(411,307,o),
(411,265.069,q),
(411,224.186,o),
(371,155,o),
(302.688,113.519,o),
(259.993,113.519,q),
(213,113.126,o)
);
}
);
width = 510;
}
);
note = currency;
unicode = 164;
}
{
glyphname = yen;
layers = (
{
layerId = m01;
shapes = (
{
closed = 1;
nodes = (
(248,-2,o),
(285,0,o),
(310,0,qs),
(333,0,o),
(365,-2,o),
(400,-5,o),
(427,-5,qs),
(440,-5,o),
(456,0,o),
(456,6,qs),
(456,13,o),
(440,21,o),
(423,24,qs),
(386,31,o),
(345,74,o),
(345,108,qs),
(345,197,l),
(453,197,ls),
(464,197,o),
(484,214,o),
(484,221,qs),
(484,227,o),
(476,232,o),
(471,232,qs),
(345,232,l),
(345,280,l),
(454,280,ls),
(465,280,o),
(485,297,o),
(485,304,qs),
(485,309,o),
(477,315,o),
(472,315,qs),
(350,315,l),
(352,321,o),
(362,337,o),
(368,346,q),
(368,346,o),
(387,379,o),
(420,432,o),
(460,495,o),
(480,526,qs),
(491,542,o),
(524,584,o),
(563,619,o),
(580,622,qs),
(597,626,o),
(613,635,o),
(613,642,qs),
(613,648,o),
(597,653,o),
(584,653,qs),
(567,653,o),
(516,650,o),
(488,650,qs),
(466,650,o),
(436,651,o),
(413,651,qs),
(400,651,o),
(384,646,o),
(384,640,qs),
(384,633,o),
(407,623,o),
(417,620,qs),
(431,616,o),
(447,587,o),
(447,568,qs),
(447,549,o),
(440,534,qs),
(430,513,o),
(402,464,o),
(375,422,o),
(357,395,o),
(357,395,q),
(346,376,o),
(332,356,o),
(326,356,qs),
(319,356,o),
(296,395,qs),
(203,560,ls),
(198,568,o),
(194,582,o),
(194,588,qs),
(194,603,o),
(214,618,o),
(222,621,qs),
(239,626,o),
(255,634,o),
(255,641,qs),
(255,647,o),
(239,652,o),
(226,652,qs),
(210,652,o),
(169,650,o),
(146,650,qs),
(112,650,o),
(52,653,o),
(29,653,qs),
(16,653,o),
(0,648,o),
(0,642,qs),
(0,635,o),
(17,625,o),
(33,620,qs),
(49,616,o),
(82,580,o),
(112,537,o),
(122,522,qs),
(255,315,l),
(149,315,ls),
(139,315,o),
(125,299,o),
(125,292,qs),
(125,288,o),
(134,280,o),
(139,280,qs),
(263,280,l),
(264,275,o),
(265,263,o),
(265,256,qs),
(265,232,l),
(149,232,ls),
(139,232,o),
(125,216,o),
(125,209,qs),
(125,205,o),
(134,197,o),
(139,197,qs),
(265,197,l),
(264,108,ls),
(264,72,o),
(224,31,o),
(186,24,qs),
(169,21,o),
(153,13,o),
(153,6,qs),
(153,0,o),
(169,-5,o),
(182,-5,qs),
(209,-5,o)
);
}
);
width = 570;
},
{
layerId = "9ED1D18C-5CBC-4B18-9EF9-8B0496956F76";
shapes = (
{
closed = 1;
nodes = (
(272,-1,o),
(325,3,o),
(345,3,q),
(365,3,o),
(422,-1,o),
(480,-5,o),
(501,-5,q),
(512,-5,o),
(527,5,o),
(527,12,q),
(527,22,o),
(509,30,o),
(498,33,q),
(459,44,o),
(432,73,o),
(432,111,q),
(432,180,l),
(513,180,l),
(529,180,o),
(557,206,o),
(558,213,q),
(559,218,o),
(549,231,o),
(541,231,q),
(432,232,l),
(432,272,l),
(513,272,l),
(529,272,o),
(557,298,o),
(558,305,q),
(559,310,o),
(549,323,o),
(541,323,q),
(446,324,l),
(449,332,o),
(456,346,o),
(460,353,q),
(475,379,o),
(506,430,o),
(538,481,o),
(569,532,o),
(584,557,q),
(592,571,o),
(617,596,o),
(650,615,o),
(670,620,q),
(679,623,o),
(696,630,o),
(696,640,q),
(696,650,o),
(677,657,o),
(666,657,q),
(636,657,o),
(588,649,o),
(557,649,q),
(529,649,o),
(478,654,o),
(448,654,q),
(438,654,o),
(419,647,o),
(419,640,q),
(419,631,o),
(439,619,o),
(449,618,q),
(470,616,o),
(505,597,o),
(505,577,q),
(505,557,o),
(495,539,q),
(483,517,o),
(460,474,o),
(436,431,o),
(413,388,o),
(401,366,q),
(397,360,o),
(390,353,o),
(386,353,q),
(377,353,o),
(370,366,q),
(280,543,l),
(275,552,o),
(269,571,o),
(269,578,q),
(269,595,o),
(295,611,o),
(325,618,q),
(334,620,o),
(353,631,o),
(353,640,q),
(353,647,o),
(334,655,o),
(326,655,q),
(289,655,o),
(226,648,o),
(191,648,q),
(146,648,o),
(66,654,o),
(19,654,q),
(12,654,o),
(0,647,o),
(0,639,q),
(0,629,o),
(13,621,o),
(22,618,q),
(42,613,o),
(69,593,o),
(89,568,o),
(98,554,q),
(245,325,l),
(168,325,l),
(155,325,o),
(134,300,o),
(133,291,q),
(132,284,o),
(145,273,o),
(152,273,q),
(260,273,l),
(261,267,o),
(262,254,o),
(262,246,q),
(262,232,l),
(168,233,l),
(155,233,o),
(134,208,o),
(133,199,q),
(132,192,o),
(145,181,o),
(152,181,q),
(262,181,l),
(262,110,l),
(262,79,o),
(234,41,o),
(196,33,q),
(185,31,o),
(167,20,o),
(167,11,q),
(167,4,o),
(182,-6,o),
(195,-6,q),
(217,-6,o)
);
}
);
width = 671;
}
);
note = yen;
unicode = 165;
}
{
glyphname = brokenbar;
layers = (
{
layerId = m01;
shapes = (
{
closed = 1;
nodes = (
(131,-288,o),
(148,-283,o),
(160,-274,o),
(160,-266,qs),
(160,157,ls),
(160,165,o),
(151,179,o),
(146,179,qs),
(144,179,o),
(129,175,o),
(112,168,o),
(100,160,o),
(100,156,qs),
(100,-276,ls),
(100,-281,o),
(108,-290,o),
(112,-290,qs),
(115,-290,o)
);
},
{
closed = 1;
nodes = (
(131,280,o),
(148,286,o),
(160,293,o),
(160,297,qs),
(160,692,ls),
(160,697,o),
(151,705,o),
(146,705,qs),
(144,705,o),
(129,701,o),
(112,694,o),
(100,682,o),
(100,674,qs),
(100,299,ls),
(100,292,o),
(108,276,o),
(112,276,qs),
(115,276,o)
);
}
);
width = 260;
},
{
layerId = "9ED1D18C-5CBC-4B18-9EF9-8B0496956F76";
shapes = (
{
closed = 1;
nodes = (
(143,-287,o),
(177,-277,o),
(201,-258,o),
(201,-242,q),
(201,159,l),
(201,170,o),
(184,185,o),
(173,185,q),
(169,185,o),
(140,178,o),
(106,163,o),
(82,140,o),
(82,124,q),
(82,-262,l),
(82,-272,o),
(96,-290,o),
(106,-290,q),
(113,-290,o)
);
},
{
closed = 1;
nodes = (
(141,254,o),
(175,264,o),
(199,283,o),
(199,299,q),
(199,679,l),
(199,690,o),
(182,705,o),
(171,705,q),
(167,705,o),
(138,698,o),
(104,683,o),
(80,660,o),
(80,644,q),
(80,279,l),
(80,269,o),
(94,251,o),
(104,251,q),
(111,251,o)
);
}
);
width = 281;
}
);
note = brokenbar;
unicode = 166;
}
{
glyphname = section;
layers = (
{
layerId = m01;
shapes = (
{
closed = 1;
nodes = (
(166,-144,o),
(177,-137,qs),
(224,-109,o),
(300,-14,o),
(346,101,o),
(346,159,qs),
(346,203,o),
(329,277,o),
(283,348,o),
(241,385,qs),
(212,412,o),
(164,466,o),
(137,515,o),
(137,533,qs),
(137,557,o),
(168,596,o),
(198,596,qs),
(212,596,o),
(245,576,o),
(260,562,qs),
(266,556,o),
(273,556,qs),
(284,556,o),
(301,578,o),
(311,601,o),
(311,603,qs),
(311,609,o),
(304,617,o),
(299,621,qs),
(291,629,o),
(248,640,o),
(229,640,qs),
(194,640,o),
(136,601,o),
(98,542,o),
(90,513,q),
(71,490,o),
(41,439,o),
(24,374,o),
(24,329,qs),
(24,285,o),
(72,196,o),
(118,149,qs),
(144,122,o),
(197,67,o),
(232,13,o),
(232,-12,qs),
(232,-51,o),
(206,-94,o),
(180,-94,qs),
(163,-94,o),
(124,-81,o),
(111,-70,qs),
(107,-67,o),
(94,-60,o),
(89,-64,qs),
(72,-77,o),
(61,-109,o),
(61,-116,qs),
(61,-129,o),
(97,-148,o),
(123,-148,qs),
(137,-148,o)
);
},
{
closed = 1;
nodes = (
(235,129,o),
(184,183,o),
(163,204,qs),
(118,251,o),
(73,333,o),
(73,385,qs),
(73,405,o),
(79,438,o),
(84,458,qs),
(85,461,o),
(93,462,o),
(94,458,qs),
(102,435,o),
(145,380,o),
(196,327,o),
(217,305,qs),
(262,259,o),
(307,176,o),
(307,124,qs),
(307,104,o),
(301,71,o),
(296,51,qs),
(295,48,o),
(288,47,o),
(286,51,qs),
(278,74,o)
);
}
);
width = 400;
},
{
layerId = "9ED1D18C-5CBC-4B18-9EF9-8B0496956F76";
shapes = (
{
closed = 1;
nodes = (
(205,-141,o),
(221,-134,q),
(287,-108,o),
(377,-26,o),
(423,84,o),
(423,151,q),
(423,206,o),
(394,285,o),
(344,346,o),
(313,372,q),
(281,400,o),
(223,452,o),
(188,499,o),
(188,517,q),
(188,540,o),
(213,574,o),
(246,574,q),
(260,574,o),
(310,547,o),
(328,527,q),
(337,519,o),
(345,519,q),
(358,519,o),
(381,550,o),
(397,584,o),
(397,587,q),
(397,595,o),
(387,607,o),
(381,612,q),
(370,623,o),
(307,640,o),
(280,640,q),
(242,640,o),
(174,603,o),
(125,539,o),
(114,500,q),
(93,480,o),
(54,435,o),
(30,374,o),
(30,329,q),
(30,285,o),
(84,196,o),
(139,149,q),
(170,122,o),
(233,67,o),
(275,14,o),
(275,-12,q),
(275,-43,o),
(249,-78,o),
(224,-78,q),
(201,-78,o),
(148,-61,o),
(131,-46,q),
(126,-42,o),
(108,-34,o),
(100,-39,q),
(77,-55,o),
(63,-98,o),
(63,-106,q),
(63,-124,o),
(111,-148,o),
(148,-148,q),
(166,-148,o)
);
},
{
closed = 1;
nodes = (
(280,138,o),
(226,193,o),
(207,211,q),
(167,247,o),
(114,330,o),
(114,367,q),
(114,384,o),
(120,418,o),
(130,429,q),
(132,431,o),
(138,433,o),
(139,429,q),
(147,412,o),
(188,359,o),
(236,307,o),
(254,289,q),
(294,253,o),
(350,169,o),
(350,128,q),
(350,112,o),
(348,81,o),
(344,66,q),
(343,63,o),
(336,62,o),
(335,66,q),
(327,84,o)
);
}
);
width = 453;
}
);
note = section;
unicode = 167;
}
{
glyphname = copyright;
layers = (
{
layerId = m01;
shapes = (
{
closed = 1;
nodes = (
(518,71,o),
(602,155,o),
(649,264,o),
(649,327,qs),
(649,390,o),
(602,499,o),
(518,583,o),
(409,630,o),
(346,630,qs),
(283,630,o),
(174,583,o),
(90,499,o),
(43,390,o),
(43,327,qs),
(43,264,o),
(90,155,o),
(173,71,o),
(282,24,o),
(345,24,qs),
(408,24,o)
);
},
{
closed = 1;
nodes = (
(436,160,o),
(452,167,q),
(461,174,o),
(463,175,o),
(469,184,qs),
(474,193,o),
(484,220,o),
(484,227,qs),
(484,240,o),
(479,240,qs),
(476,240,o),
(466,233,o),
(462,225,qs),
(450,201,o),
(404,184,o),
(376,184,qs),
(337,184,o),
(285,227,o),
(258,295,o),
(258,331,qs),
(258,386,o),
(320,464,o),
(371,464,qs),
(388,464,o),
(417,456,o),
(428,448,qs),
(439,441,o),
(452,424,o),
(456,413,qs),
(458,407,o),
(464,398,o),
(468,398,qs),
(472,397,o),
(478,406,o),
(478,409,qs),
(479,419,o),
(479,456,o),
(476,468,qs),
(475,476,o),
(468,479,o),
(460,481,qs),
(443,486,o),
(398,494,o),
(380,494,qs),
(331,494,o),
(243,452,o),
(188,378,o),
(188,328,qs),
(188,284,o),
(234,204,o),
(312,154,o),
(359,154,qs),
(385,154,o)
);
},
{
closed = 1;
nodes = (
(195,100,o),
(123,175,o),
(83,272,o),
(83,327,qs),
(83,381,o),
(124,478,o),
(196,553,o),
(292,596,o),
(346,596,qs),
(400,596,o),
(496,553,o),
(568,478,o),
(609,381,o),
(609,327,qs),
(609,272,o),
(568,175,o),
(496,100,o),
(400,58,o),
(345,58,qs),
(290,58,o)
);
}
);
width = 665;
},
{
layerId = "9ED1D18C-5CBC-4B18-9EF9-8B0496956F76";
shapes = (
{
closed = 1;
nodes = (
(519,64,o),
(605,149,o),
(654,263,o),
(654,327,q),
(654,392,o),
(605,505,o),
(520,590,o),
(407,639,o),
(342,639,q),
(278,639,o),
(164,590,o),
(79,505,o),
(30,392,o),
(30,327,q),
(30,263,o),
(78,149,o),
(164,64,o),
(277,15,o),
(341,15,q),
(406,15,o)
);
},
{
closed = 1;
nodes = (
(448,154,o),
(468,164,q),
(474,167,o),
(482,168,o),
(484,175,q),
(489,197,o),
(495,226,o),
(495,247,q),
(495,264,o),
(481,267,q),
(475,269,o),
(462,263,o),
(458,254,q),
(444,218,o),
(402,188,o),
(366,188,q),
(330,188,o),
(289,223,o),
(271,287,o),
(271,331,q),
(271,382,o),
(316,457,o),
(366,457,q),
(392,457,o),
(424,440,o),
(434,429,q),
(442,420,o),
(449,401,o),
(453,390,q),
(455,382,o),
(466,374,o),
(472,374,q),
(480,373,o),
(492,385,o),
(492,395,q),
(492,415,o),
(491,448,o),
(488,472,q),
(487,479,o),
(481,486,o),
(475,488,q),
(455,499,o),
(398,512,o),
(370,512,q),
(299,512,o),
(202,458,o),
(152,371,o),
(152,321,q),
(152,266,o),
(205,182,o),
(297,134,o),
(355,134,q),
(391,134,o)
);
},
{
closed = 1;
nodes = (
(197,109,o),
(128,180,o),
(89,274,o),
(89,327,q),
(89,379,o),
(128,471,o),
(198,540,o),
(290,580,o),
(342,580,q),
(395,580,o),
(486,540,o),
(556,471,o),
(595,379,o),
(595,327,q),
(595,274,o),
(556,180,o),
(487,109,o),
(394,68,o),
(341,68,q),
(289,68,o)
);
}
);
width = 684;
}
);
note = copyright;
unicode = 169;
}
{
glyphname = ordfeminine;
layers = (
{
layerId = m01;
shapes = (
{
closed = 1;
nodes = (
(49,196,o),
(35,180,o),
(35,173,qs),
(35,169,o),
(44,161,o),
(49,161,qs),
(247,161,ls),
(258,161,o),
(273,172,o),
(278,182,q),
(278,183,o),
(279,184,o),
(279,185,qs),
(279,190,o),
(270,196,o),
(265,196,qs),
(59,196,ls)
);
},
{
closed = 1;
nodes = (
(169,290,o),
(180,299,q),
(184,299,l),
(186,295,o),
(208,268,o),
(233,268,qs),
(244,268,o),
(265,282,o),
(272,289,qs),
(277,294,o),
(282,302,o),
(282,303,qs),
(282,308,o),
(276,318,o),
(272,318,qs),
(270,318,o),
(266,316,o),
(264,314,q),
(261,313,o),
(255,308,o),
(248,308,qs),
(234,308,o),
(227,334,o),
(227,347,qs),
(230,471,ls),
(231,492,o),
(191,524,o),
(168,524,qs),
(151,524,o),
(114,510,o),
(81,491,o),
(71,482,qs),
(59,472,o),
(51,455,o),
(46,444,qs),
(44,439,o),
(47,433,o),
(50,434,qs),
(58,436,o),
(79,442,o),
(95,449,o),
(95,453,qs),
(95,459,o),
(95,473,o),
(97,478,qs),
(100,485,o),
(128,491,o),
(140,491,qs),
(158,491,o),
(177,470,o),
(177,455,qs),
(177,432,ls),
(177,420,o),
(172,413,o),
(159,408,qs),
(83,380,ls),
(59,371,o),
(46,346,o),
(46,327,qs),
(46,316,o),
(62,288,o),
(88,268,o),
(101,268,qs),
(132,268,o)
);
},
{
closed = 1;
nodes = (
(97,325,o),
(97,342,qs),
(97,353,o),
(125,380,o),
(162,390,qs),
(170,392,o),
(177,388,o),
(177,379,qs),
(176,350,ls),
(175,339,o),
(173,330,o),
(169,327,qs),
(162,321,o),
(142,308,o),
(129,308,qs),
(119,308,o)
);
}
);
width = 310;
},
{
layerId = "9ED1D18C-5CBC-4B18-9EF9-8B0496956F76";
shapes = (
{
closed = 1;
nodes = (
(46,206,o),
(27,183,o),
(27,175,q),
(27,170,o),
(38,159,o),
(45,159,q),
(275,159,l),
(289,159,o),
(308,174,o),
(315,186,q),
(315,188,o),
(316,189,o),
(316,190,q),
(316,197,o),
(304,206,o),
(298,206,q),
(58,206,l)
);
},
{
closed = 1;
nodes = (
(182,312,o),
(192,325,q),
(193,325,l),
(206,308,o),
(239,286,o),
(267,286,q),
(289,286,o),
(320,300,o),
(331,311,q),
(334,314,o),
(347,329,o),
(347,336,q),
(347,340,o),
(342,345,o),
(338,345,q),
(337,345,o),
(335,344,o),
(334,343,q),
(330,340,o),
(320,334,o),
(314,334,q),
(305,334,o),
(295,357,o),
(295,368,q),
(299,473,l),
(301,521,o),
(242,575,o),
(198,575,q),
(178,575,o),
(131,560,o),
(90,539,o),
(77,529,q),
(60,515,o),
(47,493,o),
(42,481,q),
(39,471,o),
(45,458,o),
(52,460,q),
(64,462,o),
(100,474,o),
(128,488,o),
(128,493,q),
(128,499,o),
(124,517,o),
(129,522,q),
(134,527,o),
(149,532,o),
(156,532,q),
(169,532,o),
(179,516,o),
(179,497,q),
(179,468,l),
(179,456,o),
(172,446,o),
(158,440,q),
(101,418,l),
(69,405,o),
(37,373,o),
(37,350,q),
(37,332,o),
(59,303,o),
(96,286,o),
(118,286,q),
(147,286,o)
);
},
{
closed = 1;
nodes = (
(142,346,o),
(142,365,q),
(142,387,o),
(151,404,o),
(166,411,q),
(171,413,o),
(177,410,o),
(177,405,q),
(175,348,l),
(175,347,o),
(174,344,o),
(172,342,q),
(170,341,o),
(165,338,o),
(162,338,q),
(155,338,o)
);
}
);
width = 359;
}
);
note = ordfeminine;
unicode = 170;
}
{
glyphname = logicalnot;
layers = (
{
layerId = m01;
shapes = (
{
closed = 1;
nodes = (
(530,46,o),
(550,57,o),
(550,67,qs),
(550,368,ls),
(550,373,o),
(542,382,o),
(537,382,qs),
(74,382,ls),
(64,382,o),
(53,362,o),
(50,339,o),
(50,334,qs),
(50,330,o),
(59,322,o),
(64,322,qs),
(476,322,ls),
(490,322,o),
(490,304,qs),
(490,57,ls),
(490,52,o),
(498,43,o),
(502,43,qs),
(507,43,o)
);
}
);
width = 600;
},
{
layerId = "9ED1D18C-5CBC-4B18-9EF9-8B0496956F76";
shapes = (
{
closed = 1;
nodes = (
(534,49,o),
(556,64,o),
(556,76,q),
(556,368,l),
(556,377,o),
(549,389,o),
(538,389,q),
(65,389,l),
(53,389,o),
(37,367,o),
(30,339,o),
(30,330,q),
(30,325,o),
(43,315,o),
(50,315,q),
(467,315,l),
(482,315,o),
(482,299,q),
(482,62,l),
(482,54,o),
(492,42,o),
(497,42,q),
(506,42,o)
);
}
);
width = 626;
}
);
note = logicalnot;
unicode = 172;
}
{
glyphname = registered;
layers = (
{
layerId = m01;
shapes = (
{
closed = 1;
nodes = (
(518,71,o),
(602,155,o),
(649,264,o),
(649,327,qs),
(649,390,o),
(602,499,o),
(518,583,o),
(409,630,o),
(346,630,qs),
(283,630,o),
(174,583,o),
(90,499,o),
(43,390,o),
(43,327,qs),
(43,264,o),
(90,155,o),
(173,71,o),
(282,24,o),
(345,24,qs),
(408,24,o)
);
},
{
closed = 1;
nodes = (
(195,100,o),
(123,175,o),
(83,272,o),
(83,327,qs),
(83,381,o),
(124,477,o),
(196,549,o),
(292,590,o),
(346,590,qs),
(400,590,o),
(496,549,o),
(568,477,o),
(609,381,o),
(609,327,qs),
(609,272,o),
(568,175,o),
(496,100,o),
(400,58,o),
(345,58,qs),
(290,58,o)
);
},
{
closed = 1;
nodes = (
(527,187,o),
(527,200,qs),
(527,206,o),
(514,204,o),
(511,204,qs),
(497,204,o),
(456,240,o),
(418,294,o),
(408,320,qs),
(406,325,o),
(401,335,o),
(408,337,qs),
(431,345,o),
(470,386,o),
(470,417,qs),
(470,457,o),
(405,498,o),
(366,496,qs),
(343,495,o),
(297,491,o),
(274,491,qs),
(261,491,o),
(235,495,o),
(222,496,qs),
(202,498,o),
(202,484,qs),
(202,473,o),
(221,468,qs),
(231,465,o),
(241,462,o),
(244,447,o),
(244,426,qs),
(244,231,ls),
(244,215,o),
(231,203,o),
(219,199,qs),
(212,197,o),
(200,189,o),
(200,183,qs),
(200,179,o),
(212,172,o),
(216,172,qs),
(232,172,o),
(248,174,o),
(263,176,o),
(277,176,qs),
(298,176,o),
(318,172,o),
(342,172,qs),
(347,172,o),
(358,179,o),
(358,183,qs),
(358,189,o),
(346,197,o),
(339,199,qs),
(327,203,o),
(305,215,o),
(305,231,qs),
(304,309,ls),
(304,314,o),
(314,320,o),
(320,320,qs),
(339,320,o),
(356,310,o),
(358,304,qs),
(364,288,o),
(390,243,o),
(425,201,o),
(464,173,o),
(483,173,qs),
(497,173,o)
);
},
{
closed = 1;
nodes = (
(304,353,o),
(304,367,qs),
(304,437,ls),
(304,451,o),
(320,467,o),
(342,467,qs),
(368,467,o),
(406,437,o),
(406,413,qs),
(406,384,o),
(360,347,o),
(331,347,qs),
(321,347,o)
);
}
);
width = 665;
},
{
layerId = "9ED1D18C-5CBC-4B18-9EF9-8B0496956F76";
shapes = (
{
closed = 1;
nodes = (
(522,64,o),
(608,149,o),
(657,263,o),
(657,327,q),
(657,392,o),
(608,505,o),
(523,590,o),
(410,639,o),
(345,639,q),
(281,639,o),
(167,590,o),
(82,505,o),
(33,392,o),
(33,327,q),
(33,263,o),
(81,149,o),
(167,64,o),
(280,15,o),
(344,15,q),
(409,15,o)
);
},
{
closed = 1;
nodes = (
(200,109,o),
(131,180,o),
(92,274,o),
(92,327,q),
(92,379,o),
(131,471,o),
(201,540,o),
(293,580,o),
(345,580,q),
(398,580,o),
(489,540,o),
(559,471,o),
(598,379,o),
(598,327,q),
(598,274,o),
(559,180,o),
(490,109,o),
(397,68,o),
(344,68,q),
(292,68,o)
);
},
{
closed = 1;
nodes = (
(537,189,o),
(537,202,q),
(537,207,o),
(533,211,o),
(530,211,q),
(517,211,o),
(473,233,o),
(427,284,o),
(409,327,q),
(408,329,o),
(408,333,o),
(410,334,q),
(433,345,o),
(471,379,o),
(471,413,q),
(471,454,o),
(405,493,o),
(341,493,q),
(311,493,o),
(286,489,o),
(267,489,q),
(247,489,o),
(218,493,o),
(192,493,q),
(182,493,o),
(182,486,q),
(182,476,o),
(193,475,q),
(205,472,o),
(218,464,o),
(224,452,o),
(224,441,q),
(224,227,l),
(224,212,o),
(210,200,o),
(190,195,q),
(185,194,o),
(178,188,o),
(178,182,q),
(178,178,o),
(186,169,o),
(189,169,q),
(201,169,o),
(229,171,o),
(257,172,o),
(267,172,q),
(283,172,o),
(339,169,o),
(355,169,q),
(360,169,o),
(366,177,o),
(366,182,q),
(366,189,o),
(359,194,o),
(354,195,q),
(332,200,o),
(313,212,o),
(313,227,q),
(313,309,l),
(313,314,o),
(316,318,o),
(319,318,q),
(323,318,o),
(330,313,o),
(332,308,q),
(345,280,o),
(379,230,o),
(417,192,o),
(454,170,o),
(469,170,q),
(505,170,o)
);
},
{
closed = 1;
nodes = (
(310,363,o),
(310,370,q),
(310,438,l),
(310,447,o),
(321,456,o),
(336,456,q),
(362,456,o),
(388,431,o),
(388,402,q),
(388,383,o),
(360,355,o),
(330,355,q),
(320,355,o)
);
}
);
width = 690;
}
);
note = registered;
unicode = 174;
}
{
glyphname = degree;
layers = (
{
layerId = m01;
shapes = (
{
closed = 1;
nodes = (
(231,438,o),
(265,496,o),
(265,528,qs),
(265,560,o),
(231,613,o),
(177,645,o),
(145,645,qs),
(114,645,o),
(59,612,o),
(25,558,o),
(25,526,qs),
(25,494,o),
(59,437,o),
(114,402,o),
(145,402,qs),
(177,402,o)
);
},
{
closed = 1;
nodes = (
(68,492,o),
(68,523,qs),
(68,556,o),
(114,602,o),
(145,602,qs),
(177,602,o),
(222,556,o),
(222,523,qs),
(222,492,o),
(177,444,o),
(145,444,qs),
(114,444,o)
);
}
);
width = 290;
},
{
layerId = "9ED1D18C-5CBC-4B18-9EF9-8B0496956F76";
shapes = (
{
closed = 1;
nodes = (
(295,421,o),
(334,492,o),
(334,531,q),
(334,571,o),
(295,636,o),
(227,675,o),
(181,675,q),
(135,675,o),
(64,636,o),
(25,571,o),
(25,531,q),
(25,492,o),
(64,421,o),
(135,376,o),
(181,376,q),
(227,376,o)
);
},
{
closed = 1;
nodes = (
(96,486,o),
(96,525,q),
(96,564,o),
(145,613,o),
(180,613,q),
(214,613,o),
(263,564,o),
(263,525,q),
(263,486,o),
(214,436,o),
(180,436,q),
(145,436,o)
);
}
);
width = 359;
}
);
note = degree;
unicode = 176;
}
{
glyphname = plusminus;
layers = (
{
layerId = m01;
shapes = (
{
closed = 1;
nodes = (
(320,132,o),
(320,145,qs),
(320,347,ls),
(320,351,o),
(324,351,qs),
(509,351,ls),
(521,351,o),
(541,380,o),
(541,390,qs),
(541,395,o),
(532,401,o),
(527,401,qs),
(324,401,ls),
(322,401,o),
(320,402,o),
(320,407,qs),
(320,598,ls),
(320,603,o),
(311,611,o),
(306,611,qs),
(303,611,o),
(286,603,o),
(270,590,o),
(270,580,qs),
(270,409,ls),
(270,405,o),
(268,401,o),
(263,401,qs),
(74,401,ls),
(61,401,o),
(50,370,o),
(50,363,qs),
(50,359,o),
(59,351,o),
(64,351,qs),
(266,351,ls),
(270,351,o),
(270,346,qs),
(270,135,ls),
(270,130,o),
(278,121,o),
(282,121,qs),
(289,121,o)
);
},
{
closed = 1;
nodes = (
(521,38,o),
(541,67,o),
(541,77,qs),
(541,82,o),
(532,88,o),
(527,88,qs),
(74,88,ls),
(65,88,o),
(55,73,o),
(50,55,o),
(50,50,qs),
(50,46,o),
(59,38,o),
(64,38,qs),
(509,38,ls)
);
}
);
width = 590;
},
{
layerId = "9ED1D18C-5CBC-4B18-9EF9-8B0496956F76";
shapes = (
{
closed = 1;
nodes = (
(330,139,o),
(330,155,q),
(330,344,l),
(330,357,o),
(343,357,q),
(536,357,l),
(550,357,o),
(570,387,o),
(570,400,q),
(570,408,o),
(556,416,o),
(547,416,q),
(343,416,l),
(336,416,o),
(330,423,o),
(330,430,q),
(330,611,l),
(330,620,o),
(322,634,o),
(314,634,q),
(306,634,o),
(285,625,o),
(271,610,o),
(271,600,q),
(271,430,l),
(271,423,o),
(267,416,o),
(257,416,q),
(59,416,l),
(43,416,o),
(30,381,o),
(30,370,q),
(30,366,o),
(40,357,o),
(47,357,q),
(258,357,l),
(271,357,o),
(271,344,q),
(271,143,l),
(271,136,o),
(280,126,o),
(284,126,q),
(295,126,o)
);
},
{
closed = 1;
nodes = (
(550,29,o),
(572,61,o),
(572,75,q),
(572,83,o),
(556,93,o),
(545,93,q),
(63,93,l),
(51,93,o),
(37,74,o),
(30,51,o),
(30,44,q),
(30,40,o),
(42,29,o),
(49,29,q),
(534,29,l)
);
}
);
width = 602;
}
);
note = plusminus;
unicode = 177;
}
{
glyphname = uni03BC.1;
kernLeft = alpha;
layers = (
{
layerId = m01;
shapes = (
{
closed = 1;
nodes = (
(185,-278,o),
(202,-264,o),
(202,-254,qs),
(202,-247,o),
(178,-231,o),
(146,-205,o),
(122,-163,o),
(121,-131,qs),
(121,-117,o),
(119,-73,o),
(118,-24,o),
(117,17,o),
(117,28,qs),
(117,62,o),
(124,62,qs),
(126,62,o),
(141,40,o),
(154,26,qs),
(163,16,o),
(187,-3,o),
(218,-15,o),
(237,-15,qs),
(256,-15,o),
(298,21,o),
(336,70,o),
(362,112,o),
(365,118,q),
(367,118,l),
(368,108,o),
(370,88,o),
(371,79,qs),
(379,35,o),
(418,-15,o),
(441,-15,qs),
(463,-15,o),
(504,11,o),
(532,63,o),
(532,100,qs),
(532,104,o),
(525,109,o),
(521,109,qs),
(517,109,o),
(497,92,o),
(467,75,o),
(448,75,qs),
(426,75,o),
(398,103,o),
(385,144,o),
(385,162,q),
(405,231,o),
(433,346,o),
(433,377,qs),
(433,383,o),
(412,401,o),
(382,415,o),
(366,415,qs),
(353,415,o),
(345,408,o),
(345,400,qs),
(345,360,o),
(340,264,o),
(331,178,o),
(323,152,q),
(293,96,o),
(244,53,o),
(205,53,qs),
(183,53,o),
(157,82,o),
(145,119,o),
(145,132,qs),
(145,147,o),
(154,217,o),
(167,300,o),
(176,370,o),
(176,386,qs),
(176,393,o),
(134,414,o),
(112,414,qs),
(96,414,o),
(85,407,o),
(85,396,qs),
(85,383,o),
(85,316,o),
(86,226,o),
(86,127,o),
(86,35,o),
(86,0,qs),
(86,-28,o),
(88,-101,o),
(91,-172,o),
(97,-225,o),
(100,-234,qs),
(106,-249,o),
(118,-272,o),
(137,-285,o),
(153,-285,qs),
(163,-285,o)
);
}
);
width = 537;
},
{
layerId = "9ED1D18C-5CBC-4B18-9EF9-8B0496956F76";
shapes = (
{
closed = 1;
nodes = (
(200,-256,o),
(230,-216,o),
(230,-200,q),
(230,-189,o),
(197,-165,o),
(155,-139,o),
(122,-110,o),
(122,-94,q),
(122,-81,o),
(120,-38,o),
(119,10,o),
(117,50,o),
(117,59,q),
(117,84,o),
(131,84,q),
(136,84,o),
(157,61,o),
(164,54,q),
(177,42,o),
(206,10,o),
(238,-13,o),
(254,-13,q),
(266,-13,o),
(302,27,o),
(337,80,o),
(362,126,o),
(365,132,q),
(368,131,l),
(367,123,o),
(366,107,o),
(367,99,q),
(371,54,o),
(415,-14,o),
(446,-15,q),
(471,-15,o),
(523,17,o),
(559,81,o),
(559,127,q),
(559,132,o),
(551,139,o),
(546,139,q),
(543,139,o),
(523,125,o),
(494,110,o),
(476,110,q),
(455,110,o),
(419,126,o),
(397,154,o),
(397,173,q),
(422,229,o),
(461,333,o),
(461,379,q),
(461,394,o),
(437,420,o),
(387,436,o),
(347,436,q),
(334,436,o),
(320,424,o),
(317,408,q),
(315,396,o),
(312,358,o),
(311,303,o),
(310,266,q),
(287,178,o),
(233,98,o),
(203,98,q),
(192,98,o),
(170,109,o),
(157,132,o),
(157,149,q),
(157,160,o),
(173,215,o),
(194,288,o),
(210,362,o),
(210,390,q),
(210,417,o),
(165,436,o),
(124,436,q),
(84,436,o),
(65,408,o),
(65,382,q),
(65,348,o),
(66,291,o),
(68,234,o),
(71,163,o),
(72,67,o),
(72,0,q),
(73,-28,o),
(73,-93,o),
(74,-153,o),
(74,-199,o),
(75,-208,q),
(77,-224,o),
(92,-260,o),
(119,-285,o),
(138,-285,q),
(157,-285,o)
);
}
);
width = 564;
}
);
note = uni03BC.1;
unicode = 181;
}
{
glyphname = paragraph;
layers = (
{
layerId = m01;
shapes = (
{
closed = 1;
nodes = (
(382,-253,o),
(425,-175,o),
(425,-112,qs),
(425,590,ls),
(425,597,o),
(436,608,o),
(443,608,qs),
(481,608,o),
(544,592,o),
(548,592,qs),
(554,592,o),
(562,615,o),
(562,622,qs),
(562,629,o),
(555,641,o),
(547,642,qs),
(540,643,o),
(494,646,o),
(435,648,o),
(407,648,qs),
(295,648,o),
(133,594,o),
(45,477,o),
(45,383,qs),
(45,315,o),
(97,216,o),
(187,151,o),
(306,119,o),
(373,119,qs),
(381,119,o),
(386,102,o),
(386,94,qs),
(386,-112,ls),
(386,-165,o),
(356,-228,o),
(311,-254,o),
(286,-254,qs),
(253,-254,o),
(200,-215,o),
(200,-186,qs),
(200,-160,o),
(224,-135,o),
(236,-135,qs),
(244,-135,o),
(256,-145,o),
(262,-150,qs),
(267,-155,o),
(281,-163,o),
(291,-163,qs),
(308,-163,o),
(334,-136,o),
(334,-114,qs),
(334,-91,o),
(302,-61,o),
(268,-61,qs),
(241,-61,o),
(190,-92,o),
(158,-145,o),
(158,-179,qs),
(158,-213,o),
(193,-262,o),
(250,-289,o),
(282,-289,qs),
(317,-289,o)
);
}
);
width = 595;
},
{
layerId = "9ED1D18C-5CBC-4B18-9EF9-8B0496956F76";
shapes = (
{
closed = 1;
nodes = (
(434,-268,o),
(464,-198,o),
(464,-168,q),
(464,559,l),
(464,569,o),
(476,586,o),
(485,586,q),
(529,586,o),
(599,570,o),
(604,570,q),
(611,570,o),
(620,599,o),
(620,609,q),
(620,619,o),
(611,637,o),
(603,639,q),
(594,641,o),
(544,645,o),
(478,648,o),
(446,648,q),
(314,648,o),
(118,593,o),
(10,462,o),
(10,349,q),
(10,282,o),
(73,173,o),
(183,95,o),
(321,54,o),
(396,54,q),
(406,54,o),
(412,34,o),
(412,26,q),
(412,-171,l),
(412,-207,o),
(384,-253,o),
(341,-275,o),
(319,-275,q),
(267,-275,o),
(219,-224,o),
(219,-196,q),
(219,-170,o),
(242,-142,o),
(254,-142,q),
(259,-142,o),
(273,-155,o),
(281,-163,q),
(290,-172,o),
(310,-187,o),
(323,-187,q),
(343,-187,o),
(374,-152,o),
(374,-125,q),
(374,-94,o),
(328,-66,o),
(296,-65,q),
(268,-64,o),
(208,-93,o),
(166,-147,o),
(166,-187,q),
(166,-224,o),
(204,-283,o),
(271,-317,o),
(314,-317,q),
(368,-317,o)
);
}
);
width = 635;
}
);
note = paragraph;
unicode = 182;
}
{
glyphname = ordmasculine;
layers = (
{
layerId = m01;
shapes = (
{
closed = 1;
nodes = (
(39,196,o),
(25,180,o),
(25,173,qs),
(25,169,o),
(34,161,o),
(39,161,qs),
(253,161,ls),
(264,161,o),
(279,172,o),
(284,182,q),
(284,183,o),
(285,184,o),
(285,185,qs),
(285,190,o),
(276,196,o),
(271,196,qs),
(49,196,ls)
);
},
{
closed = 1;
nodes = (
(253,307,o),
(284,369,o),
(284,404,qs),
(284,437,o),
(249,491,o),
(193,524,o),
(160,524,qs),
(123,524,o),
(62,487,o),
(25,425,o),
(25,388,qs),
(25,352,o),
(59,298,o),
(115,268,o),
(148,268,qs),
(193,268,o)
);
},
{
closed = 1;
nodes = (
(106,327,o),
(88,375,o),
(88,402,qs),
(88,425,o),
(100,467,o),
(127,493,o),
(149,493,qs),
(172,493,o),
(204,463,o),
(221,415,o),
(221,389,qs),
(221,365,o),
(209,323,o),
(182,297,o),
(160,297,qs),
(138,297,o)
);
}
);
width = 309;
},
{
layerId = "9ED1D18C-5CBC-4B18-9EF9-8B0496956F76";
shapes = (
{
closed = 1;
nodes = (
(33,206,o),
(14,183,o),
(14,175,q),
(14,170,o),
(25,159,o),
(32,159,q),
(278,159,l),
(292,159,o),
(311,174,o),
(318,186,q),
(318,188,o),
(319,189,o),
(319,190,q),
(319,197,o),
(307,206,o),
(301,206,q),
(45,206,l)
);
},
{
closed = 1;
nodes = (
(328,328,o),
(369,398,o),
(369,440,q),
(369,477,o),
(324,538,o),
(249,575,o),
(203,575,q),
(153,575,o),
(73,536,o),
(27,466,o),
(27,421,q),
(27,383,o),
(69,321,o),
(141,286,o),
(187,286,q),
(247,286,o)
);
},
{
closed = 1;
nodes = (
(165,358,o),
(153,409,o),
(153,437,q),
(153,459,o),
(158,504,o),
(176,535,o),
(194,535,q),
(209,535,o),
(230,502,o),
(241,452,o),
(241,425,q),
(241,402,o),
(235,356,o),
(218,326,o),
(200,326,q),
(187,326,o)
);
}
);
width = 331;
}
);
note = ordmasculine;
unicode = 186;
}
{
glyphname = questiondown;
layers = (
{
layerId = m01;
shapes = (
{
closed = 1;
nodes = (
(225,284,o),
(225,276,qs),
(224,252,o),
(214,211,o),
(193,197,qs),
(177,187,o),
(155,173,o),
(129,158,o),
(107,146,qs),
(92,138,o),
(65,99,o),
(65,62,qs),
(65,37,o),
(88,-32,o),
(130,-103,o),
(158,-131,qs),
(183,-156,o),
(241,-181,o),
(266,-181,qs),
(279,-181,o),
(306,-159,o),
(306,-145,qs),
(306,-131,o),
(294,-106,o),
(275,-89,o),
(264,-89,qs),
(257,-89,o),
(245,-90,o),
(240,-91,qs),
(235,-92,o),
(224,-93,o),
(217,-93,qs),
(166,-92,o),
(116,-27,o),
(116,22,qs),
(116,44,o),
(156,83,o),
(177,93,qs),
(224,117,o),
(278,158,o),
(278,183,qs),
(278,217,o),
(267,254,o),
(262,270,qs),
(259,282,o),
(245,299,o),
(240,299,qs),
(233,299,o)
);
},
{
closed = 1;
nodes = (
(166,459,o),
(166,434,qs),
(166,409,o),
(201,374,o),
(226,374,qs),
(251,374,o),
(286,409,o),
(286,434,qs),
(286,459,o),
(251,494,o),
(226,494,qs),
(201,494,o)
);
}
);
width = 376;
},
{
layerId = "9ED1D18C-5CBC-4B18-9EF9-8B0496956F76";
shapes = (
{
closed = 1;
nodes = (
(230,297,o),
(228,285,q),
(224,255,o),
(208,228,o),
(186,217,q),
(170,208,o),
(138,190,o),
(109,173,o),
(95,166,q),
(76,157,o),
(45,109,o),
(45,68,q),
(45,38,o),
(63,-22,o),
(96,-78,o),
(118,-102,q),
(152,-138,o),
(230,-181,o),
(273,-181,q),
(303,-181,o),
(348,-148,o),
(348,-129,q),
(348,-111,o),
(329,-68,o),
(300,-37,o),
(285,-37,q),
(275,-37,o),
(258,-41,o),
(250,-44,q),
(243,-47,o),
(219,-56,o),
(195,-56,q),
(169,-56,o),
(125,-31,o),
(125,-6,q),
(125,22,o),
(159,57,o),
(190,71,q),
(252,99,o),
(311,152,o),
(311,189,q),
(311,217,o),
(295,262,o),
(286,278,q),
(277,293,o),
(259,309,o),
(251,309,q),
(241,309,o)
);
},
{
closed = 1;
nodes = (
(180,450,o),
(180,419,q),
(180,388,o),
(224,344,o),
(255,344,q),
(286,344,o),
(330,388,o),
(330,419,q),
(330,450,o),
(286,494,o),
(255,494,q),
(224,494,o)
);
}
);
width = 399;
}
);
note = questiondown;
unicode = 191;
}
{
glyphname = AE;
kernLeft = AE;
kernRight = AE;
layers = (
{
layerId = m01;
shapes = (
{
closed = 1;
nodes = (
(116,1,o),
(150,1,qs),
(177,1,o),
(226,-1,o),
(239,-1,qs),
(252,-1,o),
(268,4,o),
(268,10,qs),
(268,21,o),
(235,30,qs),
(213,35,o),
(170,58,o),
(170,82,qs),
(170,96,o),
(179,112,qs),
(203,159,o),
(242,228,o),
(261,262,qs),
(266,272,o),
(280,285,o),
(291,285,qs),
(432,285,ls),
(447,285,o),
(454,275,o),
(454,267,qs),
(454,96,ls),
(454,62,o),
(418,31,o),
(381,24,qs),
(348,18,o),
(348,6,qs),
(348,0,o),
(364,-5,o),
(377,-5,qs),
(404,-5,o),
(438,-2,o),
(470,1,o),
(492,1,qs),
(535,1,o),
(615,-1,o),
(693,-3,o),
(773,-5,o),
(816,-5,qs),
(824,-5,o),
(829,6,o),
(830,12,qs),
(836,35,o),
(847,87,o),
(847,115,qs),
(847,124,o),
(834,126,qs),
(829,127,o),
(823,122,o),
(820,116,qs),
(814,103,o),
(792,64,o),
(778,53,qs),
(772,48,o),
(737,40,o),
(705,35,o),
(702,35,qs),
(598,35,ls),
(564,35,o),
(533,83,o),
(533,111,qs),
(533,269,ls),
(533,281,o),
(547,292,o),
(556,292,qs),
(585,292,o),
(628,292,o),
(659,290,qs),
(671,289,o),
(699,269,o),
(706,246,qs),
(708,241,o),
(719,223,o),
(729,223,qs),
(735,223,o),
(738,233,o),
(738,240,qs),
(737,262,o),
(735,296,o),
(735,313,qs),
(735,327,o),
(737,355,o),
(738,372,qs),
(739,379,o),
(729,388,o),
(725,388,qs),
(715,388,o),
(704,359,o),
(690,347,qs),
(681,339,o),
(660,330,o),
(646,329,qs),
(628,328,o),
(582,327,o),
(550,327,qs),
(543,327,o),
(533,341,o),
(533,349,qs),
(533,592,ls),
(533,606,o),
(560,618,o),
(568,618,qs),
(699,618,ls),
(718,618,o),
(752,607,o),
(766,591,qs),
(773,584,o),
(784,559,o),
(789,542,qs),
(791,537,o),
(795,532,o),
(800,532,qs),
(805,532,o),
(814,537,o),
(814,541,qs),
(813,567,o),
(807,616,o),
(802,644,qs),
(801,649,o),
(789,653,o),
(784,653,qs),
(765,653,o),
(695,651,o),
(608,650,o),
(516,648,o),
(475,648,qs),
(424,648,o),
(332,651,o),
(300,651,qs),
(290,651,o),
(290,639,qs),
(290,635,o),
(295,628,o),
(300,626,q),
(388,611,ls),
(398,610,o),
(409,600,o),
(405,594,qs),
(132,126,ls),
(111,90,o),
(54,36,o),
(28,28,qs),
(12,23,o),
(-5,13,o),
(-5,6,qs),
(-5,0,o),
(11,-5,o),
(24,-5,qs),
(49,-5,o)
);
},
{
closed = 1;
nodes = (
(298,330,o),
(298,333,qs),
(298,336,o),
(302,343,qs),
(438,581,ls),
(448,598,o),
(454,598,o),
(454,580,qs),
(454,343,ls),
(454,332,o),
(449,328,o),
(438,328,qs),
(314,328,ls),
(306,328,o)
);
}
);
width = 872;
},
{
layerId = "9ED1D18C-5CBC-4B18-9EF9-8B0496956F76";
shapes = (
{
closed = 1;
nodes = (
(106,1,o),
(135,1,q),
(165,1,o),
(226,-2,o),
(259,-2,q),
(270,-2,o),
(280,5,o),
(280,12,q),
(280,29,o),
(258,34,q),
(224,41,o),
(195,62,o),
(195,79,q),
(195,91,o),
(201,109,q),
(209,133,o),
(237,205,o),
(253,236,q),
(259,247,o),
(270,253,o),
(278,253,q),
(419,253,l),
(430,253,o),
(436,241,o),
(436,235,q),
(436,95,l),
(436,64,o),
(409,42,o),
(376,32,q),
(356,26,o),
(356,11,q),
(356,5,o),
(366,-5,o),
(375,-5,q),
(395,-5,o),
(447,-2,o),
(499,0,o),
(519,0,q),
(564,0,o),
(673,-1,o),
(774,-3,o),
(842,-4,o),
(847,-4,q),
(855,-4,o),
(869,1,o),
(871,8,q),
(882,46,o),
(903,133,o),
(903,160,q),
(903,175,o),
(888,175,q),
(882,175,o),
(876,166,o),
(872,158,q),
(860,130,o),
(832,82,o),
(812,66,q),
(803,60,o),
(782,50,o),
(758,45,o),
(744,45,q),
(655,45,l),
(630,45,o),
(606,68,o),
(606,96,q),
(606,285,l),
(606,296,o),
(617,308,o),
(628,308,q),
(651,308,o),
(699,308,o),
(722,308,q),
(741,308,o),
(764,274,o),
(773,242,q),
(776,232,o),
(790,218,o),
(797,218,q),
(802,218,o),
(809,231,o),
(807,246,q),
(805,269,o),
(803,309,o),
(803,329,q),
(803,349,o),
(806,390,o),
(808,412,q),
(809,423,o),
(801,435,o),
(796,435,q),
(790,435,o),
(779,426,o),
(775,417,q),
(766,393,o),
(743,354,o),
(717,354,q),
(696,354,o),
(653,354,o),
(632,354,q),
(620,354,o),
(606,365,o),
(606,378,q),
(606,563,l),
(606,585,o),
(638,609,o),
(663,609,q),
(726,609,l),
(749,609,o),
(781,598,o),
(791,587,q),
(806,573,o),
(825,527,o),
(838,495,q),
(842,486,o),
(854,478,o),
(859,478,q),
(864,478,o),
(872,488,o),
(872,498,q),
(872,525,o),
(862,596,o),
(855,633,q),
(853,645,o),
(837,654,o),
(829,654,q),
(824,654,o),
(761,653,o),
(668,651,o),
(564,650,o),
(519,650,q),
(489,650,o),
(408,655,o),
(375,655,q),
(355,655,o),
(355,639,q),
(355,633,o),
(364,621,o),
(376,618,q),
(397,612,l),
(403,611,o),
(404,604,o),
(402,599,q),
(104,98,l),
(92,78,o),
(46,43,o),
(17,34,q),
(8,31,o),
(-5,22,o),
(-5,12,q),
(-5,2,o),
(10,-5,o),
(21,-5,q),
(53,-5,o)
);
},
{
closed = 1;
nodes = (
(313,313,o),
(311,316,q),
(308,322,o),
(312,329,q),
(425,547,l),
(432,560,o),
(436,548,o),
(436,541,q),
(436,324,l),
(436,320,o),
(426,311,o),
(421,311,q),
(327,311,l),
(323,311,o)
);
}
);
width = 917;
}
);
note = AE;
unicode = 198;
}
{
glyphname = Igrave;
kernLeft = B;
kernRight = H;
layers = (
{
layerId = m01;
shapes = (
{
closed = 1;
nodes = (
(208,691,qs),
(208,698,o),
(203,706,qs),
(185,736,o),
(146,796,o),
(126,825,qs),
(117,838,o),
(99,838,qs),
(92,838,o),
(64,832,o),
(41,822,o),
(41,815,qs),
(41,808,o),
(54,796,qs),
(83,770,o),
(155,717,o),
(184,694,qs),
(191,689,o),
(200,685,o),
(202,685,qs),
(208,685,o)
);
},
{
closed = 1;
nodes = (
(114,-2,o),
(151,0,o),
(176,0,qs),
(199,0,o),
(231,-2,o),
(266,-5,o),
(293,-5,qs),
(306,-5,o),
(322,0,o),
(322,6,qs),
(322,13,o),
(306,21,o),
(289,24,qs),
(252,31,o),
(210,63,o),
(210,98,qs),
(210,550,ls),
(210,585,o),
(244,615,o),
(281,622,qs),
(298,625,o),
(314,635,o),
(314,642,qs),
(314,648,o),
(298,653,o),
(285,653,qs),
(258,653,o),
(226,651,o),
(198,650,o),
(176,650,qs),
(153,650,o),
(121,651,o),
(86,653,o),
(59,653,qs),
(46,653,o),
(30,648,o),
(30,642,qs),
(30,628,o),
(63,622,qs),
(101,615,o),
(130,585,o),
(130,550,qs),
(130,98,ls),
(130,63,o),
(90,31,o),
(52,24,qs),
(19,18,o),
(19,6,qs),
(19,0,o),
(35,-5,o),
(48,-5,qs),
(75,-5,o)
);
}
);
width = 340;
},
{
layerId = "9ED1D18C-5CBC-4B18-9EF9-8B0496956F76";
shapes = (
{
closed = 1;
nodes = (
(228,691,q),
(228,698,o),
(216,713,q),
(189,747,o),
(136,809,o),
(104,840,q),
(90,854,o),
(69,851,q),
(61,850,o),
(24,837,o),
(-7,819,o),
(-5,810,q),
(-2,799,o),
(15,788,q),
(56,763,o),
(148,713,o),
(188,689,q),
(197,684,o),
(212,680,o),
(215,681,q),
(228,684,o)
);
},
{
closed = 1;
nodes = (
(110,0,o),
(163,2,o),
(183,2,q),
(203,2,o),
(259,0,o),
(317,-2,o),
(338,-2,q),
(346,-2,o),
(354,6,o),
(354,13,q),
(354,23,o),
(344,31,o),
(335,34,q),
(296,45,o),
(270,70,o),
(270,98,q),
(270,550,l),
(270,580,o),
(294,606,o),
(335,618,q),
(344,621,o),
(354,629,o),
(354,639,q),
(354,647,o),
(346,654,o),
(338,654,q),
(317,654,o),
(259,652,o),
(203,650,o),
(183,650,q),
(163,650,o),
(110,653,o),
(55,655,o),
(33,655,q),
(27,655,o),
(15,647,o),
(15,640,q),
(15,623,o),
(34,618,q),
(74,609,o),
(100,583,o),
(100,551,q),
(100,97,l),
(100,66,o),
(72,42,o),
(34,34,q),
(15,29,o),
(15,12,q),
(15,5,o),
(27,-3,o),
(33,-3,q),
(55,-3,o)
);
}
);
width = 369;
}
);
note = Igrave;
unicode = 204;
}
{
glyphname = Eth;
kernLeft = B;
kernRight = D;
layers = (
{
layerId = m01;
shapes = (
{
closed = 1;
nodes = (
(370,317,o),
(385,329,o),
(390,339,q),
(390,340,o),
(391,341,o),
(391,342,qs),
(391,347,o),
(382,353,o),
(377,353,qs),
(70,353,ls),
(61,353,o),
(46,342,o),
(46,335,qs),
(46,331,o),
(53,317,o),
(60,317,qs),
(359,317,ls)
);
},
{
closed = 1;
nodes = (
(569,47,o),
(665,144,o),
(719,270,o),
(719,342,qs),
(719,408,o),
(676,523,o),
(586,610,o),
(442,659,o),
(340,659,qs),
(330,659,o),
(287,657,o),
(234,653,o),
(185,651,o),
(169,651,qs),
(145,651,o),
(115,652,o),
(84,653,o),
(58,653,qs),
(45,653,o),
(29,647,o),
(29,640,qs),
(29,632,o),
(45,625,o),
(62,622,qs),
(100,615,o),
(129,585,o),
(129,549,qs),
(129,99,ls),
(129,63,o),
(100,31,o),
(62,24,qs),
(45,21,o),
(29,16,o),
(29,8,qs),
(29,1,o),
(45,-5,o),
(58,-5,qs),
(85,-5,o),
(116,-2,o),
(143,0,o),
(163,0,qs),
(203,0,o),
(292,-3,o),
(361,-7,o),
(371,-7,qs),
(443,-7,o)
);
},
{
closed = 1;
nodes = (
(253,41,o),
(209,81,o),
(209,121,qs),
(209,567,ls),
(209,597,o),
(241,623,o),
(302,628,o),
(345,628,qs),
(396,628,o),
(496,587,o),
(576,510,o),
(624,397,o),
(624,325,qs),
(624,238,o),
(557,104,o),
(437,28,o),
(359,28,qs),
(322,28,o)
);
}
);
width = 754;
},
{
layerId = "9ED1D18C-5CBC-4B18-9EF9-8B0496956F76";
shapes = (
{
closed = 1;
nodes = (
(359,304,o),
(381,329,o),
(384,342,q),
(384,344,o),
(385,346,o),
(385,347,q),
(385,355,o),
(372,366,o),
(362,366,q),
(62,366,l),
(49,366,o),
(33,349,o),
(33,335,q),
(33,325,o),
(44,304,o),
(57,304,q),
(342,304,l)
);
},
{
closed = 1;
nodes = (
(607,50,o),
(698,146,o),
(744,269,o),
(744,335,q),
(744,407,o),
(688,526,o),
(590,612,o),
(464,659,o),
(394,659,q),
(374,659,o),
(314,656,o),
(251,653,o),
(198,650,o),
(183,650,q),
(163,650,o),
(110,653,o),
(55,655,o),
(33,655,q),
(27,655,o),
(15,647,o),
(15,640,q),
(15,631,o),
(25,620,o),
(34,618,q),
(74,609,o),
(100,583,o),
(100,551,q),
(100,97,l),
(100,66,o),
(72,42,o),
(34,34,q),
(25,32,o),
(15,21,o),
(15,12,q),
(15,5,o),
(27,-3,o),
(33,-3,q),
(55,-3,o),
(110,-1,o),
(163,0,o),
(183,0,q),
(196,0,o),
(262,-3,o),
(345,-7,o),
(385,-7,q),
(473,-7,o)
);
},
{
closed = 1;
nodes = (
(291,65,o),
(270,103,o),
(270,134,q),
(270,568,l),
(270,584,o),
(290,597,o),
(329,601,o),
(359,601,q),
(410,601,o),
(486,558,o),
(536,480,o),
(561,372,o),
(561,306,q),
(561,228,o),
(520,112,o),
(435,48,o),
(369,48,q),
(335,48,o)
);
}
);
width = 769;
}
);
note = Eth;
unicode = 208;
}
{
glyphname = Ograve;
kernLeft = C;
kernRight = D;
layers = (
{
layerId = m01;
shapes = (
{
closed = 1;
nodes = (
(429,691,qs),
(429,698,o),
(424,706,qs),
(406,736,o),
(367,796,o),
(347,825,qs),
(338,838,o),
(320,838,qs),
(313,838,o),
(285,832,o),
(262,822,o),
(262,815,qs),
(262,808,o),
(275,796,qs),
(304,770,o),
(376,717,o),
(405,694,qs),
(412,689,o),
(421,685,o),
(423,685,qs),
(429,685,o)
);
},
{
closed = 1;
nodes = (
(588,44,o),
(674,142,o),
(718,268,o),
(718,335,qs),
(718,409,o),
(664,530,o),
(572,617,o),
(452,664,o),
(386,664,qs),
(303,664,o),
(175,606,o),
(89,508,o),
(45,383,o),
(45,315,qs),
(45,241,o),
(99,120,o),
(191,33,o),
(311,-14,o),
(377,-14,qs),
(460,-14,o)
);
},
{
closed = 1;
nodes = (
(235,79,o),
(172,173,o),
(141,295,o),
(141,365,qs),
(141,443,o),
(193,558,o),
(295,622,o),
(370,622,qs),
(433,622,o),
(527,570,o),
(590,477,o),
(622,355,o),
(622,286,qs),
(622,208,o),
(571,91,o),
(469,26,o),
(392,26,qs),
(329,26,o)
);
}
);
width = 763;
},
{
layerId = "9ED1D18C-5CBC-4B18-9EF9-8B0496956F76";
shapes = (
{
closed = 1;
nodes = (
(432,691,q),
(432,698,o),
(420,713,q),
(393,747,o),
(340,809,o),
(308,840,q),
(294,854,o),
(273,851,q),
(265,850,o),
(228,837,o),
(197,819,o),
(199,810,q),
(202,799,o),
(219,788,q),
(260,763,o),
(352,713,o),
(392,689,q),
(401,684,o),
(416,680,o),
(419,681,q),
(432,684,o)
);
},
{
closed = 1;
nodes = (
(597,44,o),
(688,142,o),
(734,268,o),
(734,335,q),
(734,409,o),
(678,530,o),
(580,617,o),
(454,664,o),
(384,664,q),
(296,664,o),
(162,606,o),
(71,508,o),
(25,383,o),
(25,315,q),
(25,241,o),
(81,120,o),
(179,33,o),
(305,-14,o),
(375,-14,q),
(463,-14,o)
);
},
{
closed = 1;
nodes = (
(273,92,o),
(228,189,o),
(206,307,o),
(206,367,q),
(206,440,o),
(241,552,o),
(312,616,o),
(364,616,q),
(414,616,o),
(485,558,o),
(531,461,o),
(553,343,o),
(553,283,q),
(553,210,o),
(517,97,o),
(446,33,o),
(393,33,q),
(344,33,o)
);
}
);
width = 759;
}
);
note = Ograve;
unicode = 210;
}
{
glyphname = multiply;
layers = (
{
layerId = m01;
shapes = (
{
closed = 1;
nodes = (
(486,89,o),
(486,102,qs),
(486,109,o),
(481,114,qs),
(345,250,l),
(343,253,o),
(345,255,qs),
(476,386,ls),
(483,393,o),
(483,401,qs),
(483,410,o),
(471,431,o),
(466,441,qs),
(463,446,o),
(457,446,qs),
(452,446,o),
(447,441,qs),
(303,298,ls),
(302,297,o),
(300,295,o),
(296,299,qs),
(153,441,ls),
(149,445,o),
(138,445,o),
(134,441,qs),
(132,438,o),
(118,412,o),
(118,400,qs),
(118,391,o),
(123,386,qs),
(252,258,ls),
(255,255,o),
(256,251,o),
(253,248,qs),
(119,114,ls),
(114,109,o),
(114,102,qs),
(114,91,o),
(132,67,o),
(136,63,qs),
(139,60,o),
(150,60,o),
(154,64,qs),
(297,207,ls),
(301,211,o),
(304,207,q),
(446,64,ls),
(450,60,o),
(456,60,qs),
(464,60,o)
);
}
);
width = 600;
},
{
layerId = "9ED1D18C-5CBC-4B18-9EF9-8B0496956F76";
shapes = (
{
closed = 1;
nodes = (
(456,82,o),
(456,92,q),
(456,104,o),
(449,111,q),
(315,243,l),
(306,252,o),
(315,261,q),
(448,395,l),
(454,401,o),
(454,409,q),
(454,421,o),
(439,445,o),
(434,451,q),
(431,454,o),
(425,454,q),
(418,454,o),
(412,448,q),
(270,306,l),
(265,301,o),
(257,302,o),
(252,306,q),
(112,448,l),
(108,453,o),
(94,455,o),
(90,451,q),
(85,445,o),
(70,421,o),
(70,409,q),
(70,401,o),
(76,395,q),
(207,262,l),
(213,256,o),
(213,248,o),
(207,242,q),
(80,116,l),
(74,110,o),
(74,98,q),
(74,83,o),
(91,54,o),
(98,54,q),
(103,54,o),
(113,59,o),
(117,63,q),
(251,198,l),
(261,208,o),
(270,199,q),
(412,58,l),
(421,49,o),
(431,49,q),
(442,49,o)
);
}
);
width = 526;
}
);
note = multiply;
unicode = 215;
}
{
glyphname = Oslash;
kernLeft = C;
kernRight = D;
layers = (
{
layerId = m01;
shapes = (
{
closed = 1;
nodes = (
(78,-12,o),
(79,-11,qs),
(712,621,ls),
(716,625,o),
(719,634,o),
(719,639,qs),
(719,643,o),
(717,651,o),
(716,654,qs),
(714,661,o),
(697,663,o),
(692,658,qs),
(52,26,ls),
(42,16,o),
(42,6,qs),
(42,-1,o),
(60,-14,o),
(70,-14,qs),
(73,-14,o)
);
},
{
closed = 1;
nodes = (
(588,44,o),
(674,142,o),
(718,268,o),
(718,335,qs),
(718,409,o),
(664,530,o),
(572,617,o),
(452,664,o),
(386,664,qs),
(303,664,o),
(175,606,o),
(89,508,o),
(45,383,o),
(45,315,qs),
(45,241,o),
(99,120,o),
(191,33,o),
(311,-14,o),
(377,-14,qs),
(460,-14,o)
);
},
{
closed = 1;
nodes = (
(235,79,o),
(172,173,o),
(141,295,o),
(141,365,qs),
(141,443,o),
(193,558,o),
(295,622,o),
(370,622,qs),
(433,622,o),
(527,570,o),
(590,477,o),
(622,355,o),
(622,286,qs),
(622,208,o),
(571,91,o),
(469,26,o),
(392,26,qs),
(329,26,o)
);
}
);
width = 773;
},
{
layerId = "9ED1D18C-5CBC-4B18-9EF9-8B0496956F76";
shapes = (
{
closed = 1;
nodes = (
(92,-10,o),
(95,-7,q),
(723,587,l),
(731,594,o),
(736,612,o),
(736,621,q),
(736,628,o),
(732,643,o),
(730,649,q),
(726,662,o),
(696,667,o),
(687,656,q),
(45,60,l),
(27,44,o),
(27,23,q),
(27,10,o),
(59,-14,o),
(78,-14,q),
(85,-14,o)
);
},
{
closed = 1;
nodes = (
(597,44,o),
(688,142,o),
(734,268,o),
(734,335,q),
(734,409,o),
(678,530,o),
(580,617,o),
(454,664,o),
(384,664,q),
(296,664,o),
(162,606,o),
(71,508,o),
(25,383,o),
(25,315,q),
(25,241,o),
(81,120,o),
(179,33,o),
(305,-14,o),
(375,-14,q),
(463,-14,o)
);
},
{
closed = 1;
nodes = (
(273,92,o),
(228,189,o),
(206,307,o),
(206,367,q),
(206,440,o),
(241,552,o),
(312,616,o),
(364,616,q),
(414,616,o),
(485,558,o),
(531,461,o),
(553,343,o),
(553,283,q),
(553,210,o),
(517,97,o),
(446,33,o),
(393,33,q),
(344,33,o)
);
}
);
width = 759;
}
);
note = Oslash;
unicode = 216;
}
{
glyphname = Thorn;
kernLeft = B;
layers = (
{
layerId = m01;
shapes = (
{
closed = 1;
nodes = (
(117,-2,o),
(155,0,o),
(180,0,qs),
(203,0,o),
(235,-2,o),
(270,-5,o),
(297,-5,qs),
(310,-5,o),
(326,0,o),
(326,6,qs),
(326,13,o),
(310,21,o),
(293,24,qs),
(256,31,o),
(214,65,o),
(214,96,qs),
(214,123,ls),
(214,132,o),
(222,132,qs),
(229,132,o),
(246,129,o),
(256,129,qs),
(325,129,o),
(445,172,o),
(519,264,o),
(519,337,qs),
(519,397,o),
(465,480,o),
(372,524,o),
(315,524,qs),
(295,524,o),
(257,521,o),
(243,517,q),
(243,517,o),
(232,515,o),
(222,512,o),
(220,512,qs),
(216,512,o),
(214,524,o),
(214,532,qs),
(214,549,ls),
(214,585,o),
(255,615,o),
(292,622,qs),
(309,625,o),
(325,635,o),
(325,642,qs),
(325,648,o),
(309,653,o),
(296,653,qs),
(269,653,o),
(233,651,o),
(200,650,o),
(177,650,qs),
(157,650,o),
(130,651,o),
(100,653,o),
(73,653,qs),
(60,653,o),
(44,648,o),
(44,642,qs),
(44,628,o),
(77,622,qs),
(115,615,o),
(134,578,o),
(134,549,qs),
(134,99,ls),
(134,63,o),
(93,31,o),
(55,24,qs),
(22,18,o),
(22,6,qs),
(22,0,o),
(38,-5,o),
(51,-5,qs),
(78,-5,o)
);
},
{
closed = 1;
nodes = (
(214,185,o),
(214,216,qs),
(214,420,ls),
(214,452,o),
(227,485,o),
(264,496,o),
(299,496,qs),
(346,496,o),
(405,451,o),
(433,378,o),
(433,335,qs),
(433,256,o),
(345,158,o),
(265,158,qs),
(246,158,o)
);
}
);
width = 559;
},
{
layerId = "9ED1D18C-5CBC-4B18-9EF9-8B0496956F76";
shapes = (
{
closed = 1;
nodes = (
(110,0,o),
(163,2,o),
(183,2,q),
(203,2,o),
(259,0,o),
(317,-2,o),
(338,-2,q),
(346,-2,o),
(354,6,o),
(354,13,q),
(354,23,o),
(344,31,o),
(335,34,q),
(296,45,o),
(270,70,o),
(270,98,q),
(270,122,l),
(270,131,o),
(278,131,q),
(285,131,o),
(308,128,o),
(318,128,q),
(389,128,o),
(507,181,o),
(577,281,o),
(577,352,q),
(577,423,o),
(522,514,o),
(431,559,o),
(377,559,q),
(357,559,o),
(318,556,o),
(299,551,q),
(302,551,o),
(291,548,o),
(278,545,o),
(276,545,q),
(272,545,o),
(270,549,o),
(270,552,q),
(270,561,l),
(272,585,o),
(297,607,o),
(335,618,q),
(344,621,o),
(354,629,o),
(354,639,q),
(354,647,o),
(346,654,o),
(338,654,q),
(317,654,o),
(259,652,o),
(203,650,o),
(183,650,q),
(163,650,o),
(110,653,o),
(55,655,o),
(33,655,q),
(27,655,o),
(15,647,o),
(15,640,q),
(15,623,o),
(34,618,q),
(74,609,o),
(100,583,o),
(100,551,q),
(100,97,l),
(100,66,o),
(72,42,o),
(34,34,q),
(15,29,o),
(15,12,q),
(15,5,o),
(27,-3,o),
(33,-3,q),
(55,-3,o)
);
},
{
closed = 1;
nodes = (
(270,193,o),
(270,238,q),
(270,436,l),
(270,465,o),
(284,498,o),
(310,512,o),
(326,512,q),
(351,512,o),
(389,469,o),
(410,390,o),
(410,335,q),
(410,256,o),
(363,170,o),
(306,170,q),
(296,170,o)
);
}
);
width = 597;
}
);
note = Thorn;
unicode = 222;
}
{
glyphname = germandbls;
layers = (
{
layerId = m01;
shapes = (
{
closed = 1;
nodes = (
(400,10,o),
(446,53,o),
(474,109,o),
(474,140,qs),
(474,160,o),
(463,194,o),
(432,236,o),
(401,266,qs),
(370,297,o),
(337,329,o),
(324,350,o),
(324,364,qs),
(324,392,o),
(350,421,o),
(375,443,qs),
(422,484,o),
(454,539,o),
(454,572,qs),
(454,608,o),
(419,669,o),
(358,706,o),
(318,706,qs),
(281,706,o),
(201,676,o),
(132,606,o),
(89,489,o),
(89,402,q),
(76,395,o),
(53,382,o),
(30,376,q),
(26,374,o),
(26,369,qs),
(26,364,o),
(34,353,o),
(37,352,q),
(53,351,o),
(79,350,o),
(89,350,q),
(89,69,ls),
(89,48,o),
(62,29,o),
(47,24,qs),
(39,21,o),
(24,14,o),
(24,6,qs),
(24,-1,o),
(43,-3,o),
(47,-3,qs),
(67,-3,o),
(88,0,o),
(108,2,o),
(125,2,qs),
(143,2,o),
(161,0,o),
(182,-3,o),
(201,-3,qs),
(205,-3,o),
(224,-1,o),
(224,6,qs),
(224,14,o),
(209,21,o),
(201,24,qs),
(186,29,o),
(159,48,o),
(159,69,qs),
(159,475,ls),
(159,579,o),
(223,665,o),
(272,665,qs),
(335,665,o),
(391,601,o),
(391,555,qs),
(391,528,o),
(367,476,o),
(350,458,qs),
(327,434,o),
(278,397,o),
(245,360,o),
(245,336,qs),
(245,319,o),
(257,294,o),
(295,255,o),
(334,217,qs),
(366,187,o),
(405,147,o),
(422,116,o),
(422,98,qs),
(422,68,o),
(385,41,o),
(365,41,qs),
(342,41,o),
(314,51,o),
(296,66,qs),
(290,71,o),
(271,81,o),
(265,81,qs),
(252,81,o),
(241,53,o),
(241,33,qs),
(241,8,o),
(286,-15,o),
(314,-15,qs),
(343,-15,o)
);
}
);
width = 504;
},
{
layerId = "9ED1D18C-5CBC-4B18-9EF9-8B0496956F76";
shapes = (
{
closed = 1;
nodes = (
(489,12,o),
(542,60,o),
(577,123,o),
(577,159,q),
(577,186,o),
(551,231,o),
(511,270,o),
(489,287,q),
(471,303,o),
(438,332,o),
(418,362,o),
(418,378,q),
(418,418,o),
(439,464,o),
(454,482,q),
(470,501,o),
(500,554,o),
(500,600,q),
(500,628,o),
(461,676,o),
(394,706,o),
(352,706,q),
(309,706,o),
(217,676,o),
(138,610,o),
(85,501,o),
(80,423,q),
(66,415,o),
(36,405,o),
(24,400,q),
(14,397,o),
(14,390,q),
(14,382,o),
(22,359,o),
(28,358,q),
(44,357,o),
(70,356,o),
(80,356,q),
(80,71,l),
(80,51,o),
(58,38,o),
(43,33,q),
(35,30,o),
(20,20,o),
(20,12,q),
(20,5,o),
(34,-3,o),
(40,-3,q),
(60,-3,o),
(100,0,o),
(138,2,o),
(155,2,q),
(173,2,o),
(216,0,o),
(262,-3,o),
(282,-3,q),
(288,-3,o),
(298,6,o),
(298,12,q),
(298,20,o),
(287,31,o),
(279,33,q),
(255,38,o),
(225,55,o),
(225,75,q),
(225,471,l),
(225,577,o),
(278,665,o),
(332,665,q),
(376,665,o),
(421,597,o),
(421,544,q),
(421,510,o),
(392,458,o),
(369,436,q),
(353,421,o),
(319,392,o),
(296,357,o),
(296,333,q),
(296,307,o),
(326,261,o),
(372,218,o),
(396,198,q),
(420,179,o),
(462,142,o),
(488,104,o),
(488,84,q),
(488,65,o),
(458,47,o),
(445,47,q),
(423,47,o),
(395,69,o),
(381,85,q),
(368,101,o),
(354,111,o),
(345,111,q),
(328,111,o),
(309,68,o),
(309,50,q),
(309,24,o),
(359,-14,o),
(411,-14,q),
(432,-14,o)
);
}
);
width = 597;
}
);
note = germandbls;
unicode = 223;
}
{
glyphname = acircumflex;
kernLeft = a;
kernRight = a;
layers = (
{
layerId = m01;
shapes = (
{
closed = 1;
nodes = (
(185,636,o),
(181,630,qs),
(174,618,o),
(145,570,o),
(114,515,o),
(93,473,o),
(93,468,qs),
(93,461,o),
(95,455,o),
(102,455,qs),
(108,455,o),
(126,470,o),
(132,477,qs),
(142,488,o),
(182,540,o),
(198,562,qs),
(200,565,o),
(203,565,o),
(205,562,qs),
(222,540,o),
(261,488,o),
(271,477,qs),
(277,470,o),
(294,455,o),
(300,455,qs),
(307,455,o),
(309,461,o),
(309,468,qs),
(309,473,o),
(288,515,o),
(257,570,o),
(229,618,o),
(221,630,qs),
(217,636,o),
(207,648,o),
(201,648,qs),
(195,648,o)
);
},
{
closed = 1;
nodes = (
(209,11,o),
(242,38,q),
(245,38,l),
(272,-14,o),
(318,-14,qs),
(334,-14,o),
(371,5,o),
(387,21,qs),
(398,32,o),
(398,43,qs),
(398,48,o),
(392,54,o),
(387,54,qs),
(384,54,o),
(379,49,qs),
(367,38,o),
(342,38,qs),
(326,38,o),
(305,64,o),
(306,85,qs),
(311,325,ls),
(312,363,o),
(265,414,o),
(229,414,qs),
(209,414,o),
(157,396,o),
(103,364,o),
(80,343,qs),
(61,327,o),
(40,290,o),
(40,274,qs),
(40,270,o),
(46,265,o),
(51,265,qs),
(61,265,o),
(92,278,o),
(117,295,o),
(117,300,qs),
(117,304,o),
(116,314,o),
(116,318,qs),
(116,327,o),
(120,343,o),
(126,347,qs),
(136,355,o),
(166,365,o),
(181,365,qs),
(210,365,o),
(241,327,o),
(240,301,qs),
(238,237,ls),
(237,217,o),
(230,205,o),
(210,197,qs),
(108,155,ls),
(71,140,o),
(37,104,o),
(37,72,qs),
(37,54,o),
(62,14,o),
(99,-14,o),
(117,-14,qs),
(149,-14,o)
);
},
{
closed = 1;
nodes = (
(115,61,o),
(115,87,qs),
(115,104,o),
(156,145,o),
(209,164,qs),
(217,167,o),
(227,169,o),
(229,169,qs),
(235,169,o),
(239,159,o),
(238,148,qs),
(236,99,ls),
(235,80,o),
(228,63,o),
(223,58,qs),
(212,47,o),
(184,34,o),
(164,34,qs),
(146,34,o)
);
}
);
width = 399;
},
{
layerId = "9ED1D18C-5CBC-4B18-9EF9-8B0496956F76";
shapes = (
{
closed = 1;
nodes = (
(202,655,o),
(189,633,q),
(179,616,o),
(159,583,o),
(139,550,o),
(120,517,o),
(111,500,q),
(101,482,o),
(105,455,o),
(121,455,q),
(129,455,o),
(149,473,o),
(164,489,q),
(175,501,o),
(203,534,o),
(222,553,q),
(227,558,o),
(230,557,o),
(234,553,q),
(253,534,o),
(282,501,o),
(292,489,q),
(307,473,o),
(328,455,o),
(335,455,q),
(345,455,o),
(355,481,o),
(345,500,q),
(336,517,o),
(316,551,o),
(296,584,o),
(276,618,o),
(266,635,q),
(255,655,o),
(239,676,o),
(228,676,q),
(218,676,o)
);
},
{
closed = 1;
nodes = (
(213,13,o),
(246,44,q),
(248,44,l),
(287,-14,o),
(345,-14,q),
(369,-14,o),
(413,5,o),
(432,24,q),
(452,44,o),
(452,56,q),
(452,61,o),
(445,68,o),
(440,68,q),
(437,68,o),
(434,65,q),
(420,52,o),
(402,52,q),
(389,52,o),
(372,85,o),
(373,108,q),
(378,302,l),
(380,363,o),
(312,436,o),
(255,436,q),
(233,436,o),
(171,415,o),
(107,381,o),
(80,359,q),
(54,338,o),
(32,308,o),
(32,292,q),
(32,282,o),
(43,269,o),
(51,269,q),
(67,269,o),
(111,284,o),
(145,303,o),
(145,310,q),
(145,316,o),
(143,335,o),
(143,341,q),
(143,346,o),
(145,356,o),
(148,360,q),
(154,367,o),
(180,378,o),
(192,378,q),
(213,378,o),
(233,347,o),
(232,318,q),
(231,263,l),
(231,244,o),
(221,229,o),
(201,220,q),
(115,182,l),
(72,163,o),
(27,115,o),
(27,80,q),
(27,54,o),
(55,11,o),
(103,-14,o),
(132,-14,q),
(161,-14,o)
);
},
{
closed = 1;
nodes = (
(160,75,o),
(160,104,q),
(160,139,o),
(185,166,o),
(209,179,q),
(212,181,o),
(217,182,o),
(219,182,q),
(223,182,o),
(229,177,o),
(229,168,q),
(226,91,l),
(226,84,o),
(223,72,o),
(220,68,q),
(215,61,o),
(203,55,o),
(194,55,q),
(183,55,o)
);
}
);
width = 447;
}
);
note = acircumflex;
unicode = 226;
}
{
glyphname = ae;
kernLeft = a;
kernRight = ae;
layers = (
{
layerId = m01;
shapes = (
{
closed = 1;
nodes = (
(202,5,o),
(230,28,o),
(238,34,qs),
(242,38,o),
(246,38,qs),
(248,38,o),
(257,28,o),
(259,26,qs),
(282,7,o),
(339,-14,o),
(368,-14,qs),
(425,-14,o),
(498,35,o),
(531,83,qs),
(532,84,o),
(532,86,o),
(532,87,qs),
(532,98,o),
(519,98,qs),
(514,98,o),
(510,94,qs),
(486,66,o),
(429,46,o),
(399,46,qs),
(377,46,o),
(337,60,o),
(311,96,o),
(311,129,qs),
(311,185,ls),
(311,189,o),
(318,201,o),
(322,203,qs),
(335,209,o),
(391,233,o),
(453,260,o),
(501,281,o),
(506,284,qs),
(517,289,o),
(530,302,o),
(530,318,qs),
(530,351,o),
(493,393,o),
(439,413,o),
(413,413,qs),
(388,413,o),
(324,393,o),
(306,380,qs),
(300,376,o),
(299,376,qs),
(297,376,o),
(294,381,qs),
(288,392,o),
(246,414,o),
(231,414,qs),
(205,414,o),
(147,390,o),
(98,356,o),
(82,342,qs),
(42,307,o),
(42,273,qs),
(42,271,o),
(46,264,o),
(50,264,qs),
(57,264,o),
(90,276,o),
(119,292,o),
(119,299,qs),
(119,303,o),
(118,309,o),
(118,313,qs),
(118,325,o),
(122,332,qs),
(128,343,o),
(165,365,o),
(183,365,qs),
(211,365,o),
(243,325,o),
(243,299,qs),
(243,233,ls),
(243,221,o),
(234,211,o),
(214,202,qs),
(110,155,ls),
(73,139,o),
(37,97,o),
(37,65,qs),
(37,46,o),
(63,9,o),
(103,-14,o),
(123,-14,qs),
(157,-13,o)
);
},
{
closed = 1;
nodes = (
(117,59,o),
(117,87,qs),
(118,109,o),
(155,142,o),
(203,165,o),
(219,169,qs),
(230,172,o),
(234,172,qs),
(240,172,o),
(242,160,o),
(242,148,qs),
(242,96,ls),
(242,77,o),
(233,64,o),
(228,59,qs),
(216,49,o),
(186,32,o),
(166,32,qs),
(152,32,o)
);
},
{
closed = 1;
nodes = (
(312,247,o),
(312,254,qs),
(312,321,ls),
(313,339,o),
(343,364,o),
(379,378,o),
(387,378,qs),
(419,378,o),
(461,335,o),
(461,306,qs),
(461,302,o),
(459,294,o),
(454,292,qs),
(440,286,o),
(364,259,o),
(327,244,q),
(323,243,o)
);
}
);
width = 557;
},
{
layerId = "9ED1D18C-5CBC-4B18-9EF9-8B0496956F76";
shapes = (
{
closed = 1;
nodes = (
(204,0,o),
(235,26,o),
(251,42,q),
(256,47,o),
(259,47,q),
(261,47,o),
(266,44,o),
(268,42,q),
(299,12,o),
(367,-14,o),
(410,-14,q),
(489,-14,o),
(574,55,o),
(602,108,q),
(605,114,o),
(608,130,o),
(608,135,q),
(608,148,o),
(597,148,q),
(588,148,o),
(583,141,q),
(561,113,o),
(502,88,o),
(474,88,q),
(447,88,o),
(401,117,o),
(374,161,o),
(374,181,q),
(374,203,l),
(374,211,o),
(381,220,o),
(385,221,q),
(400,226,o),
(462,245,o),
(531,264,o),
(584,279,o),
(591,280,q),
(602,282,o),
(615,298,o),
(615,314,q),
(615,350,o),
(574,405,o),
(501,437,o),
(454,437,q),
(420,437,o),
(373,421,o),
(350,408,q),
(346,405,o),
(342,405,q),
(339,405,o),
(334,408,q),
(315,424,o),
(276,437,o),
(250,437,q),
(221,437,o),
(156,412,o),
(98,377,o),
(79,362,q),
(32,324,o),
(32,292,q),
(32,282,o),
(43,269,o),
(51,269,q),
(65,269,o),
(109,283,o),
(145,302,o),
(145,310,q),
(145,316,o),
(143,332,o),
(143,338,q),
(143,351,o),
(148,357,q),
(154,364,o),
(180,376,o),
(192,376,q),
(213,376,o),
(233,345,o),
(232,316,q),
(231,256,l),
(231,237,o),
(221,222,o),
(201,213,q),
(115,182,l),
(70,166,o),
(27,115,o),
(27,80,q),
(27,54,o),
(57,11,o),
(107,-14,o),
(136,-14,q),
(164,-14,o)
);
},
{
closed = 1;
nodes = (
(160,75,o),
(160,104,q),
(160,120,o),
(172,142,o),
(195,161,o),
(213,169,q),
(219,172,o),
(223,172,q),
(227,172,o),
(229,164,o),
(229,155,q),
(229,92,l),
(229,85,o),
(223,72,o),
(220,68,q),
(215,61,o),
(203,55,o),
(194,55,q),
(183,55,o)
);
},
{
closed = 1;
nodes = (
(377,275,o),
(377,279,q),
(378,331,l),
(378,350,o),
(397,378,o),
(428,394,o),
(447,394,q),
(480,394,o),
(506,353,o),
(506,326,q),
(506,316,o),
(501,303,o),
(490,300,q),
(456,290,o),
(410,278,o),
(386,272,q),
(382,271,o)
);
}
);
width = 638;
}
);
note = ae;
unicode = 230;
}
{
glyphname = ecircumflex;
kernLeft = c;
kernRight = ae;
layers = (
{
layerId = m01;
shapes = (
{
closed = 1;
nodes = (
(206,636,o),
(202,630,qs),
(195,618,o),
(166,570,o),
(135,515,o),
(114,473,o),
(114,468,qs),
(114,461,o),
(116,455,o),
(123,455,qs),
(129,455,o),
(147,470,o),
(153,477,qs),
(163,488,o),
(203,540,o),
(219,562,qs),
(221,565,o),
(224,565,o),
(226,562,qs),
(243,540,o),
(282,488,o),
(292,477,qs),
(298,470,o),
(315,455,o),
(321,455,qs),
(328,455,o),
(330,461,o),
(330,468,qs),
(330,473,o),
(309,515,o),
(278,570,o),
(250,618,o),
(242,630,qs),
(238,636,o),
(228,648,o),
(222,648,qs),
(216,648,o)
);
},
{
closed = 1;
nodes = (
(290,0,o),
(332,28,o),
(347,47,qs),
(365,70,o),
(365,89,qs),
(365,99,o),
(357,99,qs),
(354,99,o),
(350,96,o),
(346,91,qs),
(327,69,o),
(278,46,o),
(248,46,qs),
(206,46,o),
(136,93,o),
(94,172,o),
(94,220,qs),
(94,242,o),
(105,257,o),
(119,257,qs),
(330,257,ls),
(360,257,o),
(360,288,qs),
(360,325,o),
(325,382,o),
(263,414,o),
(223,414,qs),
(171,414,o),
(83,356,o),
(30,261,o),
(30,203,qs),
(30,138,o),
(76,39,o),
(158,-15,o),
(213,-15,qs),
(240,-15,o)
);
},
{
closed = 1;
nodes = (
(109,298,qs),
(109,318,o),
(139,358,o),
(185,385,o),
(208,385,qs),
(243,385,o),
(294,344,o),
(294,315,qs),
(294,305,o),
(291,294,o),
(286,293,qs),
(270,290,o),
(236,288,o),
(212,288,qs),
(121,288,ls),
(109,288,o)
);
}
);
width = 390;
},
{
layerId = "9ED1D18C-5CBC-4B18-9EF9-8B0496956F76";
shapes = (
{
closed = 1;
nodes = (
(213,655,o),
(200,633,q),
(190,616,o),
(170,583,o),
(150,550,o),
(131,517,o),
(122,500,q),
(112,482,o),
(116,455,o),
(132,455,q),
(140,455,o),
(160,473,o),
(175,489,q),
(186,501,o),
(214,534,o),
(233,553,q),
(238,558,o),
(241,557,o),
(245,553,q),
(264,534,o),
(293,501,o),
(303,489,q),
(318,473,o),
(339,455,o),
(346,455,q),
(356,455,o),
(366,481,o),
(356,500,q),
(347,517,o),
(327,551,o),
(307,584,o),
(287,618,o),
(277,635,q),
(266,655,o),
(250,676,o),
(239,676,q),
(229,676,o)
);
},
{
closed = 1;
nodes = (
(334,20,o),
(382,73,o),
(391,100,q),
(397,118,o),
(397,127,q),
(397,140,o),
(386,140,q),
(383,140,o),
(375,135,o),
(372,133,q),
(347,114,o),
(298,92,o),
(269,92,q),
(232,92,o),
(176,126,o),
(144,185,o),
(144,221,q),
(144,240,o),
(157,256,o),
(171,256,q),
(369,256,l),
(400,256,o),
(400,295,q),
(400,335,o),
(358,398,o),
(288,436,o),
(245,436,q),
(183,436,o),
(81,374,o),
(21,269,o),
(21,205,q),
(21,143,o),
(71,44,o),
(157,-14,o),
(211,-14,q),
(259,-14,o)
);
},
{
closed = 1;
nodes = (
(156,315,q),
(155,335,o),
(177,371,o),
(212,394,o),
(232,394,q),
(258,394,o),
(291,361,o),
(291,335,q),
(291,325,o),
(285,307,o),
(280,305,q),
(272,302,o),
(253,300,o),
(224,300,q),
(171,300,l),
(156,300,o)
);
}
);
width = 423;
}
);
note = ecircumflex;
unicode = 234;
}
{
glyphname = igrave;
kernLeft = i;
layers = (
{
layerId = m01;
shapes = (
{
closed = 1;
nodes = (
(155,466,qs),
(155,469,o),
(153,478,o),
(151,484,qs),
(144,503,o),
(113,562,o),
(82,618,o),
(74,631,qs),
(70,639,o),
(55,649,o),
(47,649,qs),
(28,649,o),
(-2,639,o),
(-2,628,qs),
(-2,622,o),
(4,614,o),
(8,607,qs),
(20,590,o),
(61,539,o),
(103,491,o),
(116,478,qs),
(137,457,o),
(147,457,qs),
(155,457,o)
);
},
{
closed = 1;
nodes = (
(86,0,o),
(108,2,o),
(125,2,qs),
(143,2,o),
(164,0,o),
(187,-3,o),
(206,-3,qs),
(226,-3,o),
(226,8,qs),
(226,16,o),
(211,22,o),
(203,24,qs),
(183,29,o),
(160,45,o),
(160,62,qs),
(160,294,ls),
(160,317,o),
(164,374,o),
(169,421,o),
(169,429,qs),
(169,434,o),
(163,434,qs),
(158,434,o),
(149,427,qs),
(136,417,o),
(84,386,o),
(44,377,q),
(35,376,o),
(35,365,qs),
(35,359,o),
(40,353,o),
(45,352,qs),
(71,348,o),
(90,306,o),
(90,279,qs),
(90,62,ls),
(90,44,o),
(68,29,o),
(47,24,qs),
(39,22,o),
(24,16,o),
(24,8,qs),
(24,2,o),
(35,-3,o),
(44,-3,qs),
(64,-3,o)
);
}
);
width = 245;
},
{
layerId = "9ED1D18C-5CBC-4B18-9EF9-8B0496956F76";
shapes = (
{
closed = 1;
nodes = (
(203,465,q),
(203,469,o),
(201,480,o),
(198,487,q),
(191,506,o),
(167,563,o),
(143,618,o),
(135,633,q),
(127,650,o),
(106,660,o),
(86,660,q),
(61,660,o),
(25,648,o),
(25,635,q),
(25,630,o),
(29,617,o),
(35,610,q),
(56,587,o),
(99,538,o),
(144,490,o),
(166,467,q),
(181,452,o),
(192,452,q),
(203,452,o)
);
},
{
closed = 1;
nodes = (
(98,0,o),
(139,2,o),
(156,2,q),
(174,2,o),
(217,0,o),
(262,-2,o),
(281,-2,q),
(296,-2,o),
(296,12,q),
(296,20,o),
(286,28,o),
(278,31,q),
(250,40,o),
(230,56,o),
(230,69,q),
(230,288,l),
(230,313,o),
(235,367,o),
(242,418,o),
(243,437,q),
(243,451,o),
(229,451,q),
(225,451,o),
(207,443,q),
(184,433,o),
(96,396,o),
(42,385,q),
(30,383,o),
(30,367,q),
(30,360,o),
(36,349,o),
(42,348,q),
(64,345,o),
(85,320,o),
(85,284,q),
(85,68,l),
(85,52,o),
(64,38,o),
(37,31,q),
(29,29,o),
(20,19,o),
(20,11,q),
(20,5,o),
(30,-3,o),
(36,-3,q),
(56,-3,o)
);
}
);
width = 306;
}
);
note = igrave;
unicode = 236;
}
{
glyphname = icircumflex;
kernLeft = i;
layers = (
{
layerId = m01;
shapes = (
{
closed = 1;
nodes = (
(108,636,o),
(104,630,qs),
(97,618,o),
(68,570,o),
(37,515,o),
(16,473,o),
(16,468,qs),
(16,461,o),
(18,455,o),
(25,455,qs),
(31,455,o),
(49,470,o),
(55,477,qs),
(65,488,o),
(105,540,o),
(121,562,qs),
(123,565,o),
(126,565,o),
(128,562,qs),
(145,540,o),
(184,488,o),
(194,477,qs),
(200,470,o),
(217,455,o),
(223,455,qs),
(230,455,o),
(232,461,o),
(232,468,qs),
(232,473,o),
(211,515,o),
(180,570,o),
(152,618,o),
(144,630,qs),
(140,636,o),
(130,648,o),
(124,648,qs),
(118,648,o)
);
},
{
closed = 1;
nodes = (
(86,0,o),
(108,2,o),
(125,2,qs),
(143,2,o),
(164,0,o),
(187,-3,o),
(206,-3,qs),
(226,-3,o),
(226,8,qs),
(226,16,o),
(211,22,o),
(203,24,qs),
(183,29,o),
(160,45,o),
(160,62,qs),
(160,294,ls),
(160,317,o),
(164,374,o),
(169,421,o),
(169,429,qs),
(169,434,o),
(163,434,qs),
(158,434,o),
(149,427,qs),
(136,417,o),
(84,386,o),
(44,377,q),
(35,376,o),
(35,365,qs),
(35,359,o),
(40,353,o),
(45,352,qs),
(71,348,o),
(90,306,o),
(90,279,qs),
(90,62,ls),
(90,44,o),
(68,29,o),
(47,24,qs),
(39,22,o),
(24,16,o),
(24,8,qs),
(24,2,o),
(35,-3,o),
(44,-3,qs),
(64,-3,o)
);
}
);
width = 245;
},
{
layerId = "9ED1D18C-5CBC-4B18-9EF9-8B0496956F76";
shapes = (
{
closed = 1;
nodes = (
(127,655,o),
(114,633,q),
(104,616,o),
(84,583,o),
(64,550,o),
(45,517,o),
(36,500,q),
(26,482,o),
(30,455,o),
(46,455,q),
(54,455,o),
(74,473,o),
(89,489,q),
(100,501,o),
(128,534,o),
(147,553,q),
(152,558,o),
(155,557,o),
(159,553,q),
(178,534,o),
(207,501,o),
(217,489,q),
(232,473,o),
(253,455,o),
(260,455,q),
(270,455,o),
(280,481,o),
(270,500,q),
(261,517,o),
(241,551,o),
(221,584,o),
(201,618,o),
(191,635,q),
(180,655,o),
(164,676,o),
(153,676,q),
(143,676,o)
);
},
{
closed = 1;
nodes = (
(98,0,o),
(139,2,o),
(156,2,q),
(174,2,o),
(217,0,o),
(262,-2,o),
(281,-2,q),
(296,-2,o),
(296,12,q),
(296,20,o),
(286,28,o),
(278,31,q),
(250,40,o),
(230,56,o),
(230,69,q),
(230,288,l),
(230,313,o),
(235,367,o),
(242,418,o),
(243,437,q),
(243,451,o),
(229,451,q),
(225,451,o),
(207,443,q),
(184,433,o),
(96,396,o),
(42,385,q),
(30,383,o),
(30,367,q),
(30,360,o),
(36,349,o),
(42,348,q),
(64,345,o),
(85,320,o),
(85,284,q),
(85,68,l),
(85,52,o),
(64,38,o),
(37,31,q),
(29,29,o),
(20,19,o),
(20,11,q),
(20,5,o),
(30,-3,o),
(36,-3,q),
(56,-3,o)
);
}
);
width = 306;
}
);
note = icircumflex;
unicode = 238;
}
